<svg width="929" height="228" viewBox="0 0 929 228" fill="none" xmlns="http://www.w3.org/2000/svg">
    <path d="M117.3 23.3978H69.9741V169.64H50.7878V23.3978H3.46143V5.91687H116.874V23.3978H117.3Z" fill="black"
        stroke="black" stroke-width="5" />
    <path
        d="M208.116 52.8168L154.394 188.4C144.588 212.703 131.371 224.641 113.89 224.641C109.2 224.641 104.936 224.215 101.525 223.362V206.734C105.363 208.013 109.2 208.866 112.611 208.866C121.991 208.866 129.239 203.323 133.929 191.811L143.309 169.64L97.688 52.8168H118.58L150.131 142.779C150.557 144.059 151.41 147.043 152.689 151.733H153.542C153.968 150.028 154.821 147.043 155.673 143.206L188.93 52.8168H208.116ZM239.667 153.012H239.241V223.789H220.481V53.2432H239.241V73.7086H239.667C249.047 58.3595 262.264 50.2586 280.172 50.2586C295.094 50.2586 307.032 55.375 315.56 66.0341C324.087 76.6932 328.351 90.3368 328.351 108.244C328.351 127.857 323.661 143.632 314.281 155.144C304.901 166.656 291.683 172.625 275.055 172.625C259.706 172.625 248.194 166.229 239.667 153.012ZM239.241 105.686V121.888C239.241 131.694 242.225 139.795 248.621 146.617C255.016 153.439 262.691 156.849 272.497 156.849C284.009 156.849 292.536 152.586 299.358 143.632C306.18 134.679 309.164 122.74 309.164 107.391C309.164 94.1741 306.18 84.3677 300.211 76.6932C294.242 69.445 286.141 65.6077 275.908 65.6077C264.822 65.6077 256.295 69.445 249.473 77.1195C242.652 84.7941 239.241 94.1741 239.241 105.686ZM443.895 115.919H361.181C361.607 129.136 365.018 138.942 371.84 146.19C378.662 153.439 387.615 156.849 399.553 156.849C412.771 156.849 424.709 152.586 435.794 143.632V161.113C425.561 168.788 411.918 172.199 394.863 172.199C378.235 172.199 365.444 167.082 356.064 156.423C346.684 145.764 341.994 130.841 341.994 111.655C341.994 93.3213 347.111 78.825 357.343 67.3132C367.576 55.8013 380.367 50.2586 395.716 50.2586C411.065 50.2586 423.003 55.375 431.104 65.1813C439.632 74.9877 443.469 88.6313 443.469 106.539V115.919H443.895ZM424.709 100.143C424.709 89.4841 422.151 80.9568 417.034 74.9877C411.918 69.0186 404.67 66.0341 395.716 66.0341C386.762 66.0341 379.514 69.0186 373.119 75.4141C367.15 81.8095 363.312 89.9104 361.607 100.143H424.709ZM454.128 164.098V151.307C466.066 158.981 477.578 162.392 489.942 162.392C502.733 162.392 512.54 159.834 518.935 154.291C525.757 149.175 528.741 141.5 528.741 132.12C528.741 123.593 526.61 117.198 521.92 112.081C517.656 106.965 507.85 100.143 492.927 91.6159C476.299 81.8095 465.64 73.7086 461.376 67.3132C457.112 60.9177 454.554 53.2432 454.554 44.7159C454.554 33.2041 459.244 23.3977 468.198 15.2968C477.151 7.19591 489.09 3.35864 504.012 3.35864C513.819 3.35864 523.625 5.0641 533.431 8.475V20.4132C523.625 16.1495 513.392 14.0177 502.733 14.0177C491.648 14.0177 482.694 17.0023 476.299 22.545C469.903 28.0877 466.492 35.3359 466.492 43.8632C466.492 52.3904 468.624 58.7859 473.314 63.9023C477.578 69.0186 487.384 75.4141 502.307 83.9413C517.656 92.4686 527.889 100.143 533.005 106.965C538.121 113.787 540.68 121.461 540.68 130.415C540.68 142.779 536.416 153.012 527.462 161.113C518.935 169.214 506.571 173.051 490.369 173.051C484.826 173.051 478.431 172.199 470.756 170.493C463.934 168.361 458.391 166.229 454.128 164.098ZM639.596 164.524C631.069 169.64 620.41 172.625 608.471 172.625C592.696 172.625 579.905 167.082 570.099 156.423C560.292 145.338 555.602 131.268 555.602 113.36C555.602 94.6004 561.145 79.6777 572.23 67.7395C583.316 55.8013 597.386 49.8323 614.441 49.8323C623.394 49.8323 631.921 51.5377 640.449 55.375V67.3132C631.921 62.1968 622.968 59.6386 612.735 59.6386C599.091 59.6386 588.006 64.755 579.479 74.5613C570.951 84.3677 566.688 97.1586 566.688 112.934C566.688 128.283 570.525 140.221 578.2 149.601C585.874 158.981 596.107 163.245 608.898 163.245C620.41 163.245 630.642 160.26 639.596 153.865V164.524ZM710.372 63.9023C706.961 61.3441 702.698 60.065 698.008 60.065C688.628 60.065 680.953 64.755 674.984 74.135C668.589 83.515 665.604 97.1586 665.604 114.64V169.64H655.371V52.8168H665.604V78.825H666.03C668.589 69.8713 672.852 63.0495 678.821 57.9332C684.79 52.8168 691.186 50.685 698.86 50.685C703.124 50.685 706.961 51.5377 710.372 52.8168V63.9023ZM728.28 23.3977C726.148 23.3977 724.016 22.545 722.31 20.8395C720.605 19.1341 719.752 17.0023 719.752 14.4441C719.752 11.8859 720.605 9.75409 722.31 8.475C724.016 6.76955 726.148 6.34319 728.28 6.34319C730.838 6.34319 732.543 7.19591 734.675 8.475C736.38 10.1805 737.233 11.8859 737.233 14.4441C737.233 17.0023 736.38 19.1341 734.675 20.8395C732.543 22.545 730.838 23.3977 728.28 23.3977ZM723.163 170.067V53.2432H733.822V170.067H723.163ZM770.49 149.175H770.063V223.789H759.404V53.2432H770.063V77.5459H770.49C774.753 69.0186 780.722 62.1968 788.397 57.5068C796.071 52.8168 804.599 50.685 813.979 50.685C828.901 50.685 840.413 55.8013 848.94 66.0341C857.468 76.2668 861.305 90.3368 861.305 107.818C861.305 127.43 856.615 143.206 846.809 155.144C837.429 167.082 824.638 173.051 808.862 173.051C791.808 172.625 779.017 164.95 770.49 149.175ZM770.063 105.686V120.609C770.063 132.547 773.9 142.353 781.149 150.88C788.397 159.408 798.203 163.671 810.141 163.671C822.079 163.671 831.886 158.555 839.134 148.322C846.382 138.089 850.219 124.446 850.219 107.818C850.219 93.3213 846.809 81.3832 839.987 72.8559C833.165 64.3286 823.785 60.065 812.7 60.065C799.056 60.065 788.397 64.755 781.149 73.7086C773.9 82.6623 770.063 93.3213 770.063 105.686ZM926.539 168.361C920.996 170.919 915.879 172.199 911.189 172.199C893.709 172.199 885.181 161.966 885.181 141.074V62.6232H864.289V52.8168H885.181V22.545C886.887 22.1186 888.592 21.2659 890.298 20.8395C892.003 20.4132 893.709 19.5605 895.414 19.1341V53.2432H926.112V63.0495H895.414V140.221C895.414 148.322 896.693 154.291 899.251 157.702C901.809 161.113 906.073 163.245 912.042 163.245C916.306 163.245 920.996 161.966 926.112 158.981V168.361H926.539Z"
        fill="black" stroke="black" stroke-width="5" />
</svg>