<svg width="883" height="249" viewBox="0 0 883 249" fill="none" xmlns="http://www.w3.org/2000/svg">
<path d="M370.504 119.104C370.504 90.7933 362.432 76.2589 346.286 75.4618C339.873 75.1534 333.466 76.2062 327.489 78.5511C322.618 80.2949 319.341 82.0194 317.616 83.7613V151.338C327.943 157.817 337.116 160.831 345.112 160.358C362.034 159.238 370.504 145.499 370.504 119.104ZM390.42 120.278C390.42 134.661 387.047 146.6 380.264 156.093C372.701 166.838 362.222 172.371 348.827 172.674C338.726 172.995 328.323 169.832 317.616 163.199V224.614L300.296 218.437V82.1147C303.138 78.6269 306.795 75.6329 311.23 73.0939C321.539 67.0865 334.064 63.9973 348.808 63.8456L349.053 64.0925C362.526 63.9214 372.911 69.4545 380.208 80.6741C387.01 90.9624 390.42 104.151 390.42 120.278ZM496.272 160.584C496.272 179.875 494.34 193.234 490.475 200.662C486.591 208.091 479.199 214.022 468.285 218.437C459.435 221.923 449.866 223.819 439.595 224.141L436.733 213.227C447.173 211.804 454.528 210.383 458.791 208.962C467.186 206.119 472.945 201.763 476.112 195.924C478.651 191.169 479.901 182.092 479.901 168.656V164.145C468.057 169.529 455.646 172.2 442.665 172.2C434.138 172.2 426.614 169.529 420.132 164.147C412.857 158.292 409.218 150.863 409.218 141.862V69.7772L426.54 63.8476V136.403C426.54 144.154 429.04 150.124 434.045 154.312C439.045 158.5 445.527 160.508 453.466 160.358C461.406 160.185 469.914 157.115 478.954 151.11V66.4605H496.272V160.584ZM563.886 171.726C561.988 171.886 560.085 171.969 558.181 171.973C548.385 171.973 540.748 169.642 535.291 164.962C529.851 160.281 527.124 153.818 527.124 145.575V77.3554H515.261V66.4605H527.124V37.5259L544.425 31.3669V66.4605H563.886V77.3574H544.425V145.101C544.425 151.6 546.169 156.206 549.654 158.896C552.648 161.113 557.406 162.382 563.886 162.705V171.726ZM668.754 170.304H651.432V103.452C651.432 96.6471 649.842 90.7933 646.676 85.9038C643.02 80.3708 637.942 77.6023 631.423 77.6023C623.483 77.6023 613.552 81.7919 601.633 90.1673V170.304H584.313V10.5025L601.635 5.04529V77.8317C612.701 69.7772 624.789 65.7392 637.922 65.7392C647.094 65.7392 654.521 68.8304 660.208 74.9894C665.91 81.1465 668.754 88.8219 668.754 97.9924V170.304ZM760.811 116.374C760.811 105.497 758.744 96.5149 754.632 89.409C749.745 80.7499 742.145 76.1831 731.874 75.7087C712.886 76.8072 703.412 90.4142 703.412 116.489C703.412 128.445 705.384 138.432 709.361 146.448C714.441 156.661 722.058 161.702 732.216 161.531C751.279 161.379 760.811 146.333 760.811 116.374ZM779.78 116.489C779.78 131.97 775.819 144.856 767.917 155.146C759.219 166.667 747.204 172.447 731.874 172.447C716.677 172.447 704.833 166.667 696.287 155.144C688.536 144.856 684.671 131.97 684.671 116.489C684.671 101.935 688.858 89.6929 697.234 79.7253C706.083 69.1512 717.719 63.8456 732.102 63.8456C746.484 63.8456 758.196 69.1531 767.215 79.7253C775.592 89.6929 779.78 101.935 779.78 116.489ZM879.074 170.304H861.756V99.6605C861.756 91.9111 859.423 85.8649 854.763 81.5081C850.101 77.1668 843.886 75.0633 836.136 75.2344C827.913 75.386 820.085 78.0767 812.657 83.2889V170.304H795.337V81.1465C805.304 73.889 814.477 69.1512 822.852 66.9349C830.753 64.8702 837.727 63.8456 843.734 63.8456C847.846 63.8456 851.713 64.2442 855.35 65.0393C862.155 66.6141 867.686 69.5303 871.951 73.8132C876.706 78.5511 879.074 84.2357 879.074 90.8866V170.304Z" fill="white" stroke="white" stroke-width="7"/>
<path d="M106.769 30.0017C97.8592 30.0426 89.3497 30.8027 81.8609 32.1286C59.8008 36.0247 55.7959 44.1823 55.7959 59.224V79.0911H107.924V85.7129H36.234C21.0834 85.7129 7.81852 94.8192 3.66974 112.141C-1.11672 131.997 -1.32863 144.387 3.66974 165.119C7.37526 180.552 16.223 191.548 31.3737 191.548H49.2966V167.732C49.2966 150.526 64.1829 135.349 81.8609 135.349H133.925C148.42 135.349 159.99 123.415 159.99 108.86V59.226C159.99 45.0979 148.072 34.4849 133.927 32.1286C124.972 30.6375 115.681 29.9609 106.769 30.0017ZM78.5792 45.9806C83.9644 45.9806 88.3601 50.4482 88.3601 55.9443C88.3601 61.419 83.9644 65.8457 78.5811 65.8457C73.1764 65.8457 68.7982 61.419 68.7982 55.9443C68.7982 50.4482 73.1764 45.9806 78.5792 45.9806Z" fill="url(#paint0_linear)"/>
<path d="M166.491 85.7128V108.86C166.491 126.806 151.276 141.91 133.927 141.91H81.8609C67.5987 141.91 55.7959 154.117 55.7959 168.399V218.036C55.7959 232.162 68.0809 240.472 81.8609 244.525C98.3608 249.376 114.184 250.253 133.925 244.525C147.05 240.724 159.99 233.078 159.99 218.036V198.169H107.924V191.548H186.053C201.204 191.548 206.849 180.979 212.118 165.119C217.56 148.79 217.328 133.087 212.118 112.141C208.374 97.0607 201.223 85.7128 186.053 85.7128H166.491ZM137.207 211.413C142.611 211.413 146.989 215.841 146.989 221.316C146.989 226.812 142.611 231.28 137.207 231.28C131.821 231.28 127.428 226.812 127.428 221.316C127.428 215.841 131.821 211.413 137.207 211.413Z" fill="url(#paint1_linear)"/>
<defs>
<linearGradient id="paint0_linear" x1="-0.000534668" y1="30.0007" x2="120.198" y2="132.427" gradientUnits="userSpaceOnUse">
<stop stop-color="#5A9FD4"/>
<stop offset="1" stop-color="#306998"/>
</linearGradient>
<linearGradient id="paint1_linear" x1="135.954" y1="219.646" x2="92.8306" y2="159.218" gradientUnits="userSpaceOnUse">
<stop stop-color="#FFD43B"/>
<stop offset="1" stop-color="#FFE873"/>
</linearGradient>
</defs>
</svg>
