<svg width="861" height="230" viewBox="0 0 861 230" fill="none" xmlns="http://www.w3.org/2000/svg">
<path d="M348.504 119.104C348.504 90.7933 340.432 76.2589 324.286 75.4618C317.873 75.1534 311.466 76.2062 305.489 78.5511C300.618 80.2949 297.341 82.0194 295.616 83.7613V151.338C305.943 157.817 315.116 160.831 323.112 160.358C340.034 159.238 348.504 145.499 348.504 119.104V119.104ZM368.42 120.278C368.42 134.661 365.047 146.6 358.264 156.093C350.701 166.838 340.222 172.371 326.827 172.674C316.726 172.995 306.323 169.832 295.616 163.199V224.614L278.296 218.437V82.1147C281.138 78.6269 284.795 75.6329 289.23 73.0939C299.539 67.0865 312.064 63.9973 326.808 63.8456L327.053 64.0925C340.526 63.9214 350.911 69.4545 358.208 80.6741C365.01 90.9624 368.42 104.151 368.42 120.278V120.278ZM474.272 160.584C474.272 179.875 472.34 193.234 468.475 200.662C464.591 208.091 457.199 214.022 446.285 218.437C437.435 221.923 427.866 223.819 417.595 224.141L414.733 213.227C425.173 211.804 432.528 210.383 436.791 208.962C445.186 206.119 450.945 201.763 454.112 195.924C456.651 191.169 457.901 182.092 457.901 168.656V164.145C446.057 169.529 433.646 172.2 420.665 172.2C412.138 172.2 404.614 169.529 398.132 164.147C390.857 158.292 387.218 150.863 387.218 141.862V69.7772L404.54 63.8476V136.403C404.54 144.154 407.04 150.124 412.045 154.312C417.045 158.5 423.527 160.508 431.466 160.358C439.406 160.185 447.914 157.115 456.954 151.11V66.4605H474.272V160.584ZM541.886 171.726C539.988 171.886 538.085 171.969 536.181 171.973C526.385 171.973 518.748 169.642 513.291 164.962C507.851 160.281 505.124 153.818 505.124 145.575V77.3554H493.261V66.4605H505.124V37.5259L522.425 31.3669V66.4605H541.886V77.3574H522.425V145.101C522.425 151.6 524.169 156.206 527.654 158.896C530.648 161.113 535.406 162.382 541.886 162.705V171.726ZM646.754 170.304H629.432V103.452C629.432 96.6471 627.842 90.7933 624.676 85.9038C621.02 80.3708 615.942 77.6023 609.423 77.6023C601.483 77.6023 591.552 81.7919 579.633 90.1673V170.304H562.313V10.5025L579.635 5.04529V77.8317C590.701 69.7772 602.789 65.7392 615.922 65.7392C625.094 65.7392 632.521 68.8304 638.208 74.9894C643.91 81.1465 646.754 88.8219 646.754 97.9924V170.304ZM738.811 116.374C738.811 105.497 736.744 96.5149 732.632 89.4091C727.745 80.7499 720.145 76.1831 709.874 75.7087C690.886 76.8072 681.412 90.4142 681.412 116.489C681.412 128.445 683.384 138.432 687.361 146.448C692.441 156.661 700.058 161.702 710.216 161.531C729.279 161.379 738.811 146.333 738.811 116.374V116.374ZM757.78 116.489C757.78 131.97 753.819 144.856 745.917 155.146C737.219 166.667 725.204 172.447 709.874 172.447C694.677 172.447 682.833 166.667 674.287 155.144C666.536 144.856 662.671 131.97 662.671 116.489C662.671 101.935 666.858 89.6929 675.234 79.7253C684.083 69.1512 695.719 63.8456 710.102 63.8456C724.484 63.8456 736.196 69.1531 745.215 79.7253C753.592 89.6929 757.78 101.935 757.78 116.489ZM857.074 170.304H839.756V99.6605C839.756 91.9111 837.423 85.8649 832.763 81.5081C828.101 77.1668 821.886 75.0633 814.136 75.2344C805.913 75.386 798.085 78.0767 790.657 83.2889V170.304H773.337V81.1465C783.304 73.889 792.477 69.1512 800.852 66.9349C808.753 64.8702 815.727 63.8456 821.734 63.8456C825.846 63.8456 829.713 64.2442 833.35 65.0393C840.155 66.6141 845.686 69.5303 849.951 73.8132C854.706 78.5511 857.074 84.2357 857.074 90.8866V170.304Z" fill="black" stroke="black" stroke-width="7"/>
<path d="M107.232 11.1421C98.3216 11.1829 89.8121 11.9431 82.3233 13.269C60.2632 17.165 56.2583 25.3226 56.2583 40.3644V60.2315H108.386V66.8532H36.6964C21.5458 66.8532 8.28093 75.9596 4.13214 93.2818C-0.654316 113.137 -0.866227 125.527 4.13214 146.259C7.83766 161.692 16.6854 172.688 31.8361 172.688H49.759V148.872C49.759 131.667 64.6453 116.489 82.3233 116.489H134.387C148.883 116.489 160.452 104.556 160.452 90.0001V40.3664C160.452 26.2383 148.535 15.6253 134.389 13.269C125.434 11.7779 116.143 11.1013 107.232 11.1421V11.1421ZM79.0416 27.121C84.4268 27.121 88.8225 31.5886 88.8225 37.0847C88.8225 42.5593 84.4268 46.9861 79.0435 46.9861C73.6388 46.9861 69.2606 42.5593 69.2606 37.0847C69.2606 31.5886 73.6388 27.121 79.0416 27.121V27.121Z" fill="url(#paint0_linear)"/>
<path d="M166.953 66.8531V90C166.953 107.946 151.739 123.05 134.389 123.05H82.3233C68.0611 123.05 56.2583 135.258 56.2583 149.539V199.177C56.2583 213.303 68.5433 221.612 82.3233 225.666C98.8232 230.516 114.646 231.393 134.387 225.666C147.512 221.865 160.452 214.219 160.452 199.177V179.31H108.386V172.688H186.515C201.666 172.688 207.312 162.12 212.58 146.259C218.022 129.931 217.791 114.228 212.58 93.2817C208.836 78.2011 201.685 66.8531 186.515 66.8531H166.953ZM137.669 192.553C143.074 192.553 147.452 196.982 147.452 202.457C147.452 207.953 143.074 212.42 137.669 212.42C132.284 212.42 127.89 207.953 127.89 202.457C127.89 196.982 132.284 192.553 137.669 192.553Z" fill="url(#paint1_linear)"/>
<defs>
<linearGradient id="paint0_linear" x1="0.461868" y1="11.1411" x2="120.661" y2="113.568" gradientUnits="userSpaceOnUse">
<stop stop-color="#5A9FD4"/>
<stop offset="1" stop-color="#306998"/>
</linearGradient>
<linearGradient id="paint1_linear" x1="136.416" y1="200.787" x2="93.293" y2="140.359" gradientUnits="userSpaceOnUse">
<stop stop-color="#FFD43B"/>
<stop offset="1" stop-color="#FFE873"/>
</linearGradient>
</defs>
</svg>
