<svg width="500" height="300" viewBox="0 0 500 300" fill="none" xmlns="http://www.w3.org/2000/svg">
<rect width="500" height="300" rx="10" fill="white"/>
<path d="M219.266 146.598C219.266 134.039 215.731 127.592 208.66 127.238C205.851 127.101 203.045 127.568 200.427 128.608C198.294 129.382 196.858 130.147 196.103 130.92V160.898C200.626 163.772 204.643 165.109 208.145 164.899C215.556 164.403 219.266 158.308 219.266 146.598V146.598ZM227.988 147.119C227.988 153.5 226.511 158.796 223.54 163.007C220.228 167.774 215.639 170.228 209.772 170.363C205.348 170.505 200.792 169.102 196.103 166.159V193.404L188.518 190.664V130.189C189.762 128.642 191.364 127.314 193.306 126.187C197.821 123.523 203.306 122.152 209.764 122.085L209.871 122.194C215.772 122.118 220.32 124.573 223.516 129.55C226.495 134.114 227.988 139.965 227.988 147.119V147.119ZM274.348 164.999C274.348 173.558 273.501 179.483 271.809 182.779C270.107 186.074 266.87 188.706 262.09 190.664C258.214 192.211 254.023 193.052 249.525 193.195L248.272 188.353C252.844 187.722 256.065 187.091 257.932 186.461C261.609 185.2 264.131 183.267 265.518 180.677C266.63 178.568 267.177 174.541 267.177 168.58V166.579C261.99 168.968 256.555 170.153 250.87 170.153C247.135 170.153 243.84 168.968 241.001 166.58C237.815 163.983 236.221 160.687 236.221 156.694V124.716L243.808 122.086V154.272C243.808 157.711 244.903 160.359 247.094 162.217C249.284 164.075 252.123 164.966 255.6 164.899C259.078 164.823 262.804 163.461 266.763 160.797V123.245H274.348V164.999ZM303.959 169.942C303.129 170.013 302.295 170.05 301.461 170.052C297.171 170.052 293.826 169.018 291.436 166.942C289.054 164.865 287.859 161.998 287.859 158.341V128.078H282.664V123.245H287.859V110.409L295.436 107.677V123.245H303.959V128.079H295.436V158.131C295.436 161.014 296.2 163.057 297.727 164.251C299.038 165.234 301.122 165.797 303.959 165.94V169.942ZM349.888 169.312H342.301V139.655C342.301 136.636 341.605 134.039 340.219 131.87C338.617 129.416 336.393 128.188 333.538 128.188C330.061 128.188 325.712 130.046 320.491 133.762V169.312H312.906V98.4209L320.492 96V128.289C325.339 124.716 330.633 122.925 336.385 122.925C340.402 122.925 343.654 124.296 346.145 127.028C348.642 129.76 349.888 133.165 349.888 137.233V169.312ZM390.205 145.387C390.205 140.562 389.3 136.577 387.499 133.425C385.359 129.584 382.03 127.558 377.532 127.347C369.216 127.835 365.067 133.871 365.067 145.438C365.067 150.742 365.93 155.173 367.672 158.729C369.897 163.259 373.233 165.495 377.682 165.419C386.03 165.352 390.205 158.678 390.205 145.387V145.387ZM398.513 145.438C398.513 152.306 396.778 158.022 393.317 162.587C389.508 167.698 384.246 170.262 377.532 170.262C370.876 170.262 365.689 167.698 361.946 162.586C358.551 158.022 356.859 152.306 356.859 145.438C356.859 138.982 358.693 133.551 362.361 129.129C366.237 124.438 371.332 122.085 377.632 122.085C383.931 122.085 389.06 124.439 393.01 129.129C396.679 133.551 398.513 138.982 398.513 145.438ZM442 169.312H434.415V137.973C434.415 134.535 433.393 131.853 431.352 129.92C429.311 127.994 426.588 127.061 423.195 127.137C419.593 127.204 416.165 128.398 412.912 130.71V169.312H405.326V129.76C409.691 126.54 413.709 124.438 417.377 123.455C420.837 122.539 423.891 122.085 426.522 122.085C428.323 122.085 430.016 122.262 431.61 122.614C434.59 123.313 437.012 124.607 438.88 126.507C440.963 128.608 442 131.13 442 134.081V169.312Z" fill="black" stroke="black" stroke-width="3"/>
<path d="M103.761 107.071C99.8585 107.089 96.1316 107.426 92.8518 108.015C83.1904 109.743 81.4364 113.362 81.4364 120.035V128.848H104.266V131.785H72.8691C66.2337 131.785 60.4242 135.825 58.6072 143.51C56.5109 152.318 56.4181 157.814 58.6072 167.011C60.2301 173.858 64.105 178.736 70.7404 178.736H78.59V168.171C78.59 160.538 85.1096 153.805 92.8518 153.805H115.654C122.002 153.805 127.069 148.511 127.069 142.054V120.035C127.069 113.768 121.85 109.06 115.655 108.015C111.733 107.353 107.664 107.053 103.761 107.071V107.071ZM91.4146 114.16C93.7731 114.16 95.6983 116.141 95.6983 118.58C95.6983 121.008 93.7731 122.972 91.4154 122.972C89.0484 122.972 87.1309 121.008 87.1309 118.58C87.1309 116.141 89.0484 114.16 91.4146 114.16V114.16Z" fill="url(#paint0_linear)"/>
<path d="M129.917 131.785V142.054C129.917 150.015 123.253 156.715 115.655 156.715H92.852C86.6057 156.715 81.4365 162.131 81.4365 168.466V190.486C81.4365 196.753 86.8169 200.439 92.852 202.237C100.078 204.389 107.008 204.778 115.654 202.237C121.402 200.551 127.069 197.159 127.069 190.486V181.673H104.267V178.736H138.484C145.119 178.736 147.592 174.047 149.899 167.011C152.283 159.768 152.181 152.802 149.899 143.51C148.26 136.82 145.128 131.785 138.484 131.785H129.917ZM117.091 187.548C119.458 187.548 121.376 189.513 121.376 191.941C121.376 194.38 119.458 196.361 117.091 196.361C114.733 196.361 112.808 194.38 112.808 191.941C112.808 189.513 114.733 187.548 117.091 187.548Z" fill="url(#paint1_linear)"/>
<defs>
<linearGradient id="paint0_linear" x1="56.9998" y1="107.071" x2="110.209" y2="151.835" gradientUnits="userSpaceOnUse">
<stop stop-color="#5A9FD4"/>
<stop offset="1" stop-color="#306998"/>
</linearGradient>
<linearGradient id="paint1_linear" x1="116.542" y1="191.201" x2="97.3338" y2="164.627" gradientUnits="userSpaceOnUse">
<stop stop-color="#FFD43B"/>
<stop offset="1" stop-color="#FFE873"/>
</linearGradient>
</defs>
</svg>
