<svg width="966" height="213" viewBox="0 0 966 213" fill="none" xmlns="http://www.w3.org/2000/svg">
<path d="M256.292 120.866H215.057V103.801H256.292V120.866ZM334.002 140.349H380.657V158H312.029V51.3594H334.002V140.349ZM437.859 158C436.883 156.096 436.175 153.728 435.735 150.896C430.608 156.608 423.943 159.465 415.74 159.465C407.977 159.465 401.531 157.219 396.404 152.727C391.326 148.234 388.787 142.57 388.787 135.734C388.787 127.336 391.888 120.891 398.089 116.398C404.339 111.906 413.348 109.636 425.115 109.587H434.856V105.046C434.856 101.384 433.904 98.4541 432 96.2568C430.145 94.0596 427.19 92.9609 423.138 92.9609C419.573 92.9609 416.766 93.8154 414.715 95.5244C412.713 97.2334 411.712 99.5771 411.712 102.556H390.545C390.545 97.9658 391.961 93.7178 394.793 89.8115C397.625 85.9053 401.629 82.8535 406.805 80.6562C411.98 78.4102 417.791 77.2871 424.236 77.2871C434.002 77.2871 441.741 79.7529 447.454 84.6846C453.216 89.5674 456.097 96.4521 456.097 105.339V139.689C456.146 147.209 457.195 152.897 459.246 156.755V158H437.859ZM420.354 143.278C423.479 143.278 426.36 142.595 428.997 141.228C431.634 139.812 433.587 137.932 434.856 135.588V121.965H426.946C416.351 121.965 410.711 125.627 410.027 132.951L409.954 134.196C409.954 136.833 410.882 139.006 412.737 140.715C414.593 142.424 417.132 143.278 420.354 143.278ZM491.839 78.752L492.498 87.9072C498.162 80.8271 505.755 77.2871 515.276 77.2871C523.675 77.2871 529.925 79.7529 534.026 84.6846C538.128 89.6162 540.228 96.9893 540.325 106.804V158H519.158V107.316C519.158 102.824 518.182 99.5771 516.229 97.5752C514.275 95.5244 511.028 94.499 506.487 94.499C500.53 94.499 496.062 97.0381 493.084 102.116V158H471.917V78.752H491.839ZM553.362 117.79C553.362 105.632 556.243 95.8418 562.005 88.4199C567.815 80.998 575.628 77.2871 585.442 77.2871C594.134 77.2871 600.896 80.2656 605.73 86.2227L606.609 78.752H625.799V155.363C625.799 162.297 624.212 168.327 621.038 173.454C617.913 178.581 613.494 182.487 607.781 185.173C602.068 187.858 595.379 189.201 587.713 189.201C581.902 189.201 576.238 188.029 570.721 185.686C565.203 183.391 561.028 180.412 558.196 176.75L567.571 163.859C572.845 169.768 579.241 172.722 586.761 172.722C592.376 172.722 596.746 171.208 599.871 168.181C602.996 165.202 604.559 160.954 604.559 155.437V151.188C599.676 156.706 593.255 159.465 585.296 159.465C575.774 159.465 568.06 155.754 562.151 148.332C556.292 140.861 553.362 130.974 553.362 118.669V117.79ZM574.529 119.328C574.529 126.506 575.97 132.146 578.851 136.247C581.731 140.3 585.687 142.326 590.716 142.326C597.161 142.326 601.775 139.909 604.559 135.075V101.75C601.727 96.916 597.161 94.499 590.862 94.499C585.784 94.499 581.78 96.5742 578.851 100.725C575.97 104.875 574.529 111.076 574.529 119.328ZM689.593 149.943C684.368 156.291 677.142 159.465 667.913 159.465C659.417 159.465 652.923 157.023 648.431 152.141C643.987 147.258 641.717 140.104 641.619 130.681V78.752H662.786V129.948C662.786 138.2 666.546 142.326 674.065 142.326C681.243 142.326 686.175 139.836 688.86 134.855V78.752H710.101V158H690.179L689.593 149.943ZM771.99 158C771.014 156.096 770.306 153.728 769.866 150.896C764.739 156.608 758.074 159.465 749.871 159.465C742.107 159.465 735.662 157.219 730.535 152.727C725.457 148.234 722.918 142.57 722.918 135.734C722.918 127.336 726.019 120.891 732.22 116.398C738.47 111.906 747.479 109.636 759.246 109.587H768.987V105.046C768.987 101.384 768.035 98.4541 766.131 96.2568C764.275 94.0596 761.321 92.9609 757.269 92.9609C753.704 92.9609 750.896 93.8154 748.846 95.5244C746.844 97.2334 745.843 99.5771 745.843 102.556H724.676C724.676 97.9658 726.092 93.7178 728.924 89.8115C731.756 85.9053 735.76 82.8535 740.936 80.6562C746.111 78.4102 751.922 77.2871 758.367 77.2871C768.133 77.2871 775.872 79.7529 781.585 84.6846C787.347 89.5674 790.228 96.4521 790.228 105.339V139.689C790.276 147.209 791.326 152.897 793.377 156.755V158H771.99ZM754.485 143.278C757.61 143.278 760.491 142.595 763.128 141.228C765.765 139.812 767.718 137.932 768.987 135.588V121.965H761.077C750.481 121.965 744.842 125.627 744.158 132.951L744.085 134.196C744.085 136.833 745.013 139.006 746.868 140.715C748.724 142.424 751.263 143.278 754.485 143.278ZM803.411 117.79C803.411 105.632 806.292 95.8418 812.054 88.4199C817.864 80.998 825.677 77.2871 835.491 77.2871C844.183 77.2871 850.945 80.2656 855.779 86.2227L856.658 78.752H875.848V155.363C875.848 162.297 874.261 168.327 871.087 173.454C867.962 178.581 863.543 182.487 857.83 185.173C852.117 187.858 845.428 189.201 837.762 189.201C831.951 189.201 826.287 188.029 820.77 185.686C815.252 183.391 811.077 180.412 808.245 176.75L817.62 163.859C822.894 169.768 829.29 172.722 836.81 172.722C842.425 172.722 846.795 171.208 849.92 168.181C853.045 165.202 854.607 160.954 854.607 155.437V151.188C849.725 156.706 843.304 159.465 835.345 159.465C825.823 159.465 818.108 155.754 812.2 148.332C806.341 140.861 803.411 130.974 803.411 118.669V117.79ZM824.578 119.328C824.578 126.506 826.019 132.146 828.899 136.247C831.78 140.3 835.735 142.326 840.765 142.326C847.21 142.326 851.824 139.909 854.607 135.075V101.75C851.775 96.916 847.21 94.499 840.911 94.499C835.833 94.499 831.829 96.5742 828.899 100.725C826.019 104.875 824.578 111.076 824.578 119.328ZM928.655 159.465C917.034 159.465 907.562 155.9 900.237 148.771C892.962 141.643 889.324 132.146 889.324 120.28V118.229C889.324 110.271 890.862 103.166 893.938 96.916C897.015 90.6172 901.36 85.7832 906.976 82.4141C912.64 78.9961 919.085 77.2871 926.312 77.2871C937.151 77.2871 945.672 80.7051 951.873 87.541C958.123 94.377 961.248 104.069 961.248 116.618V125.261H910.784C911.468 130.437 913.519 134.587 916.937 137.712C920.403 140.837 924.773 142.399 930.047 142.399C938.201 142.399 944.573 139.445 949.163 133.537L959.563 145.183C956.39 149.675 952.093 153.19 946.673 155.729C941.253 158.22 935.247 159.465 928.655 159.465ZM926.238 94.4258C922.039 94.4258 918.621 95.8418 915.984 98.6738C913.396 101.506 911.736 105.559 911.004 110.832H940.447V109.147C940.35 104.46 939.08 100.847 936.639 98.3076C934.197 95.7197 930.73 94.4258 926.238 94.4258Z" fill="white"/>
<path d="M256.292 120.866V121.366H256.792V120.866H256.292ZM215.057 120.866H214.557V121.366H215.057V120.866ZM215.057 103.801V103.301H214.557V103.801H215.057ZM256.292 103.801H256.792V103.301H256.292V103.801ZM256.292 120.366H215.057V121.366H256.292V120.366ZM215.557 120.866V103.801H214.557V120.866H215.557ZM215.057 104.301H256.292V103.301H215.057V104.301ZM255.792 103.801V120.866H256.792V103.801H255.792ZM334.002 140.349H333.502V140.849H334.002V140.349ZM380.657 140.349H381.157V139.849H380.657V140.349ZM380.657 158V158.5H381.157V158H380.657ZM312.029 158H311.529V158.5H312.029V158ZM312.029 51.3594V50.8594H311.529V51.3594H312.029ZM334.002 51.3594H334.502V50.8594H334.002V51.3594ZM334.002 140.849H380.657V139.849H334.002V140.849ZM380.157 140.349V158H381.157V140.349H380.157ZM380.657 157.5H312.029V158.5H380.657V157.5ZM312.529 158V51.3594H311.529V158H312.529ZM312.029 51.8594H334.002V50.8594H312.029V51.8594ZM333.502 51.3594V140.349H334.502V51.3594H333.502ZM437.859 158L437.414 158.228L437.554 158.5H437.859V158ZM435.735 150.896L436.229 150.819L436.068 149.777L435.363 150.562L435.735 150.896ZM396.404 152.727L396.073 153.101L396.075 153.103L396.404 152.727ZM398.089 116.398L397.797 115.992L397.796 115.994L398.089 116.398ZM425.115 109.587V109.087L425.113 109.087L425.115 109.587ZM434.856 109.587V110.087H435.356V109.587H434.856ZM432 96.2568L431.618 96.5795L431.622 96.5843L432 96.2568ZM414.715 95.5244L414.395 95.1403L414.39 95.1441L414.715 95.5244ZM411.712 102.556V103.056H412.212V102.556H411.712ZM390.545 102.556H390.045V103.056H390.545V102.556ZM406.805 80.6562L407 81.1165L407.004 81.1149L406.805 80.6562ZM447.454 84.6846L447.127 85.0631L447.131 85.066L447.454 84.6846ZM456.097 139.689H455.597L455.597 139.693L456.097 139.689ZM459.246 156.755H459.746V156.63L459.688 156.52L459.246 156.755ZM459.246 158V158.5H459.746V158H459.246ZM428.997 141.228L429.227 141.671L429.234 141.668L428.997 141.228ZM434.856 135.588L435.296 135.826L435.356 135.715V135.588H434.856ZM434.856 121.965H435.356V121.465H434.856V121.965ZM410.027 132.951L409.53 132.905L409.529 132.913L409.528 132.922L410.027 132.951ZM409.954 134.196L409.455 134.167L409.454 134.182V134.196H409.954ZM438.304 157.772C437.359 155.928 436.663 153.615 436.229 150.819L435.241 150.972C435.686 153.84 436.407 156.263 437.414 158.228L438.304 157.772ZM435.363 150.562C430.338 156.161 423.812 158.965 415.74 158.965V159.965C424.074 159.965 430.879 157.056 436.107 151.229L435.363 150.562ZM415.74 158.965C408.08 158.965 401.757 156.752 396.734 152.35L396.075 153.103C401.306 157.686 407.873 159.965 415.74 159.965V158.965ZM396.736 152.352C391.766 147.956 389.287 142.428 389.287 135.734H388.287C388.287 142.712 390.887 148.513 396.073 153.101L396.736 152.352ZM389.287 135.734C389.287 127.478 392.325 121.191 398.382 116.803L397.796 115.994C391.451 120.59 388.287 127.194 388.287 135.734H389.287ZM398.381 116.804C404.512 112.397 413.402 110.136 425.117 110.087L425.113 109.087C413.293 109.136 404.165 111.415 397.797 115.992L398.381 116.804ZM425.115 110.087H434.856V109.087H425.115V110.087ZM435.356 109.587V105.046H434.356V109.587H435.356ZM435.356 105.046C435.356 101.296 434.38 98.2392 432.378 95.9294L431.622 96.5843C433.429 98.669 434.356 101.472 434.356 105.046H435.356ZM432.382 95.9342C430.397 93.5841 427.275 92.4609 423.138 92.4609V93.4609C427.106 93.4609 429.892 94.5351 431.618 96.5794L432.382 95.9342ZM423.138 92.4609C419.496 92.4609 416.562 93.3346 414.395 95.1403L415.035 95.9085C416.97 94.2963 419.651 93.4609 423.138 93.4609V92.4609ZM414.39 95.1441C412.262 96.9613 411.212 99.4524 411.212 102.556H412.212C412.212 99.7019 413.164 97.5055 415.039 95.9047L414.39 95.1441ZM411.712 102.056H390.545V103.056H411.712V102.056ZM391.045 102.556C391.045 98.0768 392.424 93.9306 395.198 90.105L394.388 89.518C391.498 93.505 390.045 97.8548 390.045 102.556H391.045ZM395.198 90.105C397.968 86.2838 401.894 83.2842 407 81.1165L406.609 80.196C401.364 82.4228 397.282 85.5268 394.388 89.518L395.198 90.105ZM407.004 81.1149C412.108 78.8997 417.85 77.7871 424.236 77.7871V76.7871C417.732 76.7871 411.853 77.9206 406.606 80.1976L407.004 81.1149ZM424.236 77.7871C433.918 77.7871 441.529 80.2305 447.127 85.0631L447.781 84.3061C441.953 79.2753 434.086 76.7871 424.236 76.7871V77.7871ZM447.131 85.066C452.76 89.8367 455.597 96.5704 455.597 105.339H456.597C456.597 96.3339 453.671 89.2981 447.777 84.3031L447.131 85.066ZM455.597 105.339V139.689H456.597V105.339H455.597ZM455.597 139.693C455.646 147.242 456.698 153.027 458.805 156.99L459.688 156.52C457.693 152.768 456.645 147.176 456.597 139.686L455.597 139.693ZM458.746 156.755V158H459.746V156.755H458.746ZM459.246 157.5H437.859V158.5H459.246V157.5ZM420.354 143.778C423.555 143.778 426.516 143.077 429.227 141.671L428.767 140.784C426.205 142.112 423.404 142.778 420.354 142.778V143.778ZM429.234 141.668C431.945 140.212 433.975 138.266 435.296 135.826L434.417 135.35C433.199 137.597 431.322 139.411 428.761 140.787L429.234 141.668ZM435.356 135.588V121.965H434.356V135.588H435.356ZM434.856 121.465H426.946V122.465H434.856V121.465ZM426.946 121.465C421.603 121.465 417.433 122.386 414.497 124.292C411.536 126.215 409.884 129.107 409.53 132.905L410.525 132.998C410.854 129.471 412.364 126.87 415.042 125.131C417.747 123.375 421.694 122.465 426.946 122.465V121.465ZM409.528 132.922L409.455 134.167L410.453 134.226L410.526 132.981L409.528 132.922ZM409.454 134.196C409.454 136.966 410.435 139.274 412.399 141.083L413.076 140.347C411.328 138.737 410.454 136.7 410.454 134.196H409.454ZM412.399 141.083C414.37 142.898 417.042 143.778 420.354 143.778V142.778C417.221 142.778 414.816 141.949 413.076 140.347L412.399 141.083ZM491.839 78.752L492.338 78.716L492.304 78.252H491.839V78.752ZM492.498 87.9072L491.999 87.9431L492.091 89.2164L492.888 88.2196L492.498 87.9072ZM540.325 106.804H540.825L540.825 106.799L540.325 106.804ZM540.325 158V158.5H540.825V158H540.325ZM519.158 158H518.658V158.5H519.158V158ZM516.229 97.5752L515.866 97.9201L515.871 97.9244L516.229 97.5752ZM493.084 102.116L492.653 101.863L492.584 101.98V102.116H493.084ZM493.084 158V158.5H493.584V158H493.084ZM471.917 158H471.417V158.5H471.917V158ZM471.917 78.752V78.252H471.417V78.752H471.917ZM491.34 78.7879L491.999 87.9431L492.997 87.8713L492.338 78.716L491.34 78.7879ZM492.888 88.2196C498.452 81.2648 505.898 77.7871 515.276 77.7871V76.7871C505.612 76.7871 497.872 80.3895 492.108 87.5949L492.888 88.2196ZM515.276 77.7871C523.576 77.7871 529.663 80.22 533.642 85.0043L534.411 84.3649C530.187 79.2859 523.774 76.7871 515.276 76.7871V77.7871ZM533.642 85.0043C537.64 89.8112 539.728 97.0512 539.825 106.809L540.825 106.799C540.727 96.9273 538.616 89.4212 534.411 84.3649L533.642 85.0043ZM539.825 106.804V158H540.825V106.804H539.825ZM540.325 157.5H519.158V158.5H540.325V157.5ZM519.658 158V107.316H518.658V158H519.658ZM519.658 107.316C519.658 102.769 518.673 99.3643 516.586 97.226L515.871 97.9244C517.691 99.79 518.658 102.879 518.658 107.316H519.658ZM516.591 97.2304C514.499 95.0346 511.085 93.999 506.487 93.999V94.999C510.971 94.999 514.051 96.0143 515.866 97.92L516.591 97.2304ZM506.487 93.999C500.355 93.999 495.722 96.6299 492.653 101.863L493.515 102.369C496.403 97.4463 500.705 94.999 506.487 94.999V93.999ZM492.584 102.116V158H493.584V102.116H492.584ZM493.084 157.5H471.917V158.5H493.084V157.5ZM472.417 158V78.752H471.417V158H472.417ZM471.917 79.252H491.839V78.252H471.917V79.252ZM562.005 88.4199L561.611 88.1117L561.61 88.1133L562.005 88.4199ZM605.73 86.2227L605.342 86.5377L606.089 87.4575L606.227 86.2811L605.73 86.2227ZM606.609 78.752V78.252H606.165L606.113 78.6935L606.609 78.752ZM625.799 78.752H626.299V78.252H625.799V78.752ZM621.038 173.454L620.613 173.191L620.611 173.194L621.038 173.454ZM570.721 185.686L570.916 185.225L570.913 185.224L570.721 185.686ZM558.196 176.75L557.792 176.456L557.571 176.759L557.801 177.056L558.196 176.75ZM567.571 163.859L567.944 163.526L567.532 163.064L567.167 163.565L567.571 163.859ZM599.871 168.181L599.526 167.819L599.523 167.822L599.871 168.181ZM604.559 151.188H605.059V149.869L604.184 150.857L604.559 151.188ZM562.151 148.332L561.758 148.641L561.76 148.643L562.151 148.332ZM578.851 136.247L578.441 136.534L578.443 136.537L578.851 136.247ZM604.559 135.075L604.992 135.325L605.059 135.209V135.075H604.559ZM604.559 101.75H605.059V101.614L604.99 101.497L604.559 101.75ZM578.851 100.725L578.442 100.436L578.44 100.439L578.851 100.725ZM553.862 117.79C553.862 105.71 556.724 96.0378 562.4 88.7265L561.61 88.1133C555.762 95.6457 552.862 105.554 552.862 117.79H553.862ZM562.399 88.7281C568.11 81.433 575.774 77.7871 585.442 77.7871V76.7871C575.482 76.7871 567.521 80.5631 561.611 88.1117L562.399 88.7281ZM585.442 77.7871C594.006 77.7871 600.617 80.7142 605.342 86.5377L606.119 85.9076C601.176 79.8171 594.262 76.7871 585.442 76.7871V77.7871ZM606.227 86.2811L607.106 78.8104L606.113 78.6935L605.234 86.1642L606.227 86.2811ZM606.609 79.252H625.799V78.252H606.609V79.252ZM625.299 78.752V155.363H626.299V78.752H625.299ZM625.299 155.363C625.299 162.218 623.731 168.154 620.613 173.191L621.463 173.717C624.693 168.5 626.299 162.376 626.299 155.363H625.299ZM620.611 173.194C617.54 178.233 613.198 182.074 607.569 184.72L607.994 185.625C613.791 182.9 618.286 178.929 621.465 173.714L620.611 173.194ZM607.569 184.72C601.935 187.369 595.321 188.701 587.713 188.701V189.701C595.437 189.701 602.202 188.348 607.994 185.625L607.569 184.72ZM587.713 188.701C581.972 188.701 576.374 187.544 570.916 185.225L570.525 186.146C576.103 188.515 581.833 189.701 587.713 189.701V188.701ZM570.913 185.224C565.453 182.953 561.357 180.02 558.592 176.444L557.801 177.056C560.699 180.804 564.954 183.828 570.529 186.147L570.913 185.224ZM558.601 177.044L567.976 164.153L567.167 163.565L557.792 176.456L558.601 177.044ZM567.198 164.192C572.561 170.2 579.09 173.222 586.761 173.222V172.222C579.392 172.222 573.129 169.335 567.944 163.526L567.198 164.192ZM586.761 173.222C592.467 173.222 596.976 171.682 600.219 168.54L599.523 167.822C596.516 170.734 592.285 172.222 586.761 172.222V173.222ZM600.216 168.543C603.466 165.445 605.059 161.051 605.059 155.437H604.059C604.059 160.858 602.526 164.959 599.526 167.819L600.216 168.543ZM605.059 155.437V151.188H604.059V155.437H605.059ZM604.184 150.857C599.405 156.258 593.125 158.965 585.296 158.965V159.965C593.385 159.965 599.947 157.154 604.933 151.52L604.184 150.857ZM585.296 158.965C575.926 158.965 568.355 155.323 562.543 148.021L561.76 148.643C567.764 156.185 575.623 159.965 585.296 159.965V158.965ZM562.545 148.023C556.773 140.664 553.862 130.895 553.862 118.669H552.862C552.862 131.052 555.811 141.059 561.758 148.641L562.545 148.023ZM553.862 118.669V117.79H552.862V118.669H553.862ZM574.029 119.328C574.029 126.566 575.481 132.319 578.441 136.534L579.26 135.96C576.459 131.972 575.029 126.446 575.029 119.328H574.029ZM578.443 136.537C581.419 140.723 585.527 142.826 590.716 142.826V141.826C585.846 141.826 582.044 139.876 579.258 135.957L578.443 136.537ZM590.716 142.826C597.307 142.826 602.104 140.34 604.992 135.325L604.125 134.826C601.447 139.478 597.016 141.826 590.716 141.826V142.826ZM605.059 135.075V101.75H604.059V135.075H605.059ZM604.99 101.497C602.056 96.4885 597.312 93.999 590.862 93.999V94.999C597.01 94.999 601.398 97.3435 604.127 102.003L604.99 101.497ZM590.862 93.999C585.622 93.999 581.465 96.1532 578.442 100.436L579.259 101.013C582.095 96.9952 585.947 94.999 590.862 94.999V93.999ZM578.44 100.439C575.475 104.712 574.029 111.033 574.029 119.328H575.029C575.029 111.119 576.465 105.038 579.261 101.01L578.44 100.439ZM689.593 149.943L690.091 149.907L690.001 148.661L689.207 149.626L689.593 149.943ZM648.431 152.141L648.061 152.477L648.063 152.479L648.431 152.141ZM641.619 130.681H641.119L641.119 130.686L641.619 130.681ZM641.619 78.752V78.252H641.119V78.752H641.619ZM662.786 78.752H663.286V78.252H662.786V78.752ZM688.86 134.855L689.3 135.093L689.36 134.982V134.855H688.86ZM688.86 78.752V78.252H688.36V78.752H688.86ZM710.101 78.752H710.601V78.252H710.101V78.752ZM710.101 158V158.5H710.601V158H710.101ZM690.179 158L689.68 158.036L689.714 158.5H690.179V158ZM689.207 149.626C684.089 155.843 677.013 158.965 667.913 158.965V159.965C677.27 159.965 684.647 156.739 689.979 150.261L689.207 149.626ZM667.913 158.965C659.515 158.965 653.171 156.555 648.799 151.802L648.063 152.479C652.674 157.492 659.319 159.965 667.913 159.965V158.965ZM648.8 151.804C644.469 147.044 642.216 140.029 642.119 130.675L641.119 130.686C641.218 140.18 643.506 147.471 648.061 152.477L648.8 151.804ZM642.119 130.681V78.752H641.119V130.681H642.119ZM641.619 79.252H662.786V78.252H641.619V79.252ZM662.286 78.752V129.948H663.286V78.752H662.286ZM662.286 129.948C662.286 134.14 663.24 137.378 665.236 139.568C667.241 141.768 670.216 142.826 674.065 142.826V141.826C670.395 141.826 667.731 140.821 665.976 138.895C664.212 136.96 663.286 134.008 663.286 129.948H662.286ZM674.065 142.826C681.369 142.826 686.503 140.28 689.3 135.093L688.42 134.618C685.846 139.392 681.117 141.826 674.065 141.826V142.826ZM689.36 134.855V78.752H688.36V134.855H689.36ZM688.86 79.252H710.101V78.252H688.86V79.252ZM709.601 78.752V158H710.601V78.752H709.601ZM710.101 157.5H690.179V158.5H710.101V157.5ZM690.677 157.964L690.091 149.907L689.094 149.98L689.68 158.036L690.677 157.964ZM771.99 158L771.545 158.228L771.685 158.5H771.99V158ZM769.866 150.896L770.36 150.819L770.199 149.777L769.494 150.562L769.866 150.896ZM730.535 152.727L730.204 153.101L730.206 153.103L730.535 152.727ZM732.22 116.398L731.928 115.992L731.926 115.994L732.22 116.398ZM759.246 109.587V109.087L759.244 109.087L759.246 109.587ZM768.987 109.587V110.087H769.487V109.587H768.987ZM766.131 96.2568L765.749 96.5795L765.753 96.5843L766.131 96.2568ZM748.846 95.5244L748.526 95.1403L748.521 95.1441L748.846 95.5244ZM745.843 102.556V103.056H746.343V102.556H745.843ZM724.676 102.556H724.176V103.056H724.676V102.556ZM740.936 80.6562L741.131 81.1165L741.135 81.1149L740.936 80.6562ZM781.585 84.6846L781.258 85.0631L781.262 85.066L781.585 84.6846ZM790.228 139.689H789.728V139.693L790.228 139.689ZM793.377 156.755H793.877V156.63L793.818 156.52L793.377 156.755ZM793.377 158V158.5H793.877V158H793.377ZM763.128 141.228L763.358 141.671L763.365 141.668L763.128 141.228ZM768.987 135.588L769.427 135.826L769.487 135.715V135.588H768.987ZM768.987 121.965H769.487V121.465H768.987V121.965ZM744.158 132.951L743.66 132.905L743.66 132.913L743.659 132.922L744.158 132.951ZM744.085 134.196L743.586 134.167L743.585 134.182V134.196H744.085ZM772.435 157.772C771.49 155.928 770.794 153.615 770.36 150.819L769.372 150.972C769.817 153.84 770.538 156.263 771.545 158.228L772.435 157.772ZM769.494 150.562C764.469 156.161 757.943 158.965 749.871 158.965V159.965C758.205 159.965 765.009 157.056 770.238 151.229L769.494 150.562ZM749.871 158.965C742.211 158.965 735.888 156.752 730.865 152.35L730.206 153.103C735.436 157.686 742.004 159.965 749.871 159.965V158.965ZM730.866 152.352C725.897 147.956 723.418 142.428 723.418 135.734H722.418C722.418 142.712 725.017 148.513 730.204 153.101L730.866 152.352ZM723.418 135.734C723.418 127.478 726.456 121.191 732.513 116.803L731.926 115.994C725.581 120.59 722.418 127.194 722.418 135.734H723.418ZM732.512 116.804C738.643 112.397 747.533 110.136 759.248 110.087L759.244 109.087C747.424 109.136 738.296 111.415 731.928 115.992L732.512 116.804ZM759.246 110.087H768.987V109.087H759.246V110.087ZM769.487 109.587V105.046H768.487V109.587H769.487ZM769.487 105.046C769.487 101.296 768.511 98.2392 766.509 95.9294L765.753 96.5843C767.56 98.669 768.487 101.472 768.487 105.046H769.487ZM766.513 95.9342C764.528 93.5841 761.406 92.4609 757.269 92.4609V93.4609C761.237 93.4609 764.023 94.5351 765.749 96.5794L766.513 95.9342ZM757.269 92.4609C753.627 92.4609 750.693 93.3346 748.526 95.1403L749.166 95.9085C751.1 94.2963 753.782 93.4609 757.269 93.4609V92.4609ZM748.521 95.1441C746.392 96.9613 745.343 99.4524 745.343 102.556H746.343C746.343 99.7019 747.295 97.5055 749.17 95.9047L748.521 95.1441ZM745.843 102.056H724.676V103.056H745.843V102.056ZM725.176 102.556C725.176 98.0768 726.555 93.9306 729.329 90.105L728.519 89.518C725.628 93.505 724.176 97.8548 724.176 102.556H725.176ZM729.329 90.105C732.099 86.2838 736.025 83.2842 741.131 81.1165L740.74 80.196C735.495 82.4228 731.413 85.5268 728.519 89.518L729.329 90.105ZM741.135 81.1149C746.239 78.8997 751.981 77.7871 758.367 77.7871V76.7871C751.863 76.7871 745.983 77.9206 740.737 80.1976L741.135 81.1149ZM758.367 77.7871C768.049 77.7871 775.66 80.2305 781.258 85.0631L781.912 84.3061C776.084 79.2753 768.217 76.7871 758.367 76.7871V77.7871ZM781.262 85.066C786.891 89.8367 789.728 96.5704 789.728 105.339H790.728C790.728 96.3339 787.802 89.2981 781.908 84.3031L781.262 85.066ZM789.728 105.339V139.689H790.728V105.339H789.728ZM789.728 139.693C789.777 147.242 790.829 153.027 792.935 156.99L793.818 156.52C791.824 152.768 790.776 147.176 790.728 139.686L789.728 139.693ZM792.877 156.755V158H793.877V156.755H792.877ZM793.377 157.5H771.99V158.5H793.377V157.5ZM754.485 143.778C757.686 143.778 760.647 143.077 763.358 141.671L762.898 140.784C760.336 142.112 757.535 142.778 754.485 142.778V143.778ZM763.365 141.668C766.076 140.212 768.105 138.266 769.427 135.826L768.548 135.35C767.33 137.597 765.453 139.411 762.891 140.787L763.365 141.668ZM769.487 135.588V121.965H768.487V135.588H769.487ZM768.987 121.465H761.077V122.465H768.987V121.465ZM761.077 121.465C755.734 121.465 751.563 122.386 748.628 124.292C745.667 126.215 744.015 129.107 743.66 132.905L744.656 132.998C744.985 129.471 746.495 126.87 749.173 125.131C751.878 123.375 755.825 122.465 761.077 122.465V121.465ZM743.659 132.922L743.586 134.167L744.584 134.226L744.657 132.981L743.659 132.922ZM743.585 134.196C743.585 136.966 744.566 139.274 746.529 141.083L747.207 140.347C745.459 138.737 744.585 136.7 744.585 134.196H743.585ZM746.529 141.083C748.501 142.898 751.173 143.778 754.485 143.778V142.778C751.352 142.778 748.947 141.949 747.207 140.347L746.529 141.083ZM812.054 88.4199L811.66 88.1117L811.659 88.1133L812.054 88.4199ZM855.779 86.2227L855.391 86.5377L856.137 87.4575L856.276 86.2811L855.779 86.2227ZM856.658 78.752V78.252H856.214L856.162 78.6935L856.658 78.752ZM875.848 78.752H876.348V78.252H875.848V78.752ZM871.087 173.454L870.662 173.191L870.66 173.194L871.087 173.454ZM820.77 185.686L820.965 185.225L820.962 185.224L820.77 185.686ZM808.245 176.75L807.841 176.456L807.62 176.759L807.85 177.056L808.245 176.75ZM817.62 163.859L817.993 163.526L817.58 163.064L817.216 163.565L817.62 163.859ZM849.92 168.181L849.575 167.819L849.572 167.822L849.92 168.181ZM854.607 151.188H855.107V149.869L854.233 150.857L854.607 151.188ZM812.2 148.332L811.807 148.641L811.809 148.643L812.2 148.332ZM828.899 136.247L828.49 136.534L828.492 136.537L828.899 136.247ZM854.607 135.075L855.041 135.325L855.107 135.209V135.075H854.607ZM854.607 101.75H855.107V101.614L855.039 101.497L854.607 101.75ZM828.899 100.725L828.491 100.436L828.489 100.439L828.899 100.725ZM803.911 117.79C803.911 105.71 806.773 96.0378 812.449 88.7265L811.659 88.1133C805.811 95.6457 802.911 105.554 802.911 117.79H803.911ZM812.447 88.7281C818.159 81.433 825.823 77.7871 835.491 77.7871V76.7871C825.53 76.7871 817.57 80.5631 811.66 88.1117L812.447 88.7281ZM835.491 77.7871C844.055 77.7871 850.665 80.7142 855.391 86.5377L856.168 85.9076C851.225 79.8171 844.311 76.7871 835.491 76.7871V77.7871ZM856.276 86.2811L857.155 78.8104L856.162 78.6935L855.283 86.1642L856.276 86.2811ZM856.658 79.252H875.848V78.252H856.658V79.252ZM875.348 78.752V155.363H876.348V78.752H875.348ZM875.348 155.363C875.348 162.218 873.78 168.154 870.662 173.191L871.512 173.717C874.742 168.5 876.348 162.376 876.348 155.363H875.348ZM870.66 173.194C867.589 178.233 863.246 182.074 857.617 184.72L858.043 185.625C863.84 182.9 868.335 178.929 871.514 173.714L870.66 173.194ZM857.617 184.72C851.984 187.369 845.37 188.701 837.762 188.701V189.701C845.486 189.701 852.251 188.348 858.043 185.625L857.617 184.72ZM837.762 188.701C832.021 188.701 826.423 187.544 820.965 185.225L820.574 186.146C826.151 188.515 831.882 189.701 837.762 189.701V188.701ZM820.962 185.224C815.501 182.953 811.406 180.02 808.641 176.444L807.85 177.056C810.748 180.804 815.003 183.828 820.578 186.147L820.962 185.224ZM808.649 177.044L818.024 164.153L817.216 163.565L807.841 176.456L808.649 177.044ZM817.247 164.192C822.61 170.2 829.139 173.222 836.81 173.222V172.222C829.441 172.222 823.177 169.335 817.993 163.526L817.247 164.192ZM836.81 173.222C842.515 173.222 847.025 171.682 850.268 168.54L849.572 167.822C846.565 170.734 842.334 172.222 836.81 172.222V173.222ZM850.265 168.543C853.515 165.445 855.107 161.051 855.107 155.437H854.107C854.107 160.858 852.575 164.959 849.575 167.819L850.265 168.543ZM855.107 155.437V151.188H854.107V155.437H855.107ZM854.233 150.857C849.453 156.258 843.173 158.965 835.345 158.965V159.965C843.434 159.965 849.996 157.154 854.982 151.52L854.233 150.857ZM835.345 158.965C825.975 158.965 818.404 155.323 812.591 148.021L811.809 148.643C817.812 156.185 825.672 159.965 835.345 159.965V158.965ZM812.594 148.023C806.821 140.664 803.911 130.895 803.911 118.669H802.911C802.911 131.052 805.86 141.059 811.807 148.641L812.594 148.023ZM803.911 118.669V117.79H802.911V118.669H803.911ZM824.078 119.328C824.078 126.566 825.53 132.319 828.49 136.534L829.309 135.96C826.507 131.972 825.078 126.446 825.078 119.328H824.078ZM828.492 136.537C831.468 140.723 835.576 142.826 840.765 142.826V141.826C835.895 141.826 832.093 139.876 829.307 135.957L828.492 136.537ZM840.765 142.826C847.356 142.826 852.153 140.34 855.041 135.325L854.174 134.826C851.496 139.478 847.064 141.826 840.765 141.826V142.826ZM855.107 135.075V101.75H854.107V135.075H855.107ZM855.039 101.497C852.104 96.4885 847.361 93.999 840.911 93.999V94.999C847.059 94.999 851.446 97.3435 854.176 102.003L855.039 101.497ZM840.911 93.999C835.67 93.999 831.514 96.1532 828.491 100.436L829.308 101.013C832.144 96.9952 835.996 94.999 840.911 94.999V93.999ZM828.489 100.439C825.523 104.712 824.078 111.033 824.078 119.328H825.078C825.078 111.119 826.514 105.038 829.31 101.01L828.489 100.439ZM900.237 148.771L899.887 149.129L899.889 149.13L900.237 148.771ZM893.938 96.916L894.387 97.1368L894.388 97.1354L893.938 96.916ZM906.976 82.4141L907.233 82.8428L907.234 82.8422L906.976 82.4141ZM951.873 87.541L951.503 87.877L951.504 87.8784L951.873 87.541ZM961.248 125.261V125.761H961.748V125.261H961.248ZM910.784 125.261V124.761H910.214L910.289 125.326L910.784 125.261ZM916.937 137.712L916.599 138.081L916.602 138.083L916.937 137.712ZM949.163 133.537L949.536 133.204L949.136 132.757L948.768 133.23L949.163 133.537ZM959.563 145.183L959.972 145.471L960.201 145.146L959.936 144.85L959.563 145.183ZM946.673 155.729L946.882 156.184L946.885 156.182L946.673 155.729ZM915.984 98.6738L915.618 98.3331L915.615 98.3365L915.984 98.6738ZM911.004 110.832L910.509 110.763L910.43 111.332H911.004V110.832ZM940.447 110.832V111.332H940.947V110.832H940.447ZM940.447 109.147H940.947L940.947 109.137L940.447 109.147ZM936.639 98.3076L936.275 98.6507L936.278 98.6542L936.639 98.3076ZM928.655 158.965C917.145 158.965 907.804 155.439 900.586 148.413L899.889 149.13C907.319 156.362 916.923 159.965 928.655 159.965V158.965ZM900.587 148.414C893.424 141.395 889.824 132.035 889.824 120.28H888.824C888.824 132.256 892.5 141.89 899.887 149.129L900.587 148.414ZM889.824 120.28V118.229H888.824V120.28H889.824ZM889.824 118.229C889.824 110.336 891.349 103.309 894.387 97.1368L893.49 96.6952C890.375 103.023 888.824 110.205 888.824 118.229H889.824ZM894.388 97.1354C897.425 90.9171 901.706 86.1587 907.233 82.8428L906.718 81.9853C901.014 85.4077 896.605 90.3173 893.489 96.6966L894.388 97.1354ZM907.234 82.8422C912.813 79.4755 919.167 77.7871 926.312 77.7871V76.7871C919.003 76.7871 912.466 78.5167 906.717 81.986L907.234 82.8422ZM926.312 77.7871C937.037 77.7871 945.413 81.1639 951.503 87.877L952.243 87.2051C945.931 80.2462 937.266 76.7871 926.312 76.7871V77.7871ZM951.504 87.8784C957.644 94.5937 960.748 104.149 960.748 116.618H961.748C961.748 103.989 958.602 94.1602 952.242 87.2036L951.504 87.8784ZM960.748 116.618V125.261H961.748V116.618H960.748ZM961.248 124.761H910.784V125.761H961.248V124.761ZM910.289 125.326C910.985 130.603 913.083 134.866 916.599 138.081L917.274 137.343C913.954 134.307 911.95 130.27 911.28 125.195L910.289 125.326ZM916.602 138.083C920.172 141.302 924.667 142.899 930.047 142.899V141.899C924.88 141.899 920.634 140.372 917.271 137.341L916.602 138.083ZM930.047 142.899C938.34 142.899 944.864 139.886 949.558 133.844L948.768 133.23C944.282 139.005 938.063 141.899 930.047 141.899V142.899ZM948.79 133.87L959.191 145.516L959.936 144.85L949.536 133.204L948.79 133.87ZM959.155 144.894C956.036 149.309 951.809 152.771 946.461 155.277L946.885 156.182C952.376 153.61 956.744 150.04 959.972 145.471L959.155 144.894ZM946.464 155.275C941.116 157.732 935.183 158.965 928.655 158.965V159.965C935.311 159.965 941.39 158.707 946.882 156.184L946.464 155.275ZM926.238 93.9258C921.913 93.9258 918.358 95.3902 915.618 98.3331L916.35 99.0145C918.884 96.2934 922.165 94.9258 926.238 94.9258V93.9258ZM915.615 98.3365C912.937 101.267 911.25 105.427 910.509 110.763L911.499 110.901C912.223 105.69 913.856 101.745 916.353 99.0111L915.615 98.3365ZM911.004 111.332H940.447V110.332H911.004V111.332ZM940.947 110.832V109.147H939.947V110.832H940.947ZM940.947 109.137C940.848 104.366 939.553 100.617 936.999 97.9611L936.278 98.6542C938.607 101.076 939.851 104.554 939.947 109.158L940.947 109.137ZM937.002 97.9645C934.443 95.2516 930.83 93.9258 926.238 93.9258V94.9258C930.631 94.9258 933.951 96.1879 936.275 98.6507L937.002 97.9645Z" fill="white"/>
<path d="M187.583 159.75C189.074 157.178 190 154.279 190 151.676V61.3239C190 58.721 189.075 55.8231 187.583 53.2505L95 106.5L187.583 159.75Z" fill="#00599C"/>
<path d="M103.227 211.048L181.773 165.872C184.035 164.571 186.092 162.323 187.583 159.75L94.9998 106.5L2.41699 159.751C3.90781 162.323 5.9649 164.571 8.2269 165.872L86.7727 211.048C91.2973 213.651 98.7023 213.651 103.227 211.048Z" fill="#004482"/>
<path d="M187.583 53.2498C186.092 50.6766 184.035 48.4294 181.773 47.128L103.227 1.95217C98.7025 -0.650724 91.2975 -0.650724 86.7729 1.95217L8.22713 47.128C3.7019 49.7303 0 56.1187 0 61.3239V151.676C0 154.279 0.925784 157.178 2.41722 159.75L95 106.5L187.583 53.2498Z" fill="#659AD2"/>
<path d="M94.9999 169.593C60.0777 169.593 31.6665 141.29 31.6665 106.5C31.6665 71.7107 60.0777 43.4073 94.9999 43.4073C117.534 43.4073 138.55 55.4878 149.846 74.934L122.437 90.7345C116.783 81.0009 106.269 74.9538 94.9999 74.9538C77.5385 74.9538 63.3332 89.1052 63.3332 106.5C63.3332 123.895 77.5385 138.047 94.9999 138.047C106.271 138.047 116.785 132 122.439 122.264L149.848 138.064C138.552 157.512 117.535 169.593 94.9999 169.593Z" fill="white"/>
</svg>
