<svg width="500" height="300" viewBox="0 0 500 300" fill="none" xmlns="http://www.w3.org/2000/svg">
<rect width="500" height="300" rx="10" fill="white"/>
<path d="M195.431 155.622H181.686V149.934H195.431V155.622ZM221.334 162.116H236.886V168H214.01V132.453H221.334V162.116ZM255.953 168C255.628 167.365 255.392 166.576 255.245 165.632C253.536 167.536 251.314 168.488 248.58 168.488C245.992 168.488 243.844 167.74 242.135 166.242C240.442 164.745 239.596 162.857 239.596 160.578C239.596 157.779 240.629 155.63 242.696 154.133C244.78 152.635 247.783 151.879 251.705 151.862H254.952V150.349C254.952 149.128 254.635 148.151 254 147.419C253.382 146.687 252.397 146.32 251.046 146.32C249.858 146.32 248.922 146.605 248.238 147.175C247.571 147.744 247.237 148.526 247.237 149.519H240.182C240.182 147.989 240.654 146.573 241.598 145.271C242.542 143.968 243.876 142.951 245.602 142.219C247.327 141.47 249.264 141.096 251.412 141.096C254.667 141.096 257.247 141.918 259.151 143.562C261.072 145.189 262.032 147.484 262.032 150.446V161.896C262.049 164.403 262.398 166.299 263.082 167.585V168H255.953ZM250.118 163.093C251.16 163.093 252.12 162.865 252.999 162.409C253.878 161.937 254.529 161.311 254.952 160.529V155.988H252.315C248.784 155.988 246.904 157.209 246.676 159.65L246.651 160.065C246.651 160.944 246.961 161.669 247.579 162.238C248.198 162.808 249.044 163.093 250.118 163.093ZM273.946 141.584L274.166 144.636C276.054 142.276 278.585 141.096 281.759 141.096C284.558 141.096 286.642 141.918 288.009 143.562C289.376 145.205 290.076 147.663 290.108 150.935V168H283.053V151.105C283.053 149.608 282.727 148.526 282.076 147.858C281.425 147.175 280.343 146.833 278.829 146.833C276.843 146.833 275.354 147.679 274.361 149.372V168H267.306V141.584H273.946ZM294.454 154.597C294.454 150.544 295.414 147.281 297.335 144.807C299.272 142.333 301.876 141.096 305.147 141.096C308.045 141.096 310.299 142.089 311.91 144.074L312.203 141.584H318.6V167.121C318.6 169.432 318.071 171.442 317.013 173.151C315.971 174.86 314.498 176.162 312.594 177.058C310.689 177.953 308.46 178.4 305.904 178.4C303.967 178.4 302.079 178.01 300.24 177.229C298.401 176.464 297.009 175.471 296.065 174.25L299.19 169.953C300.948 171.923 303.08 172.907 305.587 172.907C307.459 172.907 308.915 172.403 309.957 171.394C310.999 170.401 311.52 168.985 311.52 167.146V165.729C309.892 167.569 307.752 168.488 305.099 168.488C301.925 168.488 299.353 167.251 297.384 164.777C295.431 162.287 294.454 158.991 294.454 154.89V154.597ZM301.51 155.109C301.51 157.502 301.99 159.382 302.95 160.749C303.91 162.1 305.229 162.775 306.905 162.775C309.054 162.775 310.592 161.97 311.52 160.358V149.25C310.576 147.639 309.054 146.833 306.954 146.833C305.261 146.833 303.927 147.525 302.95 148.908C301.99 150.292 301.51 152.359 301.51 155.109ZM339.864 165.314C338.123 167.43 335.714 168.488 332.638 168.488C329.806 168.488 327.641 167.674 326.144 166.047C324.662 164.419 323.906 162.035 323.873 158.894V141.584H330.929V158.649C330.929 161.4 332.182 162.775 334.688 162.775C337.081 162.775 338.725 161.945 339.62 160.285V141.584H346.7V168H340.06L339.864 165.314ZM367.33 168C367.005 167.365 366.769 166.576 366.622 165.632C364.913 167.536 362.691 168.488 359.957 168.488C357.369 168.488 355.221 167.74 353.512 166.242C351.819 164.745 350.973 162.857 350.973 160.578C350.973 157.779 352.006 155.63 354.073 154.133C356.157 152.635 359.16 151.879 363.082 151.862H366.329V150.349C366.329 149.128 366.012 148.151 365.377 147.419C364.758 146.687 363.774 146.32 362.423 146.32C361.235 146.32 360.299 146.605 359.615 147.175C358.948 147.744 358.614 148.526 358.614 149.519H351.559C351.559 147.989 352.031 146.573 352.975 145.271C353.919 143.968 355.253 142.951 356.979 142.219C358.704 141.47 360.641 141.096 362.789 141.096C366.044 141.096 368.624 141.918 370.528 143.562C372.449 145.189 373.409 147.484 373.409 150.446V161.896C373.425 164.403 373.775 166.299 374.459 167.585V168H367.33ZM361.495 163.093C362.537 163.093 363.497 162.865 364.376 162.409C365.255 161.937 365.906 161.311 366.329 160.529V155.988H363.692C360.16 155.988 358.281 157.209 358.053 159.65L358.028 160.065C358.028 160.944 358.338 161.669 358.956 162.238C359.575 162.808 360.421 163.093 361.495 163.093ZM377.804 154.597C377.804 150.544 378.764 147.281 380.685 144.807C382.621 142.333 385.226 141.096 388.497 141.096C391.394 141.096 393.648 142.089 395.26 144.074L395.553 141.584H401.949V167.121C401.949 169.432 401.42 171.442 400.362 173.151C399.321 174.86 397.848 176.162 395.943 177.058C394.039 177.953 391.809 178.4 389.254 178.4C387.317 178.4 385.429 178.01 383.59 177.229C381.751 176.464 380.359 175.471 379.415 174.25L382.54 169.953C384.298 171.923 386.43 172.907 388.937 172.907C390.808 172.907 392.265 172.403 393.307 171.394C394.348 170.401 394.869 168.985 394.869 167.146V165.729C393.242 167.569 391.101 168.488 388.448 168.488C385.274 168.488 382.703 167.251 380.733 164.777C378.78 162.287 377.804 158.991 377.804 154.89V154.597ZM384.859 155.109C384.859 157.502 385.34 159.382 386.3 160.749C387.26 162.1 388.578 162.775 390.255 162.775C392.403 162.775 393.941 161.97 394.869 160.358V149.25C393.925 147.639 392.403 146.833 390.304 146.833C388.611 146.833 387.276 147.525 386.3 148.908C385.34 150.292 384.859 152.359 384.859 155.109ZM419.552 168.488C415.678 168.488 412.521 167.3 410.079 164.924C407.654 162.548 406.441 159.382 406.441 155.427V154.743C406.441 152.09 406.954 149.722 407.979 147.639C409.005 145.539 410.453 143.928 412.325 142.805C414.213 141.665 416.362 141.096 418.771 141.096C422.384 141.096 425.224 142.235 427.291 144.514C429.374 146.792 430.416 150.023 430.416 154.206V157.087H413.595C413.823 158.812 414.506 160.196 415.646 161.237C416.801 162.279 418.258 162.8 420.016 162.8C422.734 162.8 424.858 161.815 426.388 159.846L429.854 163.728C428.797 165.225 427.364 166.397 425.558 167.243C423.751 168.073 421.749 168.488 419.552 168.488ZM418.746 146.809C417.346 146.809 416.207 147.281 415.328 148.225C414.465 149.169 413.912 150.52 413.668 152.277H423.482V151.716C423.45 150.153 423.027 148.949 422.213 148.103C421.399 147.24 420.243 146.809 418.746 146.809Z" fill="black"/>
<path d="M195.431 155.622V156.122H195.931V155.622H195.431ZM181.686 155.622H181.186V156.122H181.686V155.622ZM181.686 149.934V149.434H181.186V149.934H181.686ZM195.431 149.934H195.931V149.434H195.431V149.934ZM195.431 155.122H181.686V156.122H195.431V155.122ZM182.186 155.622V149.934H181.186V155.622H182.186ZM181.686 150.434H195.431V149.434H181.686V150.434ZM194.931 149.934V155.622H195.931V149.934H194.931ZM221.334 162.116H220.834V162.616H221.334V162.116ZM236.886 162.116H237.386V161.616H236.886V162.116ZM236.886 168V168.5H237.386V168H236.886ZM214.01 168H213.51V168.5H214.01V168ZM214.01 132.453V131.953H213.51V132.453H214.01ZM221.334 132.453H221.834V131.953H221.334V132.453ZM221.334 162.616H236.886V161.616H221.334V162.616ZM236.386 162.116V168H237.386V162.116H236.386ZM236.886 167.5H214.01V168.5H236.886V167.5ZM214.51 168V132.453H213.51V168H214.51ZM214.01 132.953H221.334V131.953H214.01V132.953ZM220.834 132.453V162.116H221.834V132.453H220.834ZM255.953 168L255.508 168.228L255.648 168.5H255.953V168ZM255.245 165.632L255.739 165.555L255.577 164.513L254.873 165.298L255.245 165.632ZM242.135 166.242L241.803 166.617L241.805 166.618L242.135 166.242ZM242.696 154.133L242.404 153.727L242.403 153.728L242.696 154.133ZM251.705 151.862V151.362L251.703 151.362L251.705 151.862ZM254.952 151.862V152.362H255.452V151.862H254.952ZM254 147.419L253.618 147.742L253.622 147.746L254 147.419ZM248.238 147.175L247.918 146.791L247.914 146.795L248.238 147.175ZM247.237 149.519V150.019H247.737V149.519H247.237ZM240.182 149.519H239.682V150.019H240.182V149.519ZM245.602 142.219L245.797 142.679L245.801 142.677L245.602 142.219ZM259.151 143.562L258.825 143.94L258.828 143.943L259.151 143.562ZM262.032 161.896H261.532L261.532 161.9L262.032 161.896ZM263.082 167.585H263.582V167.46L263.524 167.35L263.082 167.585ZM263.082 168V168.5H263.582V168H263.082ZM252.999 162.409L253.229 162.853L253.236 162.85L252.999 162.409ZM254.952 160.529L255.392 160.767L255.452 160.656V160.529H254.952ZM254.952 155.988H255.452V155.488H254.952V155.988ZM246.676 159.65L246.178 159.604L246.177 159.612L246.177 159.621L246.676 159.65ZM246.651 160.065L246.152 160.036L246.151 160.051V160.065H246.651ZM256.398 167.772C256.104 167.198 255.88 166.463 255.739 165.555L254.751 165.709C254.903 166.689 255.152 167.533 255.508 168.228L256.398 167.772ZM254.873 165.298C253.266 167.089 251.183 167.988 248.58 167.988V168.988C251.445 168.988 253.806 167.984 255.617 165.966L254.873 165.298ZM248.58 167.988C246.095 167.988 244.069 167.273 242.464 165.866L241.805 166.618C243.618 168.207 245.889 168.988 248.58 168.988V167.988ZM242.466 165.868C240.882 164.466 240.096 162.715 240.096 160.578H239.096C239.096 162.999 240.002 165.023 241.803 166.617L242.466 165.868ZM240.096 160.578C240.096 157.921 241.066 155.931 242.99 154.538L242.403 153.728C240.192 155.329 239.096 157.636 239.096 160.578H240.096ZM242.988 154.539C244.953 153.127 247.837 152.378 251.707 152.362L251.703 151.362C247.728 151.379 244.606 152.144 242.404 153.727L242.988 154.539ZM251.705 152.362H254.952V151.362H251.705V152.362ZM255.452 151.862V150.349H254.452V151.862H255.452ZM255.452 150.349C255.452 149.04 255.11 147.937 254.378 147.091L253.622 147.746C254.159 148.366 254.452 149.216 254.452 150.349H255.452ZM254.382 147.096C253.634 146.211 252.481 145.82 251.046 145.82V146.82C252.312 146.82 253.129 147.162 253.618 147.742L254.382 147.096ZM251.046 145.82C249.78 145.82 248.718 146.124 247.918 146.791L248.558 147.559C249.126 147.086 249.935 146.82 251.046 146.82V145.82ZM247.914 146.795C247.12 147.472 246.737 148.401 246.737 149.519H247.737C247.737 148.65 248.022 148.017 248.563 147.555L247.914 146.795ZM247.237 149.019H240.182V150.019H247.237V149.019ZM240.682 149.519C240.682 148.1 241.117 146.785 242.002 145.564L241.193 144.977C240.19 146.36 239.682 147.878 239.682 149.519H240.682ZM242.002 145.564C242.885 144.347 244.141 143.382 245.797 142.679L245.406 141.759C243.611 142.52 242.199 143.59 241.193 144.977L242.002 145.564ZM245.801 142.677C247.455 141.96 249.322 141.596 251.412 141.596V140.596C249.205 140.596 247.199 140.981 245.403 141.76L245.801 142.677ZM251.412 141.596C254.583 141.596 257.035 142.395 258.825 143.94L259.478 143.183C257.459 141.44 254.751 140.596 251.412 140.596V141.596ZM258.828 143.943C260.616 145.458 261.532 147.602 261.532 150.446H262.532C262.532 147.366 261.528 144.92 259.475 143.18L258.828 143.943ZM261.532 150.446V161.896H262.532V150.446H261.532ZM261.532 161.9C261.549 164.436 261.901 166.428 262.641 167.82L263.524 167.35C262.896 166.17 262.548 164.37 262.532 161.893L261.532 161.9ZM262.582 167.585V168H263.582V167.585H262.582ZM263.082 167.5H255.953V168.5H263.082V167.5ZM250.118 163.593C251.236 163.593 252.275 163.348 253.229 162.853L252.769 161.965C251.965 162.382 251.084 162.593 250.118 162.593V163.593ZM253.236 162.85C254.19 162.337 254.917 161.645 255.392 160.767L254.513 160.291C254.141 160.976 253.566 161.537 252.762 161.969L253.236 162.85ZM255.452 160.529V155.988H254.452V160.529H255.452ZM254.952 155.488H252.315V156.488H254.952V155.488ZM252.315 155.488C250.504 155.488 249.04 155.799 247.984 156.484C246.903 157.187 246.305 158.247 246.178 159.604L247.174 159.697C247.275 158.612 247.73 157.842 248.529 157.323C249.354 156.788 250.595 156.488 252.315 156.488V155.488ZM246.177 159.621L246.152 160.036L247.151 160.095L247.175 159.68L246.177 159.621ZM246.151 160.065C246.151 161.077 246.514 161.937 247.24 162.606L247.918 161.871C247.407 161.4 247.151 160.812 247.151 160.065H246.151ZM247.24 162.606C247.975 163.282 248.955 163.593 250.118 163.593V162.593C249.133 162.593 248.421 162.334 247.918 161.871L247.24 162.606ZM273.946 141.584L274.445 141.548L274.412 141.084H273.946V141.584ZM274.166 144.636L273.667 144.672L273.759 145.945L274.556 144.948L274.166 144.636ZM288.009 143.562L288.393 143.242L288.009 143.562ZM290.108 150.935H290.608L290.608 150.93L290.108 150.935ZM290.108 168V168.5H290.608V168H290.108ZM283.053 168H282.553V168.5H283.053V168ZM282.076 147.858L281.714 148.203L281.718 148.208L282.076 147.858ZM274.361 149.372L273.93 149.119L273.861 149.236V149.372H274.361ZM274.361 168V168.5H274.861V168H274.361ZM267.306 168H266.806V168.5H267.306V168ZM267.306 141.584V141.084H266.806V141.584H267.306ZM273.448 141.62L273.667 144.672L274.665 144.6L274.445 141.548L273.448 141.62ZM274.556 144.948C276.344 142.713 278.728 141.596 281.759 141.596V140.596C278.442 140.596 275.764 141.838 273.776 144.323L274.556 144.948ZM281.759 141.596C284.459 141.596 286.38 142.385 287.624 143.881L288.393 143.242C286.903 141.451 284.658 140.596 281.759 140.596V141.596ZM287.624 143.881C288.888 145.4 289.576 147.725 289.608 150.94L290.608 150.93C290.575 147.601 289.864 145.01 288.393 143.242L287.624 143.881ZM289.608 150.935V168H290.608V150.935H289.608ZM290.108 167.5H283.053V168.5H290.108V167.5ZM283.553 168V151.105H282.553V168H283.553ZM283.553 151.105C283.553 149.553 283.218 148.313 282.434 147.509L281.718 148.208C282.236 148.739 282.553 149.663 282.553 151.105H283.553ZM282.438 147.514C281.649 146.685 280.4 146.333 278.829 146.333V147.333C280.286 147.333 281.201 147.665 281.714 148.203L282.438 147.514ZM278.829 146.333C276.669 146.333 275.014 147.271 273.93 149.119L274.793 149.625C275.694 148.088 277.018 147.333 278.829 147.333V146.333ZM273.861 149.372V168H274.861V149.372H273.861ZM274.361 167.5H267.306V168.5H274.361V167.5ZM267.806 168V141.584H266.806V168H267.806ZM267.306 142.084H273.946V141.084H267.306V142.084ZM297.335 144.807L296.941 144.498L296.94 144.5L297.335 144.807ZM311.91 144.074L311.522 144.389L312.268 145.309L312.407 144.133L311.91 144.074ZM312.203 141.584V141.084H311.759L311.707 141.526L312.203 141.584ZM318.6 141.584H319.1V141.084H318.6V141.584ZM317.013 173.151L316.588 172.888L316.586 172.891L317.013 173.151ZM300.24 177.229L300.436 176.768L300.432 176.767L300.24 177.229ZM296.065 174.25L295.661 173.956L295.44 174.259L295.67 174.556L296.065 174.25ZM299.19 169.953L299.563 169.62L299.151 169.158L298.786 169.659L299.19 169.953ZM309.957 171.394L309.612 171.032L309.609 171.034L309.957 171.394ZM311.52 165.729H312.02V164.41L311.145 165.398L311.52 165.729ZM297.384 164.777L296.99 165.086L296.993 165.089L297.384 164.777ZM302.95 160.749L302.541 161.036L302.543 161.039L302.95 160.749ZM311.52 160.358L311.953 160.608L312.02 160.492V160.358H311.52ZM311.52 149.25H312.02V149.114L311.951 148.997L311.52 149.25ZM302.95 148.908L302.542 148.62L302.539 148.623L302.95 148.908ZM294.954 154.597C294.954 150.622 295.895 147.477 297.73 145.113L296.94 144.5C294.934 147.085 293.954 150.466 293.954 154.597H294.954ZM297.729 145.115C299.566 142.768 302.022 141.596 305.147 141.596V140.596C301.73 140.596 298.977 141.898 296.941 144.498L297.729 145.115ZM305.147 141.596C307.917 141.596 310.019 142.537 311.522 144.389L312.298 143.759C310.579 141.64 308.173 140.596 305.147 140.596V141.596ZM312.407 144.133L312.7 141.642L311.707 141.526L311.414 144.016L312.407 144.133ZM312.203 142.084H318.6V141.084H312.203V142.084ZM318.1 141.584V167.121H319.1V141.584H318.1ZM318.1 167.121C318.1 169.354 317.59 171.27 316.588 172.888L317.438 173.415C318.552 171.615 319.1 169.511 319.1 167.121H318.1ZM316.586 172.891C315.598 174.512 314.201 175.749 312.381 176.605L312.806 177.51C314.795 176.575 316.344 175.209 317.44 173.412L316.586 172.891ZM312.381 176.605C310.556 177.463 308.402 177.9 305.904 177.9V178.9C308.518 178.9 310.823 178.443 312.806 177.51L312.381 176.605ZM305.904 177.9C304.037 177.9 302.215 177.524 300.436 176.768L300.045 177.689C301.944 178.495 303.898 178.9 305.904 178.9V177.9ZM300.432 176.767C298.65 176.026 297.339 175.079 296.461 173.944L295.67 174.556C296.68 175.862 298.152 176.901 300.048 177.69L300.432 176.767ZM296.47 174.544L299.595 170.247L298.786 169.659L295.661 173.956L296.47 174.544ZM298.817 170.286C300.664 172.355 302.93 173.407 305.587 173.407V172.407C303.231 172.407 301.232 171.49 299.563 169.62L298.817 170.286ZM305.587 173.407C307.549 173.407 309.145 172.876 310.305 171.753L309.609 171.034C308.686 171.929 307.368 172.407 305.587 172.407V173.407ZM310.302 171.755C311.468 170.644 312.02 169.081 312.02 167.146H311.02C311.02 168.888 310.529 170.158 309.612 171.032L310.302 171.755ZM312.02 167.146V165.729H311.02V167.146H312.02ZM311.145 165.398C309.621 167.121 307.621 167.988 305.099 167.988V168.988C307.882 168.988 310.163 168.017 311.894 166.061L311.145 165.398ZM305.099 167.988C302.076 167.988 299.649 166.82 297.775 164.466L296.993 165.089C299.057 167.682 301.773 168.988 305.099 168.988V167.988ZM297.777 164.469C295.911 162.09 294.954 158.913 294.954 154.89H293.954C293.954 159.07 294.95 162.485 296.99 165.086L297.777 164.469ZM294.954 154.89V154.597H293.954V154.89H294.954ZM301.01 155.109C301.01 157.562 301.501 159.556 302.541 161.036L303.359 160.462C302.479 159.208 302.01 157.442 302.01 155.109H301.01ZM302.543 161.039C303.598 162.523 305.069 163.275 306.905 163.275V162.275C305.389 162.275 304.223 161.677 303.358 160.459L302.543 161.039ZM306.905 163.275C309.199 163.275 310.92 162.401 311.953 160.608L311.086 160.109C310.263 161.538 308.908 162.275 306.905 162.275V163.275ZM312.02 160.358V149.25H311.02V160.358H312.02ZM311.951 148.997C310.905 147.211 309.205 146.333 306.954 146.333V147.333C308.903 147.333 310.246 148.066 311.088 149.503L311.951 148.997ZM306.954 146.333C305.099 146.333 303.612 147.104 302.542 148.62L303.359 149.197C304.242 147.946 305.424 147.333 306.954 147.333V146.333ZM302.539 148.623C301.495 150.128 301.01 152.316 301.01 155.109H302.01C302.01 152.402 302.485 150.455 303.361 149.193L302.539 148.623ZM339.864 165.314L340.363 165.278L340.272 164.032L339.478 164.997L339.864 165.314ZM326.144 166.047L325.774 166.383L325.776 166.385L326.144 166.047ZM323.873 158.894H323.373L323.373 158.899L323.873 158.894ZM323.873 141.584V141.084H323.373V141.584H323.873ZM330.929 141.584H331.429V141.084H330.929V141.584ZM339.62 160.285L340.06 160.522L340.12 160.411V160.285H339.62ZM339.62 141.584V141.084H339.12V141.584H339.62ZM346.7 141.584H347.2V141.084H346.7V141.584ZM346.7 168V168.5H347.2V168H346.7ZM340.06 168L339.561 168.036L339.595 168.5H340.06V168ZM339.478 164.997C337.844 166.982 335.585 167.988 332.638 167.988V168.988C335.843 168.988 338.401 167.879 340.25 165.632L339.478 164.997ZM332.638 167.988C329.904 167.988 327.889 167.206 326.512 165.708L325.776 166.385C327.393 168.143 329.707 168.988 332.638 168.988V167.988ZM326.513 165.71C325.144 164.206 324.405 161.959 324.373 158.888L323.373 158.899C323.406 162.111 324.181 164.633 325.774 166.383L326.513 165.71ZM324.373 158.894V141.584H323.373V158.894H324.373ZM323.873 142.084H330.929V141.084H323.873V142.084ZM330.429 141.584V158.649H331.429V141.584H330.429ZM330.429 158.649C330.429 160.091 330.756 161.265 331.499 162.081C332.25 162.905 333.346 163.275 334.688 163.275V162.275C333.525 162.275 332.74 161.958 332.238 161.407C331.728 160.847 331.429 159.959 331.429 158.649H330.429ZM334.688 163.275C337.207 163.275 339.053 162.39 340.06 160.522L339.18 160.048C338.397 161.501 336.955 162.275 334.688 162.275V163.275ZM340.12 160.285V141.584H339.12V160.285H340.12ZM339.62 142.084H346.7V141.084H339.62V142.084ZM346.2 141.584V168H347.2V141.584H346.2ZM346.7 167.5H340.06V168.5H346.7V167.5ZM340.558 167.964L340.363 165.278L339.366 165.351L339.561 168.036L340.558 167.964ZM367.33 168L366.885 168.228L367.025 168.5H367.33V168ZM366.622 165.632L367.116 165.555L366.954 164.513L366.25 165.298L366.622 165.632ZM353.512 166.242L353.18 166.617L353.182 166.618L353.512 166.242ZM354.073 154.133L353.781 153.727L353.78 153.728L354.073 154.133ZM363.082 151.862V151.362L363.08 151.362L363.082 151.862ZM366.329 151.862V152.362H366.829V151.862H366.329ZM365.377 147.419L364.995 147.742L364.999 147.746L365.377 147.419ZM359.615 147.175L359.295 146.791L359.291 146.795L359.615 147.175ZM358.614 149.519V150.019H359.114V149.519H358.614ZM351.559 149.519H351.059V150.019H351.559V149.519ZM356.979 142.219L357.174 142.679L357.178 142.677L356.979 142.219ZM370.528 143.562L370.202 143.94L370.205 143.943L370.528 143.562ZM373.409 161.896H372.909L372.909 161.9L373.409 161.896ZM374.459 167.585H374.959V167.46L374.9 167.35L374.459 167.585ZM374.459 168V168.5H374.959V168H374.459ZM364.376 162.409L364.606 162.853L364.613 162.85L364.376 162.409ZM366.329 160.529L366.769 160.767L366.829 160.656V160.529H366.329ZM366.329 155.988H366.829V155.488H366.329V155.988ZM358.053 159.65L357.555 159.604L357.554 159.612L357.554 159.621L358.053 159.65ZM358.028 160.065L357.529 160.036L357.528 160.051V160.065H358.028ZM367.775 167.772C367.481 167.198 367.257 166.463 367.116 165.555L366.128 165.709C366.28 166.689 366.529 167.533 366.885 168.228L367.775 167.772ZM366.25 165.298C364.643 167.089 362.56 167.988 359.957 167.988V168.988C362.822 168.988 365.183 167.984 366.994 165.966L366.25 165.298ZM359.957 167.988C357.472 167.988 355.446 167.273 353.841 165.866L353.182 166.618C354.995 168.207 357.266 168.988 359.957 168.988V167.988ZM353.843 165.868C352.259 164.466 351.473 162.715 351.473 160.578H350.473C350.473 162.999 351.379 165.023 353.18 166.617L353.843 165.868ZM351.473 160.578C351.473 157.921 352.443 155.931 354.367 154.538L353.78 153.728C351.569 155.329 350.473 157.636 350.473 160.578H351.473ZM354.365 154.539C356.33 153.127 359.214 152.378 363.084 152.362L363.08 151.362C359.105 151.379 355.983 152.144 353.781 153.727L354.365 154.539ZM363.082 152.362H366.329V151.362H363.082V152.362ZM366.829 151.862V150.349H365.829V151.862H366.829ZM366.829 150.349C366.829 149.04 366.487 147.937 365.755 147.091L364.999 147.746C365.536 148.366 365.829 149.216 365.829 150.349H366.829ZM365.759 147.096C365.011 146.211 363.858 145.82 362.423 145.82V146.82C363.689 146.82 364.506 147.162 364.995 147.742L365.759 147.096ZM362.423 145.82C361.157 145.82 360.095 146.124 359.295 146.791L359.935 147.559C360.503 147.086 361.312 146.82 362.423 146.82V145.82ZM359.291 146.795C358.497 147.472 358.114 148.401 358.114 149.519H359.114C359.114 148.65 359.399 148.017 359.94 147.555L359.291 146.795ZM358.614 149.019H351.559V150.019H358.614V149.019ZM352.059 149.519C352.059 148.1 352.494 146.785 353.379 145.564L352.57 144.977C351.567 146.36 351.059 147.878 351.059 149.519H352.059ZM353.379 145.564C354.262 144.347 355.518 143.382 357.174 142.679L356.783 141.759C354.988 142.52 353.575 143.59 352.57 144.977L353.379 145.564ZM357.178 142.677C358.832 141.96 360.699 141.596 362.789 141.596V140.596C360.582 140.596 358.576 140.981 356.779 141.76L357.178 142.677ZM362.789 141.596C365.96 141.596 368.412 142.395 370.202 143.94L370.855 143.183C368.836 141.44 366.128 140.596 362.789 140.596V141.596ZM370.205 143.943C371.993 145.458 372.909 147.602 372.909 150.446H373.909C373.909 147.366 372.904 144.92 370.852 143.18L370.205 143.943ZM372.909 150.446V161.896H373.909V150.446H372.909ZM372.909 161.9C372.926 164.436 373.278 166.428 374.017 167.82L374.9 167.35C374.273 166.17 373.925 164.37 373.909 161.893L372.909 161.9ZM373.959 167.585V168H374.959V167.585H373.959ZM374.459 167.5H367.33V168.5H374.459V167.5ZM361.495 163.593C362.613 163.593 363.652 163.348 364.606 162.853L364.146 161.965C363.342 162.382 362.461 162.593 361.495 162.593V163.593ZM364.613 162.85C365.567 162.337 366.294 161.645 366.769 160.767L365.889 160.291C365.518 160.976 364.943 161.537 364.139 161.969L364.613 162.85ZM366.829 160.529V155.988H365.829V160.529H366.829ZM366.329 155.488H363.692V156.488H366.329V155.488ZM363.692 155.488C361.881 155.488 360.416 155.799 359.361 156.484C358.28 157.187 357.682 158.247 357.555 159.604L358.551 159.697C358.652 158.612 359.107 157.842 359.906 157.323C360.731 156.788 361.972 156.488 363.692 156.488V155.488ZM357.554 159.621L357.529 160.036L358.527 160.095L358.552 159.68L357.554 159.621ZM357.528 160.065C357.528 161.077 357.891 161.937 358.617 162.606L359.295 161.871C358.784 161.4 358.528 160.812 358.528 160.065H357.528ZM358.617 162.606C359.352 163.282 360.331 163.593 361.495 163.593V162.593C360.51 162.593 359.797 162.334 359.295 161.871L358.617 162.606ZM380.685 144.807L380.291 144.498L380.29 144.5L380.685 144.807ZM395.26 144.074L394.872 144.389L395.618 145.309L395.756 144.133L395.26 144.074ZM395.553 141.584V141.084H395.108L395.056 141.526L395.553 141.584ZM401.949 141.584H402.449V141.084H401.949V141.584ZM400.362 173.151L399.937 172.888L399.935 172.891L400.362 173.151ZM383.59 177.229L383.785 176.768L383.782 176.767L383.59 177.229ZM379.415 174.25L379.011 173.956L378.79 174.259L379.02 174.556L379.415 174.25ZM382.54 169.953L382.913 169.62L382.5 169.158L382.136 169.659L382.54 169.953ZM393.307 171.394L392.962 171.032L392.959 171.034L393.307 171.394ZM394.869 165.729H395.369V164.41L394.495 165.398L394.869 165.729ZM380.733 164.777L380.34 165.086L380.342 165.089L380.733 164.777ZM386.3 160.749L385.891 161.036L385.892 161.039L386.3 160.749ZM394.869 160.358L395.302 160.608L395.369 160.492V160.358H394.869ZM394.869 149.25H395.369V149.114L395.301 148.997L394.869 149.25ZM386.3 148.908L385.891 148.62L385.889 148.623L386.3 148.908ZM378.304 154.597C378.304 150.622 379.245 147.477 381.08 145.113L380.29 144.5C378.283 147.085 377.304 150.466 377.304 154.597H378.304ZM381.078 145.115C382.916 142.768 385.372 141.596 388.497 141.596V140.596C385.079 140.596 382.327 141.898 380.291 144.498L381.078 145.115ZM388.497 141.596C391.266 141.596 393.369 142.537 394.872 144.389L395.648 143.759C393.928 141.64 391.522 140.596 388.497 140.596V141.596ZM395.756 144.133L396.049 141.642L395.056 141.526L394.763 144.016L395.756 144.133ZM395.553 142.084H401.949V141.084H395.553V142.084ZM401.449 141.584V167.121H402.449V141.584H401.449ZM401.449 167.121C401.449 169.354 400.939 171.27 399.937 172.888L400.787 173.415C401.901 171.615 402.449 169.511 402.449 167.121H401.449ZM399.935 172.891C398.947 174.512 397.551 175.749 395.731 176.605L396.156 177.51C398.144 176.575 399.694 175.209 400.789 173.412L399.935 172.891ZM395.731 176.605C393.906 177.463 391.751 177.9 389.254 177.9V178.9C391.867 178.9 394.173 178.443 396.156 177.51L395.731 176.605ZM389.254 177.9C387.386 177.9 385.565 177.524 383.785 176.768L383.394 177.689C385.293 178.495 387.248 178.9 389.254 178.9V177.9ZM383.782 176.767C382 176.026 380.688 175.079 379.811 173.944L379.02 174.556C380.03 175.862 381.501 176.901 383.398 177.69L383.782 176.767ZM379.819 174.544L382.944 170.247L382.136 169.659L379.011 173.956L379.819 174.544ZM382.167 170.286C384.014 172.355 386.279 173.407 388.937 173.407V172.407C386.581 172.407 384.582 171.49 382.913 169.62L382.167 170.286ZM388.937 173.407C390.899 173.407 392.495 172.876 393.655 171.753L392.959 171.034C392.035 171.929 390.718 172.407 388.937 172.407V173.407ZM393.652 171.755C394.818 170.644 395.369 169.081 395.369 167.146H394.369C394.369 168.888 393.879 170.158 392.962 171.032L393.652 171.755ZM395.369 167.146V165.729H394.369V167.146H395.369ZM394.495 165.398C392.97 167.121 390.971 167.988 388.448 167.988V168.988C391.231 168.988 393.513 168.017 395.244 166.061L394.495 165.398ZM388.448 167.988C385.426 167.988 382.999 166.82 381.125 164.466L380.342 165.089C382.407 167.682 385.123 168.988 388.448 168.988V167.988ZM381.127 164.469C379.261 162.09 378.304 158.913 378.304 154.89H377.304C377.304 159.07 378.3 162.485 380.34 165.086L381.127 164.469ZM378.304 154.89V154.597H377.304V154.89H378.304ZM384.359 155.109C384.359 157.562 384.851 159.556 385.891 161.036L386.709 160.462C385.828 159.208 385.359 157.442 385.359 155.109H384.359ZM385.892 161.039C386.948 162.523 388.419 163.275 390.255 163.275V162.275C388.738 162.275 387.573 161.677 386.707 160.459L385.892 161.039ZM390.255 163.275C392.549 163.275 394.27 162.401 395.302 160.608L394.436 160.109C393.613 161.538 392.258 162.275 390.255 162.275V163.275ZM395.369 160.358V149.25H394.369V160.358H395.369ZM395.301 148.997C394.254 147.211 392.554 146.333 390.304 146.333V147.333C392.252 147.333 393.596 148.066 394.438 149.503L395.301 148.997ZM390.304 146.333C388.448 146.333 386.962 147.104 385.891 148.62L386.708 149.197C387.591 147.946 388.774 147.333 390.304 147.333V146.333ZM385.889 148.623C384.844 150.128 384.359 152.316 384.359 155.109H385.359C385.359 152.402 385.835 150.455 386.711 149.193L385.889 148.623ZM410.079 164.924L409.729 165.281L409.73 165.282L410.079 164.924ZM407.979 147.639L408.428 147.859L408.429 147.858L407.979 147.639ZM412.325 142.805L412.582 143.233L412.584 143.233L412.325 142.805ZM427.291 144.514L426.921 144.85L426.922 144.851L427.291 144.514ZM430.416 157.087V157.587H430.916V157.087H430.416ZM413.595 157.087V156.587H413.024L413.099 157.152L413.595 157.087ZM415.646 161.237L415.308 161.606L415.311 161.609L415.646 161.237ZM426.388 159.846L426.761 159.513L426.361 159.065L425.993 159.539L426.388 159.846ZM429.854 163.728L430.263 164.016L430.492 163.691L430.227 163.394L429.854 163.728ZM425.558 167.243L425.766 167.698L425.77 167.696L425.558 167.243ZM415.328 148.225L414.962 147.884L414.959 147.887L415.328 148.225ZM413.668 152.277L413.173 152.209L413.094 152.777H413.668V152.277ZM423.482 152.277V152.777H423.982V152.277H423.482ZM423.482 151.716H423.983L423.982 151.705L423.482 151.716ZM422.213 148.103L421.849 148.446L421.852 148.449L422.213 148.103ZM419.552 167.988C415.789 167.988 412.763 166.838 410.428 164.566L409.73 165.282C412.278 167.762 415.567 168.988 419.552 168.988V167.988ZM410.429 164.567C408.116 162.3 406.941 159.271 406.941 155.427H405.941C405.941 159.492 407.192 162.795 409.729 165.281L410.429 164.567ZM406.941 155.427V154.743H405.941V155.427H406.941ZM406.941 154.743C406.941 152.156 407.441 149.865 408.428 147.859L407.531 147.418C406.467 149.579 405.941 152.025 405.941 154.743H406.941ZM408.429 147.858C409.415 145.839 410.8 144.303 412.582 143.233L412.068 142.376C410.107 143.552 408.595 145.239 407.53 147.419L408.429 147.858ZM412.584 143.233C414.386 142.145 416.444 141.596 418.771 141.596V140.596C416.279 140.596 414.04 141.186 412.067 142.377L412.584 143.233ZM418.771 141.596C422.27 141.596 424.965 142.694 426.921 144.85L427.661 144.178C425.483 141.776 422.498 140.596 418.771 140.596V141.596ZM426.922 144.851C428.895 147.009 429.916 150.103 429.916 154.206H430.916C430.916 149.943 429.854 146.576 427.66 144.176L426.922 144.851ZM429.916 154.206V157.087H430.916V154.206H429.916ZM430.416 156.587H413.595V157.587H430.416V156.587ZM413.099 157.152C413.34 158.979 414.071 160.475 415.308 161.606L415.983 160.868C414.941 159.916 414.305 158.646 414.09 157.021L413.099 157.152ZM415.311 161.609C416.57 162.744 418.151 163.3 420.016 163.3V162.3C418.364 162.3 417.032 161.814 415.98 160.866L415.311 161.609ZM420.016 163.3C422.872 163.3 425.148 162.256 426.783 160.152L425.993 159.539C424.567 161.374 422.595 162.3 420.016 162.3V163.3ZM426.015 160.179L429.482 164.061L430.227 163.394L426.761 159.513L426.015 160.179ZM429.446 163.439C428.443 164.859 427.081 165.977 425.346 166.79L425.77 167.696C427.648 166.816 429.15 165.59 430.263 164.016L429.446 163.439ZM425.349 166.789C423.614 167.586 421.685 167.988 419.552 167.988V168.988C421.813 168.988 423.888 168.561 425.766 167.698L425.349 166.789ZM418.746 146.309C417.221 146.309 415.944 146.829 414.962 147.884L415.694 148.565C416.47 147.732 417.472 147.309 418.746 147.309V146.309ZM414.959 147.887C414.006 148.93 413.426 150.388 413.173 152.209L414.163 152.346C414.399 150.651 414.925 149.407 415.697 148.562L414.959 147.887ZM413.668 152.777H423.482V151.777H413.668V152.777ZM423.982 152.277V151.716H422.982V152.277H423.982ZM423.982 151.705C423.948 150.06 423.5 148.719 422.573 147.756L421.852 148.449C422.554 149.178 422.952 150.247 422.983 151.726L423.982 151.705ZM422.577 147.759C421.645 146.772 420.343 146.309 418.746 146.309V147.309C420.144 147.309 421.153 147.708 421.849 148.446L422.577 147.759Z" fill="black"/>
<path d="M166.728 179.25C167.512 177.861 168 176.296 168 174.891V126.109C168 124.704 167.513 123.139 166.728 121.75L118 150.5L166.728 179.25Z" fill="#00599C"/>
<path d="M122.33 206.946L163.67 182.555C164.861 181.853 165.943 180.639 166.728 179.25L118 150.5L69.2725 179.25C70.0571 180.639 71.1398 181.853 72.3303 182.555L113.67 206.946C116.052 208.351 119.949 208.351 122.33 206.946Z" fill="#004482"/>
<path d="M166.728 121.75C165.943 120.361 164.86 119.147 163.67 118.445L122.33 94.054C119.949 92.6487 116.051 92.6487 113.67 94.054L72.3301 118.445C69.9484 119.85 68 123.299 68 126.109V174.891C68 176.296 68.4873 177.861 69.2722 179.25L118 150.5L166.728 121.75Z" fill="#659AD2"/>
<path d="M118 184.565C99.6203 184.565 84.667 169.283 84.667 150.5C84.667 131.717 99.6203 116.436 118 116.436C129.86 116.436 140.922 122.958 146.867 133.457L132.441 141.988C129.465 136.733 123.932 133.468 118 133.468C108.81 133.468 101.334 141.109 101.334 150.5C101.334 159.892 108.81 167.532 118 167.532C123.932 167.532 129.466 164.268 132.442 159.011L146.868 167.542C140.923 178.042 129.861 184.565 118 184.565Z" fill="white"/>
</svg>
