<svg width="80" height="93" viewBox="0 0 93 101" fill="none" xmlns="http://www.w3.org/2000/svg">
<mask id="path-1-inside-1" fill="white">
<path d="M92.0863 26.4497C86.9257 16.6296 78.7521 8.84957 68.8444 4.32672C58.9366 -0.196124 47.8537 -1.20663 37.3293 1.4533C26.805 4.11322 17.4331 10.2935 10.6798 19.0273C3.92645 27.7611 0.172706 38.5557 0.00581194 49.7222C-0.161082 60.8888 3.26829 71.7974 9.7574 80.7414C16.2465 89.6854 25.4293 96.1603 35.8691 99.153C46.309 102.146 57.4169 101.487 67.4551 97.2813C77.4933 93.0751 85.8955 85.5582 91.3472 75.9066L69.649 62.8886C66.9907 67.5948 62.8937 71.2602 57.9989 73.3112C53.1042 75.3622 47.6878 75.6831 42.5972 74.2238C37.5066 72.7645 33.029 69.6073 29.8648 65.2461C26.7006 60.8849 25.0284 55.5657 25.1098 50.1207C25.1912 44.6758 27.0216 39.4122 30.3146 35.1535C33.6076 30.8948 38.1774 27.8812 43.3092 26.5842C48.441 25.2872 53.8452 25.7799 58.6764 27.9853C63.5075 30.1907 67.4931 33.9844 70.0095 38.7728L92.0863 26.4497Z"/>
</mask>
<path d="M92.0863 26.4497C86.9257 16.6296 78.7521 8.84957 68.8444 4.32672C58.9366 -0.196124 47.8537 -1.20663 37.3293 1.4533C26.805 4.11322 17.4331 10.2935 10.6798 19.0273C3.92645 27.7611 0.172706 38.5557 0.00581194 49.7222C-0.161082 60.8888 3.26829 71.7974 9.7574 80.7414C16.2465 89.6854 25.4293 96.1603 35.8691 99.153C46.309 102.146 57.4169 101.487 67.4551 97.2813C77.4933 93.0751 85.8955 85.5582 91.3472 75.9066L69.649 62.8886C66.9907 67.5948 62.8937 71.2602 57.9989 73.3112C53.1042 75.3622 47.6878 75.6831 42.5972 74.2238C37.5066 72.7645 33.029 69.6073 29.8648 65.2461C26.7006 60.8849 25.0284 55.5657 25.1098 50.1207C25.1912 44.6758 27.0216 39.4122 30.3146 35.1535C33.6076 30.8948 38.1774 27.8812 43.3092 26.5842C48.441 25.2872 53.8452 25.7799 58.6764 27.9853C63.5075 30.1907 67.4931 33.9844 70.0095 38.7728L92.0863 26.4497Z" stroke="#10B1FE" stroke-width="50" mask="url(#path-1-inside-1)"/>
</svg>
