<svg width="474" height="534" viewBox="0 0 474 534" fill="none" xmlns="http://www.w3.org/2000/svg">
    <path
        d="M467.908 400C471.627 393.559 473.938 386.301 473.938 379.784V153.55C473.938 147.032 471.63 139.776 467.91 133.335L236.969 266.667L467.908 400Z"
        fill="#00599C" />
    <path
        d="M257.49 528.445L453.416 415.329C459.06 412.07 464.189 406.443 467.908 400L236.969 266.667L6.0293 400.002C9.748 406.444 14.8792 412.072 20.5216 415.329L216.447 528.445C227.733 534.963 246.204 534.963 257.49 528.445Z"
        fill="#004482" />
    <path
        d="M467.91 133.333C464.19 126.89 459.058 121.263 453.416 118.004L257.491 4.88806C246.204 -1.62935 227.733 -1.62935 216.447 4.88806L20.5218 118.004C9.23404 124.52 0 140.516 0 153.55V379.784C0 386.301 2.30929 393.559 6.02954 400L236.969 266.667L467.91 133.333Z"
        fill="#659AD2" />
    <path
        d="M236.969 424.647C149.858 424.647 78.9893 353.778 78.9893 266.667C78.9893 179.557 149.858 108.688 236.969 108.688C293.178 108.688 345.601 138.937 373.777 187.628L305.408 227.191C291.306 202.819 265.08 187.678 236.969 187.678C193.413 187.678 157.979 223.112 157.979 266.667C157.979 310.222 193.413 345.657 236.969 345.657C265.083 345.657 291.309 330.516 305.412 306.139L373.782 345.7C345.606 394.397 293.181 424.647 236.969 424.647Z"
        fill="white" />
</svg>