<svg width="217" height="219" viewBox="0 0 217 219" fill="none" xmlns="http://www.w3.org/2000/svg">
    <path
        d="M106.769 0.00174037C97.8592 0.0425672 89.3497 0.802724 81.8609 2.12862C59.8008 6.02467 55.7959 14.1823 55.7959 29.224V49.0911H107.924V55.7129H36.234C21.0834 55.7129 7.81852 64.8192 3.66974 82.1414C-1.11672 101.997 -1.32863 114.387 3.66974 135.119C7.37526 150.552 16.223 161.548 31.3737 161.548H49.2966V137.732C49.2966 120.526 64.1829 105.349 81.8609 105.349H133.925C148.42 105.349 159.99 93.4154 159.99 78.8597V29.226C159.99 15.0979 148.072 4.48491 133.927 2.12862C124.972 0.637473 115.681 -0.0390864 106.769 0.00174037V0.00174037ZM78.5792 15.9806C83.9644 15.9806 88.3601 20.4482 88.3601 25.9443C88.3601 31.419 83.9644 35.8457 78.5811 35.8457C73.1764 35.8457 68.7982 31.419 68.7982 25.9443C68.7982 20.4482 73.1764 15.9806 78.5792 15.9806V15.9806Z"
        fill="url(#paint0_linear)" />
    <path
        d="M166.491 55.7128V78.8596C166.491 96.8059 151.276 111.91 133.927 111.91H81.8609C67.5987 111.91 55.7959 124.117 55.7959 138.399V188.036C55.7959 202.162 68.0809 210.472 81.8609 214.525C98.3608 219.376 114.184 220.253 133.925 214.525C147.05 210.724 159.99 203.078 159.99 188.036V168.169H107.924V161.548H186.053C201.204 161.548 206.849 150.979 212.118 135.119C217.56 118.79 217.328 103.087 212.118 82.1413C208.374 67.0607 201.223 55.7128 186.053 55.7128H166.491ZM137.207 181.413C142.611 181.413 146.989 185.841 146.989 191.316C146.989 196.812 142.611 201.28 137.207 201.28C131.821 201.28 127.428 196.812 127.428 191.316C127.428 185.841 131.821 181.413 137.207 181.413Z"
        fill="url(#paint1_linear)" />
    <defs>
        <linearGradient id="paint0_linear" x1="-0.000534668" y1="0.000678034" x2="120.198" y2="102.427"
            gradientUnits="userSpaceOnUse">
            <stop stop-color="#5A9FD4" />
            <stop offset="1" stop-color="#306998" />
        </linearGradient>
        <linearGradient id="paint1_linear" x1="135.954" y1="189.646" x2="92.8306" y2="129.218"
            gradientUnits="userSpaceOnUse">
            <stop stop-color="#FFD43B" />
            <stop offset="1" stop-color="#FFE873" />
        </linearGradient>
    </defs>
</svg>