<svg width="255" height="250" viewBox="0 0 255 250" fill="none" xmlns="http://www.w3.org/2000/svg">
<path d="M157 0H92C77.6406 0 66 11.6406 66 26V54H127V62.5H37.5L32.5 63.5L29.5 64.5L26 65.5L23.5 67L19 69.5L15.5 72.5L11.5 77.5L10 79.5L8.5 82L6 87L5 89.5L4.5 92.5L1 106.5L0 121V128L0.5 134.5L2 147L4.5 158L6.5 164L9 169.5L11.5 174L15 178L20.5 183L28.5 186.5L33.5 187H38.5H57.5L58 160.5L58.5 153L60 146.5L63 140.5L66.5 135.5L72 130L79 125L86 122.5L90.625 121.5L94.75 121H157C174.673 121 189 106.673 189 89V54V32C189 14.3269 174.673 0 157 0Z" fill="#346E9F"/>
<path d="M98.0005 250H163C177.36 250 189 238.359 189 224V196L128 196V187.5L217.5 187.5L222.5 186.5L225.5 185.5L229 184.5L231.5 183L236 180.5L239.5 177.5L243.5 172.5L245 170.5L246.5 168L249 163L250 160.5L250.5 157.5L254 143.5L255 129V122L254.5 115.5L253 103L250.5 91.9999L248.5 85.9999L246 80.4999L243.5 75.9999L240 71.9999L234.5 66.9999L226.5 63.4999L221.5 62.9999H216.5H197.5L197 89.4999L196.5 96.9999L195 103.5L192 109.5L188.5 114.5L183 120L176 125L169 127.5L164.375 128.5L160.25 129L98.0005 129C80.3274 129 66.0005 143.327 66.0005 161L66.0005 196V218C66.0005 235.673 80.3274 250 98.0005 250Z" fill="#F7CC42"/>
<circle cx="162" cy="222.5" r="11.5" fill="white"/>
<circle cx="92.5" cy="27" r="11.5" fill="white"/>
</svg>
