<svg width="443" height="139" viewBox="0 0 443 139" fill="none" xmlns="http://www.w3.org/2000/svg">
    <path
        d="M206.5 21H236.655C246.04 21 254.231 22.9237 261.238 26.7809C268.234 30.6382 273.614 36.0006 277.369 42.8579C281.123 49.7253 283 57.5993 283 66.5C283 75.4007 281.123 83.2747 277.369 90.1421C273.614 97.0094 268.234 102.362 261.238 106.219C254.241 110.076 246.05 112 236.655 112H209V21H206.5ZM236.655 101.724C247.496 101.724 256.088 98.6341 262.452 92.4445C268.806 86.2549 271.988 77.6134 271.988 66.51C271.988 55.4066 268.806 46.7651 262.452 40.5755C256.098 34.3859 247.496 31.2961 236.655 31.2961H219.761V101.714H236.655V101.724Z"
        fill="#ffffff" stroke="#ffffff" stroke-width="5" />
    <path
        d="M299.46 111.7C295.72 109.83 292.83 107.26 290.79 103.98C288.75 100.71 287.73 96.99 287.73 92.82C287.73 85.93 290.32 80.56 295.51 76.69C300.69 72.82 307.24 70.89 315.15 70.89C319.06 70.89 322.69 71.32 326.05 72.17C329.41 73.02 331.98 74 333.77 75.1V71.15C333.77 66.3 332.07 62.41 328.67 59.48C325.27 56.55 320.97 55.08 315.79 55.08C312.13 55.08 308.78 55.87 305.71 57.44C302.65 59.01 300.23 61.2 298.44 64.01L290.28 57.89C292.83 53.98 296.34 50.92 300.8 48.71C305.26 46.5 310.22 45.39 315.66 45.39C324.5 45.39 331.45 47.71 336.51 52.34C341.57 56.98 344.1 63.29 344.1 71.28V112.47H333.76V103.16H333.25C331.38 106.31 328.57 108.98 324.83 111.19C321.09 113.4 316.88 114.51 312.2 114.51C307.45 114.51 303.2 113.57 299.46 111.7ZM323.43 102.14C326.57 100.27 329.08 97.76 330.95 94.62C332.82 91.48 333.76 88.03 333.76 84.29C331.72 82.93 329.21 81.82 326.24 80.97C323.26 80.12 320.12 79.69 316.8 79.69C310.85 79.69 306.36 80.92 303.35 83.39C300.33 85.86 298.82 89.05 298.82 92.95C298.82 96.52 300.18 99.41 302.9 101.62C305.62 103.83 309.06 104.94 313.23 104.94C316.89 104.94 320.29 104.01 323.43 102.14Z"
        fill="#ffffff" stroke="#ffffff" stroke-width="5" />
    <path
        d="M355.53 48.4499H365.86V58.7799H366.37C367.9 54.9499 370.49 51.9799 374.15 49.8499C377.8 47.7299 381.8 46.6599 386.14 46.6599C388.01 46.6599 389.58 46.7899 390.86 47.0399V58.1399C389.41 57.7999 387.46 57.6299 384.99 57.6299C379.46 57.6299 374.98 59.4599 371.54 63.1099C368.1 66.7699 366.37 71.5299 366.37 77.3899V113.48H355.53V48.4499ZM422.85 113.21C420.6 112.35 418.71 111.18 417.17 109.7C415.47 108.06 414.19 106.15 413.34 103.99C412.49 101.83 412.06 99.1899 412.06 96.0699V57.2499H400.71V47.4299H412.06V29.0699H422.9V47.4299H438.71V57.2499H422.9V93.4899C422.9 97.1399 423.58 99.8299 424.94 101.57C426.55 103.48 428.89 104.44 431.95 104.44C434.41 104.44 436.8 103.72 439.09 102.27V112.86C437.81 113.45 436.52 113.88 435.2 114.14C433.88 114.4 432.2 114.52 430.16 114.52C427.55 114.51 425.11 114.07 422.85 113.21Z"
        fill="#ffffff" stroke="#ffffff" stroke-width="5" />
    <path
        d="M31.6502 109.5L8.38016 86.23C5.62016 83.4 3.91016 79.4 3.91016 75.49C3.91016 73.68 4.93016 70.85 5.70016 69.23L27.1802 24.49L31.6502 109.5Z"
        fill="#01579B" />
    <path
        d="M111.3 28.96L88.0304 5.68997C86.0004 3.64997 81.7704 1.21997 78.1904 1.21997C75.1104 1.21997 72.0904 1.83997 70.1404 3.00997L27.1904 24.49L111.3 28.96Z"
        fill="#40C4FF" />
    <path d="M59.3905 137.24H115.77V113.08L73.7105 99.65L35.2305 113.08L59.3905 137.24Z" fill="#40C4FF" />
    <path
        d="M27.1797 96.97C27.1797 104.15 28.0797 105.91 31.6497 109.5L35.2297 113.08H115.77L76.3997 68.34L27.1797 24.49V96.97Z"
        fill="#29B6F6" />
    <path d="M98.7697 24.48H27.1797L115.77 113.07H139.93V57.59L111.29 28.95C107.27 24.92 103.7 24.48 98.7697 24.48Z"
        fill="#01579B" />
    <path opacity="0.2"
        d="M32.5503 110.39C28.9703 106.8 28.0803 103.26 28.0803 96.97V25.38L27.1903 24.49V96.97C27.1803 103.26 27.1803 105 32.5503 110.39L35.2303 113.07L32.5503 110.39Z"
        fill="white" />
    <path opacity="0.2" d="M139.04 56.7V112.18H114.88L115.77 113.08H139.93V57.59L139.04 56.7Z" fill="#263238" />
    <path opacity="0.2"
        d="M111.3 28.96C106.86 24.52 103.23 24.49 97.8804 24.49H27.1904L28.0804 25.38H97.8804C100.55 25.38 107.29 24.93 111.3 28.96Z"
        fill="white" />
    <path opacity="0.2"
        d="M139.04 56.7L111.3 28.96L88.0299 5.68997C85.9999 3.64997 81.7699 1.21997 78.1899 1.21997C75.1099 1.21997 72.0899 1.83997 70.1399 3.00997L27.1899 24.49L5.70992 69.23C4.93992 70.86 3.91992 73.69 3.91992 75.49C3.91992 79.4 5.63992 83.39 8.38992 86.23L29.8299 107.52C30.3399 108.15 30.9399 108.79 31.6499 109.5L32.5399 110.39L35.2199 113.07L58.4899 136.34L59.3799 137.23H114.86H115.75V113.07H139.91V113.01V57.59L139.04 56.7Z"
        fill="url(#paint0_radial)" />
    <defs>
        <radialGradient id="paint0_radial" cx="0" cy="0" r="1" gradientUnits="userSpaceOnUse"
            gradientTransform="translate(71.9149 69.2272) scale(68)">
            <stop stop-color="white" stop-opacity="0.1" />
            <stop offset="1" stop-color="white" stop-opacity="0" />
        </radialGradient>
    </defs>
</svg>