<svg width="439" height="137" viewBox="0 0 439 137" fill="none" xmlns="http://www.w3.org/2000/svg">
<path d="M203.5 20H233.655C243.04 20 251.231 21.9237 258.238 25.7809C265.234 29.6382 270.614 35.0006 274.369 41.8579C278.123 48.7253 280 56.5993 280 65.5C280 74.4007 278.123 82.2747 274.369 89.1421C270.614 96.0094 265.234 101.362 258.238 105.219C251.241 109.076 243.05 111 233.655 111H206V20H203.5ZM233.655 100.724C244.496 100.724 253.088 97.6341 259.452 91.4445C265.806 85.2549 268.988 76.6134 268.988 65.51C268.988 54.4066 265.806 45.7651 259.452 39.5755C253.098 33.3859 244.496 30.2961 233.655 30.2961H216.761V100.714H233.655V100.724Z" fill="white" stroke="white" stroke-width="5"/>
<path d="M296.46 110.7C292.72 108.83 289.83 106.26 287.79 102.98C285.75 99.71 284.73 95.99 284.73 91.82C284.73 84.93 287.32 79.56 292.51 75.69C297.69 71.82 304.24 69.89 312.15 69.89C316.06 69.89 319.69 70.32 323.05 71.17C326.41 72.02 328.98 73 330.77 74.1V70.15C330.77 65.3 329.07 61.41 325.67 58.48C322.27 55.55 317.97 54.08 312.79 54.08C309.13 54.08 305.78 54.87 302.71 56.44C299.65 58.01 297.23 60.2 295.44 63.01L287.28 56.89C289.83 52.98 293.34 49.92 297.8 47.71C302.26 45.5 307.22 44.39 312.66 44.39C321.5 44.39 328.45 46.71 333.51 51.34C338.57 55.98 341.1 62.29 341.1 70.28V111.47H330.76V102.16H330.25C328.38 105.31 325.57 107.98 321.83 110.19C318.09 112.4 313.88 113.51 309.2 113.51C304.45 113.51 300.2 112.57 296.46 110.7ZM320.43 101.14C323.57 99.27 326.08 96.76 327.95 93.62C329.82 90.48 330.76 87.03 330.76 83.29C328.72 81.93 326.21 80.82 323.24 79.97C320.26 79.12 317.12 78.69 313.8 78.69C307.85 78.69 303.36 79.92 300.35 82.39C297.33 84.86 295.82 88.05 295.82 91.95C295.82 95.52 297.18 98.41 299.9 100.62C302.62 102.83 306.06 103.94 310.23 103.94C313.89 103.94 317.29 103.01 320.43 101.14Z" fill="white" stroke="white" stroke-width="5"/>
<path d="M352.53 47.4499H362.86V57.7799H363.37C364.9 53.9499 367.49 50.9799 371.15 48.8499C374.8 46.7299 378.8 45.6599 383.14 45.6599C385.01 45.6599 386.58 45.7899 387.86 46.0399V57.1399C386.41 56.7999 384.46 56.6299 381.99 56.6299C376.46 56.6299 371.98 58.4599 368.54 62.1099C365.1 65.7699 363.37 70.5299 363.37 76.3899V112.48H352.53V47.4499ZM419.85 112.21C417.6 111.35 415.71 110.18 414.17 108.7C412.47 107.06 411.19 105.15 410.34 102.99C409.49 100.83 409.06 98.1899 409.06 95.0699V56.2499H397.71V46.4299H409.06V28.0699H419.9V46.4299H435.71V56.2499H419.9V92.4899C419.9 96.1399 420.58 98.8299 421.94 100.57C423.55 102.48 425.89 103.44 428.95 103.44C431.41 103.44 433.8 102.72 436.09 101.27V111.86C434.81 112.45 433.52 112.88 432.2 113.14C430.88 113.4 429.2 113.52 427.16 113.52C424.55 113.51 422.11 113.07 419.85 112.21Z" fill="white" stroke="white" stroke-width="5"/>
<path d="M28.6502 108.5L5.38016 85.23C2.62016 82.4 0.910156 78.4 0.910156 74.49C0.910156 72.68 1.93016 69.85 2.70016 68.23L24.1802 23.49L28.6502 108.5Z" fill="#01579B"/>
<path d="M108.3 27.96L85.0304 4.68997C83.0004 2.64997 78.7704 0.219971 75.1904 0.219971C72.1104 0.219971 69.0904 0.839971 67.1404 2.00997L24.1904 23.49L108.3 27.96Z" fill="#40C4FF"/>
<path d="M56.3905 136.24H112.77V112.08L70.7105 98.65L32.2305 112.08L56.3905 136.24Z" fill="#40C4FF"/>
<path d="M24.1797 95.97C24.1797 103.15 25.0797 104.91 28.6497 108.5L32.2297 112.08H112.77L73.3997 67.34L24.1797 23.49V95.97Z" fill="#29B6F6"/>
<path d="M95.7697 23.48H24.1797L112.77 112.07H136.93V56.59L108.29 27.95C104.27 23.92 100.7 23.48 95.7697 23.48Z" fill="#01579B"/>
<path opacity="0.2" d="M29.5503 109.39C25.9703 105.8 25.0803 102.26 25.0803 95.97V24.38L24.1903 23.49V95.97C24.1803 102.26 24.1803 104 29.5503 109.39L32.2303 112.07L29.5503 109.39Z" fill="white"/>
<path opacity="0.2" d="M136.04 55.7V111.18H111.88L112.77 112.08H136.93V56.59L136.04 55.7Z" fill="#263238"/>
<path opacity="0.2" d="M108.3 27.96C103.86 23.52 100.23 23.49 94.8804 23.49H24.1904L25.0804 24.38H94.8804C97.5504 24.38 104.29 23.93 108.3 27.96Z" fill="white"/>
<path opacity="0.2" d="M136.04 55.7L108.3 27.96L85.0299 4.68997C82.9999 2.64997 78.7699 0.219971 75.1899 0.219971C72.1099 0.219971 69.0899 0.839971 67.1399 2.00997L24.1899 23.49L2.70992 68.23C1.93992 69.86 0.919922 72.69 0.919922 74.49C0.919922 78.4 2.63992 82.39 5.38992 85.23L26.8299 106.52C27.3399 107.15 27.9399 107.79 28.6499 108.5L29.5399 109.39L32.2199 112.07L55.4899 135.34L56.3799 136.23H111.86H112.75V112.07H136.91V112.01V56.59L136.04 55.7Z" fill="url(#paint0_radial)"/>
<defs>
<radialGradient id="paint0_radial" cx="0" cy="0" r="1" gradientUnits="userSpaceOnUse" gradientTransform="translate(68.9149 68.2272) scale(68)">
<stop stop-color="white" stop-opacity="0.1"/>
<stop offset="1" stop-color="white" stop-opacity="0"/>
</radialGradient>
</defs>
</svg>
