<svg width="500" height="300" viewBox="0 0 500 300" fill="none" xmlns="http://www.w3.org/2000/svg">
<rect width="500" height="300" rx="10" fill="white"/>
<path d="M218.59 101.78H248.744C258.13 101.78 266.321 103.704 273.327 107.561C280.324 111.418 285.704 116.781 289.459 123.638C293.213 130.505 295.09 138.379 295.09 147.28C295.09 156.181 293.213 164.055 289.459 170.922C285.704 177.789 280.324 183.142 273.327 186.999C266.331 190.856 258.14 192.78 248.744 192.78H221.09V101.78H218.59ZM248.744 182.504C259.585 182.504 268.178 179.414 274.542 173.225C280.896 167.035 284.078 158.393 284.078 147.29C284.078 136.187 280.896 127.545 274.542 121.355C268.188 115.166 259.585 112.076 248.744 112.076H231.851V182.494H248.744V182.504Z" fill="black" stroke="black" stroke-width="5"/>
<path d="M311.55 192.48C307.81 190.61 304.92 188.04 302.88 184.76C300.84 181.49 299.82 177.77 299.82 173.6C299.82 166.71 302.41 161.34 307.6 157.47C312.78 153.6 319.33 151.67 327.24 151.67C331.15 151.67 334.78 152.1 338.14 152.95C341.5 153.8 344.07 154.78 345.86 155.88V151.93C345.86 147.08 344.16 143.19 340.76 140.26C337.36 137.33 333.06 135.86 327.88 135.86C324.22 135.86 320.87 136.65 317.8 138.22C314.74 139.79 312.32 141.98 310.53 144.79L302.37 138.67C304.92 134.76 308.43 131.7 312.89 129.49C317.35 127.28 322.31 126.17 327.75 126.17C336.59 126.17 343.54 128.49 348.6 133.12C353.66 137.76 356.19 144.07 356.19 152.06V193.25H345.85V183.94H345.34C343.47 187.09 340.66 189.76 336.92 191.97C333.18 194.18 328.97 195.29 324.29 195.29C319.54 195.29 315.29 194.35 311.55 192.48ZM335.52 182.92C338.66 181.05 341.17 178.54 343.04 175.4C344.91 172.26 345.85 168.81 345.85 165.07C343.81 163.71 341.3 162.6 338.33 161.75C335.35 160.9 332.21 160.47 328.89 160.47C322.94 160.47 318.45 161.7 315.44 164.17C312.42 166.64 310.91 169.83 310.91 173.73C310.91 177.3 312.27 180.19 314.99 182.4C317.71 184.61 321.15 185.72 325.32 185.72C328.98 185.72 332.38 184.79 335.52 182.92Z" fill="black" stroke="black" stroke-width="5"/>
<path d="M367.62 129.23H377.95V139.56H378.46C379.99 135.73 382.58 132.76 386.24 130.63C389.89 128.51 393.89 127.44 398.23 127.44C400.1 127.44 401.67 127.57 402.95 127.82V138.92C401.5 138.58 399.55 138.41 397.08 138.41C391.55 138.41 387.07 140.24 383.63 143.89C380.19 147.55 378.46 152.31 378.46 158.17V194.26H367.62V129.23ZM434.94 193.99C432.69 193.13 430.8 191.96 429.26 190.48C427.56 188.84 426.28 186.93 425.43 184.77C424.58 182.61 424.15 179.97 424.15 176.85V138.03H412.8V128.21H424.15V109.85H434.99V128.21H450.8V138.03H434.99V174.27C434.99 177.92 435.67 180.61 437.03 182.35C438.64 184.26 440.98 185.22 444.04 185.22C446.5 185.22 448.89 184.5 451.18 183.05V193.64C449.9 194.23 448.61 194.66 447.29 194.92C445.97 195.18 444.29 195.3 442.25 195.3C439.64 195.29 437.2 194.85 434.94 193.99Z" fill="black" stroke="black" stroke-width="5"/>
<path d="M76.74 190.28L53.47 167.01C50.71 164.18 49 160.18 49 156.27C49 154.46 50.02 151.63 50.79 150.01L72.27 105.27L76.74 190.28Z" fill="#01579B"/>
<path d="M156.39 109.74L133.12 86.47C131.09 84.43 126.86 82 123.28 82C120.2 82 117.18 82.62 115.23 83.79L72.2803 105.27L156.39 109.74Z" fill="#40C4FF"/>
<path d="M104.48 218.02H160.86V193.86L118.8 180.43L80.3203 193.86L104.48 218.02Z" fill="#40C4FF"/>
<path d="M72.2695 177.75C72.2695 184.93 73.1695 186.69 76.7395 190.28L80.3195 193.86H160.86L121.49 149.12L72.2695 105.27V177.75Z" fill="#29B6F6"/>
<path d="M143.86 105.26H72.2695L160.86 193.85H185.02V138.37L156.38 109.73C152.36 105.7 148.79 105.26 143.86 105.26Z" fill="#01579B"/>
<path opacity="0.2" d="M77.6401 191.17C74.0601 187.58 73.1701 184.04 73.1701 177.75V106.16L72.2801 105.27V177.75C72.2701 184.04 72.2701 185.78 77.6401 191.17L80.3201 193.85L77.6401 191.17Z" fill="white"/>
<path opacity="0.2" d="M184.13 137.48V192.96H159.97L160.86 193.86H185.02V138.37L184.13 137.48Z" fill="#263238"/>
<path opacity="0.2" d="M156.39 109.74C151.95 105.3 148.32 105.27 142.97 105.27H72.2803L73.1703 106.16H142.97C145.64 106.16 152.38 105.71 156.39 109.74Z" fill="white"/>
<path opacity="0.2" d="M185.13 137.48L157.39 109.74L134.12 86.47C132.09 84.43 127.86 82 124.28 82C121.2 82 118.18 82.62 116.23 83.79L73.2798 105.27L51.7998 150.01C51.0298 151.64 50.0098 154.47 50.0098 156.27C50.0098 160.18 51.7298 164.17 54.4798 167.01L75.9198 188.3C76.4298 188.93 77.0298 189.57 77.7398 190.28L78.6298 191.17L81.3098 193.85L104.58 217.12L105.47 218.01H160.95H161.84V193.85H186V193.79V138.37L185.13 137.48Z" fill="url(#paint0_radial)"/>
<defs>
<radialGradient id="paint0_radial" cx="0" cy="0" r="1" gradientUnits="userSpaceOnUse" gradientTransform="translate(118.005 150.007) scale(68)">
<stop stop-color="white" stop-opacity="0.1"/>
<stop offset="1" stop-color="white" stop-opacity="0"/>
</radialGradient>
</defs>
</svg>
