<svg width="450" height="534" viewBox="0 0 450 534" fill="none" xmlns="http://www.w3.org/2000/svg">
    <path
        d="M440.204 415.962C432.138 434.595 422.591 451.747 411.53 467.516C396.452 489.013 384.106 503.893 374.593 512.157C359.844 525.72 344.042 532.667 327.121 533.062C314.973 533.062 300.323 529.605 283.27 522.593C266.161 515.614 250.438 512.157 236.062 512.157C220.984 512.157 204.813 515.614 187.517 522.593C170.194 529.605 156.238 533.259 145.569 533.621C129.342 534.313 113.168 527.168 97.024 512.157C86.7194 503.169 73.8312 487.762 58.3909 465.936C41.8253 442.628 28.2062 415.6 17.5364 384.786C6.10957 351.504 0.381348 319.274 0.381348 288.072C0.381348 252.329 8.10464 221.502 23.5741 195.669C35.7318 174.92 51.9057 158.551 72.1488 146.535C92.3915 134.519 114.264 128.396 137.819 128.004C150.708 128.004 167.609 131.991 188.613 139.826C209.557 147.688 223.005 151.674 228.901 151.674C233.309 151.674 248.249 147.012 273.575 137.719C297.525 129.1 317.738 125.531 334.297 126.937C379.168 130.559 412.879 148.247 435.298 180.115C395.168 204.43 375.316 238.486 375.712 282.175C376.074 316.206 388.419 344.524 412.682 367.009C423.677 377.445 435.957 385.511 449.619 391.239C446.656 399.831 443.528 408.062 440.204 415.962V415.962ZM337.293 11.0032C337.293 37.6757 327.548 62.5801 308.125 85.6314C284.686 113.035 256.334 128.87 225.589 126.371C225.178 123.018 224.971 119.642 224.97 116.264C224.97 90.6583 236.117 63.2549 255.913 40.8491C265.796 29.5045 278.365 20.0719 293.607 12.5472C308.817 5.13476 323.203 1.03547 336.734 0.333313C337.129 3.89891 337.293 7.46496 337.293 11.0027V11.0032Z"
        fill="black" />
</svg>