<svg width="456" height="528" viewBox="0 0 456 528" fill="none" xmlns="http://www.w3.org/2000/svg">
    <path
        d="M329.34 182.321C335.048 194.752 341.422 206.872 347.085 219.326C357.983 243.292 366.261 268.599 369.699 294.7C373.139 320.804 371.636 347.752 363.469 372.782C354.249 401.031 336.749 426.165 315.306 446.736C289.939 471.072 257.377 489.836 222.251 491.217C199.364 492.12 176.578 485.577 156.31 474.908C139.275 465.944 123.726 453.997 111.32 439.281C98.912 424.564 89.7001 407.041 85.4343 388.272C80.1814 365.157 82.5572 340.619 90.5084 318.289C96.1943 302.32 104.622 287.454 110.622 271.599C117.18 254.276 120.841 235.779 129.528 219.421C137.402 204.588 149.211 191.917 155.484 176.342C159.231 167.037 160.856 157.045 163.276 147.313C165.695 137.578 169.083 127.772 175.672 120.212C183.61 111.1 195.559 106.159 207.564 104.774C219.571 103.389 231.721 105.26 243.505 107.946C252.891 110.073 262.144 112.751 271.216 115.965C278.953 118.718 286.62 121.923 293.311 126.685C302.426 133.172 309.371 142.307 314.903 152.032C320.435 161.758 324.669 172.153 329.34 182.321V182.321Z"
        fill="#020204" />
    <path
        d="M228.544 491.437C238.189 491.998 247.814 492.934 257.368 494.377C265.77 495.646 274.112 497.305 282.37 499.307C295.304 502.44 308.193 506.438 321.495 506.818C324.998 506.918 328.526 506.762 331.945 506C335.366 505.239 338.683 503.852 341.421 501.667C345.507 498.411 348.102 493.5 349.062 488.365C350.021 483.231 349.427 477.887 347.923 472.885C344.916 462.881 338.472 454.344 333.132 445.365C330.072 440.224 327.346 434.88 324.032 429.901C320.72 424.92 316.756 420.254 311.726 417.014C304.77 412.529 296.144 411.067 287.907 411.888C279.672 412.708 271.777 415.683 264.427 419.49C254.125 424.823 244.427 432.149 238.808 442.299C236.853 445.831 235.433 449.627 233.772 453.309C232.112 456.991 230.167 460.614 227.355 463.51C224.217 466.738 220.146 468.917 216.9 472.036C215.277 473.597 213.856 475.411 213.025 477.503C212.193 479.595 211.987 481.985 212.747 484.104C213.267 485.558 214.221 486.836 215.394 487.839C216.569 488.838 217.959 489.571 219.416 490.083C222.327 491.107 225.463 491.258 228.544 491.437V491.437Z"
        fill="#020204" />
    <path
        d="M199.881 490.816C191.844 491.002 183.891 492.44 176.019 494.067C168.491 495.615 161.005 497.363 153.569 499.307C141.026 502.6 128.466 506.541 115.502 506.818C112.09 506.89 108.653 506.704 105.327 505.935C102.003 505.165 98.7822 503.796 96.1137 501.667C92.0373 498.417 89.4459 493.514 88.4868 488.391C87.526 483.266 88.1134 477.934 89.6002 472.938C92.5755 462.944 98.9558 454.389 104.181 445.365C107.149 440.238 109.768 434.905 112.979 429.924C116.187 424.944 120.055 420.268 125.006 417.014C131.753 412.578 140.167 411.074 148.203 411.867C156.24 412.659 163.938 415.619 171.027 419.49C181.031 424.955 190.166 432.475 195.952 442.299C200.011 449.189 202.352 457.068 207.096 463.51C209.649 466.976 212.863 469.973 214.986 473.718C216.05 475.592 216.827 477.656 217.009 479.802C217.191 481.946 216.744 484.18 215.536 485.963C214.739 487.143 213.631 488.097 212.393 488.801C211.155 489.506 209.787 489.966 208.395 490.257C205.606 490.84 202.728 490.751 199.881 490.818V490.816ZM154.972 156.135C153.843 142.547 154.113 128.884 153.604 115.257C153.119 102.155 151.911 89.0592 152.353 75.955C152.801 62.6124 155.035 49.1137 160.968 37.1544C166.903 25.1864 176.536 15.047 188.294 8.7106C199.357 2.74938 212.079 0.20183 224.647 0.338588C241.687 0.524438 258.773 5.67213 272.571 15.6695C281.22 21.9358 288.5 30.0097 294.239 39.0164C299.137 46.7047 302.942 55.1012 305.328 63.8975C310.225 81.939 309.064 100.976 310.017 119.647C310.919 137.34 313.751 154.994 312.79 172.685C312.58 176.526 312.164 180.459 310.451 183.904C308.784 187.262 305.949 189.962 302.695 191.824C299.439 193.684 295.774 194.743 292.068 195.315C284.657 196.459 277.079 195.704 269.612 196.396C258.776 197.401 248.442 201.42 237.688 203.083C224.871 205.065 211.814 203.658 198.855 203.141C193.666 202.934 188.46 202.869 183.307 202.224C178.152 201.577 173.015 200.329 168.432 197.887C165.608 196.381 163.009 194.424 160.9 192.013C158.793 189.606 157.185 186.739 156.383 183.639C155.177 178.988 155.814 174.091 155.829 169.287C155.847 164.891 155.337 160.515 154.972 156.137V156.135Z"
        fill="#020204" />
    <path
        d="M175.365 150.902C173.531 153.2 172.337 155.963 171.614 158.816C170.892 161.667 170.629 164.616 170.515 167.554C170.29 173.433 170.65 179.424 169.095 185.098C167.429 191.164 163.702 196.419 160.051 201.541C153.731 210.412 147.341 219.512 144.224 229.947C142.333 236.289 141.708 242.94 142.385 249.523C135.306 259.921 129.189 270.942 124.11 282.45C116.42 299.881 111.143 318.44 109.288 337.402C107.016 360.619 109.986 384.499 119.154 405.949C125.785 421.459 135.666 435.657 148.409 446.708C154.895 452.338 162.078 457.11 169.782 460.905C196.453 474.014 229.417 474.039 255.646 460.063C269.354 452.759 280.924 442.078 292.08 431.269C298.799 424.76 305.482 418.098 310.607 410.273C320.473 395.208 323.909 376.897 326.045 359.017C329.78 327.748 329.901 294.723 316.19 266.374C311.457 256.596 305.195 247.635 297.64 239.829C295.624 226.165 291.673 212.857 285.905 200.306C281.75 191.268 276.669 182.664 272.808 173.496C271.221 169.732 269.845 165.878 268.084 162.193C266.324 158.507 264.155 154.961 261.203 152.136C258.182 149.245 254.417 147.195 250.446 145.884C246.475 144.572 242.293 143.978 238.117 143.767C229.762 143.347 221.392 144.441 213.036 144.109C206.382 143.845 199.749 142.679 193.101 143.071C189.778 143.268 186.456 143.86 183.37 145.114C180.284 146.366 177.442 148.3 175.365 150.902V150.902Z"
        fill="#FDFDFB" />
    <g filter="url(#filter0_f)">
        <path
            d="M171.269 182.088C174.253 190.745 180.264 198.134 187.373 203.906C189.738 205.826 192.253 207.595 195.03 208.845C197.807 210.093 200.87 210.808 203.905 210.549C206.877 210.296 209.703 209.131 212.302 207.665C214.896 206.197 217.309 204.426 219.829 202.829C224.145 200.094 228.77 197.883 233.254 195.43C238.657 192.472 243.896 189.136 248.446 184.981C250.527 183.08 252.47 181.004 254.77 179.372C257.07 177.741 259.825 176.558 262.639 176.749C264.75 176.893 266.729 177.79 268.796 178.236C269.831 178.458 270.902 178.567 271.949 178.407C272.994 178.25 274.018 177.804 274.749 177.04C275.648 176.107 276.041 174.762 275.994 173.467C275.946 172.173 275.496 170.919 274.891 169.772C273.683 167.479 271.851 165.503 271.034 163.043C270.308 160.853 270.455 158.486 270.518 156.181C270.583 153.875 270.532 151.464 269.468 149.418C268.66 147.858 267.301 146.622 265.749 145.8C264.196 144.979 262.455 144.555 260.707 144.392C257.209 144.062 253.704 144.742 250.196 144.94C245.539 145.203 240.865 144.621 236.21 144.902C230.404 145.251 224.713 146.936 218.898 146.946C212.26 146.958 205.629 144.786 199.071 145.824C196.259 146.269 193.575 147.293 190.873 148.196C188.173 149.097 185.381 149.892 182.532 149.85C179.299 149.804 176.17 148.684 172.943 148.454C171.33 148.338 169.679 148.454 168.164 149.02C166.651 149.587 165.282 150.64 164.538 152.076C164.122 152.907 163.891 153.819 163.861 154.748C163.821 155.674 163.949 156.602 164.173 157.501C164.621 159.3 165.443 160.978 166.12 162.703C168.56 168.934 169.086 175.762 171.269 182.088V182.088Z"
            fill="black" fill-opacity="0.259" />
    </g>
    <g opacity="0.3" filter="url(#filter1_f)">
        <path
            d="M162.944 157.408C168.755 161 173.939 165.384 178.319 170.41C182.374 175.068 185.823 180.349 191.116 183.797C194.854 186.232 199.348 187.605 203.905 188.022C209.254 188.511 214.67 187.72 219.828 186.323C224.608 185.027 229.231 183.206 233.473 180.796C241.534 176.216 248.269 169.504 257.16 166.492C259.101 165.835 261.122 165.365 262.991 164.555C264.864 163.744 266.624 162.529 267.516 160.811C268.376 159.161 268.342 157.255 268.623 155.443C268.921 153.503 269.594 151.628 269.962 149.698C270.331 147.769 270.374 145.706 269.468 143.933C268.719 142.467 267.355 141.305 265.786 140.567C264.219 139.829 262.455 139.493 260.694 139.414C257.177 139.256 253.704 140.085 250.196 140.38C245.549 140.769 240.872 140.219 236.21 140.348C230.41 140.509 224.694 141.721 218.897 141.972C212.284 142.26 205.688 141.297 199.071 141.081C196.21 140.987 193.329 141.036 190.508 141.49C187.687 141.943 184.918 142.817 182.532 144.277C180.218 145.693 178.331 147.615 176.21 149.267C175.149 150.094 174.022 150.86 172.784 151.439C171.546 152.021 170.191 152.416 168.804 152.478C168.088 152.51 167.368 152.454 166.661 152.554C166.068 152.641 165.499 152.837 164.988 153.129C164.476 153.421 164.033 153.803 163.684 154.254C163.34 154.708 163.098 155.221 162.97 155.762C162.843 156.303 162.833 156.862 162.943 157.407L162.944 157.408Z"
            fill="black" />
    </g>
    <path
        d="M178.044 78.2237C174.923 78.3938 171.935 79.8368 169.651 81.9706C167.364 84.1061 165.755 86.9008 164.764 89.8657C162.783 95.7988 163.23 102.23 163.681 108.468C164.087 114.117 164.505 119.875 166.619 125.128C167.678 127.755 169.162 130.23 171.143 132.253C173.124 134.275 175.619 135.834 178.366 136.521C180.94 137.166 183.691 137.033 186.225 136.237C188.758 135.441 191.071 133.995 192.968 132.138C195.738 129.429 197.602 125.885 198.673 122.161C199.743 118.439 200.048 114.535 199.992 110.66C199.921 105.814 199.29 100.95 197.772 96.3459C196.255 91.7417 193.836 87.3988 190.455 83.922C188.82 82.2388 186.954 80.7573 184.848 79.7193C182.743 78.6796 180.388 78.0958 178.046 78.2237H178.044Z"
        fill="url(#paint0_radial)" />
    <path
        d="M233.304 78.2238C228.43 81.5726 224.345 86.2451 222.346 91.8118C219.828 98.8286 220.793 106.68 223.223 113.728C225.712 120.946 229.875 127.826 236.162 132.161C239.304 134.326 242.942 135.813 246.734 136.26C250.525 136.709 254.465 136.093 257.85 134.331C261.976 132.18 265.123 128.416 267.076 124.194C269.031 119.972 269.862 115.304 270.123 110.66C270.457 104.742 269.878 98.7269 267.932 93.1268C265.819 87.0446 261.988 81.4323 256.583 77.9327C253.881 76.1829 250.811 74.9802 247.623 74.5383C244.432 74.0982 241.127 74.4279 238.126 75.5938C236.416 76.2601 234.817 77.1858 233.304 78.2238V78.2238Z"
        fill="url(#paint1_radial)" />
    <g opacity="0.3" filter="url(#filter2_f)">
        <path
            d="M177.006 128.705C173.872 131.296 170.866 134.037 167.999 136.919C166.416 138.513 164.827 140.222 164.117 142.354C163.486 144.248 163.605 146.304 163.295 148.279C163.19 148.954 163.032 149.627 163.028 150.313C163.028 150.654 163.063 150.996 163.165 151.324C163.265 151.652 163.43 151.962 163.665 152.211C164.054 152.629 164.608 152.853 165.166 152.967C165.723 153.081 166.296 153.093 166.863 153.155C169.416 153.432 171.769 154.669 173.883 156.126C175.996 157.585 177.94 159.282 180.107 160.661C184.897 163.701 190.617 165.051 196.285 165.268C201.953 165.484 207.608 164.618 213.169 163.506C217.588 162.622 221.995 161.576 226.189 159.922C232.61 157.392 238.398 153.493 243.929 149.364C246.442 147.488 248.919 145.554 251.174 143.376C251.94 142.637 252.682 141.869 253.502 141.192C254.323 140.515 255.234 139.928 256.248 139.602C257.791 139.104 259.465 139.247 261.066 139.514C262.27 139.716 263.478 139.987 264.699 139.938C265.311 139.921 265.916 139.8 266.487 139.581C267.055 139.353 267.578 139.002 267.967 138.529C268.472 137.895 268.745 137.108 268.74 136.298C268.732 135.491 268.508 134.701 268.091 134.01C267.274 132.625 265.865 131.691 264.399 131.038C262.39 130.144 260.216 129.704 258.078 129.187C251.507 127.592 245.134 125.267 239.08 122.254C236.071 120.762 233.146 119.107 230.187 117.52C227.145 115.89 224.043 114.322 220.738 113.321C213.352 111.082 205.278 111.815 197.986 114.349C189.843 117.19 182.602 122.145 177.004 128.705H177.006Z"
            fill="black" />
    </g>
    <path
        d="M192.715 119.426C195.815 115.944 197.935 111.694 200.912 108.105C202.401 106.312 204.117 104.678 206.139 103.519C208.162 102.358 210.508 101.692 212.831 101.893C215.415 102.118 217.837 103.405 219.728 105.181C221.622 106.955 223.025 109.196 224.145 111.537C225.216 113.777 226.068 116.165 227.615 118.111C229.263 120.187 231.577 121.604 233.664 123.236C234.71 124.052 235.712 124.937 236.539 125.971C237.363 127.009 238.01 128.21 238.275 129.508C238.533 130.837 238.421 132.213 237.95 133.483C237.477 134.749 236.722 135.89 235.741 136.821C233.804 138.688 231.16 139.696 228.495 140.073C223.165 140.827 217.774 139.239 212.391 139.386C206.945 139.537 201.624 141.462 196.178 141.262C193.455 141.164 190.694 140.498 188.457 138.942C187.329 138.17 186.375 137.17 185.658 136.006C184.943 134.838 184.537 133.506 184.478 132.138C184.434 130.84 184.738 129.543 185.257 128.351C185.776 127.158 186.507 126.068 187.329 125.061C188.976 123.05 190.988 121.369 192.717 119.426H192.715Z"
        fill="url(#paint2_radial)" />
    <g filter="url(#filter3_f)">
        <path
            d="M253.452 22.9708C248.959 26.1425 250.923 30.102 252.854 34.0757C254.787 38.0514 248.603 49.5098 248.539 50.0047C248.474 50.4977 260.71 44.1947 264.046 40.1019C267.985 35.2656 277.938 46.6432 277.395 44.9119C277.399 41.815 257.947 19.7991 253.452 22.9708Z"
            fill="#7C7C7C" />
    </g>
    <path
        d="M244.545 92.9427C242.705 93.09 240.929 93.686 239.372 94.6785C237.819 95.6728 236.484 96.9726 235.448 98.4989C233.367 101.529 232.452 105.244 232.305 108.915C232.194 111.673 232.499 114.464 233.415 117.068C234.328 119.672 235.869 122.081 237.994 123.841C240.19 125.653 242.91 126.71 245.753 126.857C248.597 126.988 251.406 126.184 253.749 124.567C255.596 123.282 257.084 121.513 258.145 119.53C259.204 117.545 259.844 115.35 260.135 113.12C260.65 109.182 260.068 105.067 258.247 101.536C256.427 98.0045 253.337 95.0975 249.608 93.7229C247.995 93.1286 246.261 92.82 244.545 92.9427V92.9427Z"
        fill="#020204" />
    <g filter="url(#filter4_f)">
        <path
            d="M248.919 104.962C247.401 105.561 244.999 105.184 244.333 106.675C243.938 107.556 244.496 109.01 245.39 109.375C247.201 110.113 250.004 108.779 250.737 106.964C251.053 106.177 250.573 104.93 249.791 104.6C249.5 104.478 249.212 104.846 248.919 104.962V104.962Z"
            fill="#141413" />
    </g>
    <g filter="url(#filter5_f)">
        <path
            d="M255.878 108.907C257.913 106.873 254.43 101.473 251.714 99.2633C249.747 97.6626 244.017 95.9882 244.262 97.7292C244.508 99.472 247.085 101.704 248.812 103.406C250.937 105.502 254.912 109.874 255.878 108.907Z"
            fill="url(#paint3_linear)" />
    </g>
    <g filter="url(#filter6_f)">
        <path
            d="M177.691 67.2112C177.267 67.2025 176.855 67.241 176.432 67.2621C176.159 67.2744 175.88 67.2849 175.608 67.3112C178.09 67.5443 180.515 68.1847 182.788 69.2065C185.835 70.5758 188.527 72.5255 190.895 74.7452C195.286 78.8567 198.55 83.9325 200.758 89.3151C200.218 85.2471 198.996 81.2993 197.142 77.6381C196.281 76.6262 195.366 75.6605 194.402 74.7452C192.035 72.5255 189.342 70.5758 186.295 69.2065C183.626 68.009 180.66 67.2638 177.691 67.2112Z"
            fill="url(#paint4_linear)" />
    </g>
    <path
        d="M170.515 104.083C169.864 108.021 169.84 112.152 171.193 115.907C172.088 118.387 173.56 120.636 175.352 122.57C176.527 123.834 177.858 124.984 179.413 125.729C180.97 126.476 182.772 126.794 184.445 126.373C185.991 125.985 187.341 124.99 188.337 123.748C189.337 122.505 189.999 121.025 190.473 119.505C191.872 115.015 191.648 110.104 190.259 105.61C189.247 102.337 187.573 99.1792 184.952 96.9736C183.702 95.9198 182.239 95.094 180.647 94.7171C179.057 94.3383 177.337 94.4278 175.848 95.1028C174.197 95.8549 172.917 97.2839 172.079 98.8934C171.243 100.503 170.813 102.295 170.517 104.083H170.515Z"
        fill="#020204" />
    <g filter="url(#filter7_f)">
        <path
            d="M178.843 101.236C179.266 102.347 180.691 102.751 181.473 103.647C182.232 104.518 183.028 105.417 183.446 106.496C184.242 108.558 182.657 111.615 184.322 113.071C184.843 113.527 185.89 113.539 186.404 113.071C188.411 111.244 187.964 107.558 187.171 104.962C186.449 102.605 184.668 100.375 182.473 99.2546C181.457 98.7374 179.93 98.3078 179.062 99.0442C178.501 99.5194 178.58 100.55 178.843 101.236Z"
            fill="url(#paint5_linear)" />
    </g>
    <path
        d="M163.176 153.037C163.283 153.554 163.477 154.054 163.749 154.51C164.214 155.288 164.896 155.921 165.63 156.456C166.367 156.993 167.161 157.438 167.931 157.922C172.023 160.494 175.356 164.109 178.319 167.928C182.292 173.051 185.809 178.737 191.116 182.461C194.865 185.091 199.35 186.59 203.905 187.048C209.254 187.584 214.67 186.722 219.828 185.203C224.608 183.795 229.231 181.819 233.473 179.203C241.534 174.233 248.271 166.944 257.16 163.674C259.101 162.961 261.122 162.451 262.991 161.57C264.864 160.69 266.624 159.372 267.517 157.506C268.376 155.714 268.342 153.646 268.623 151.678C268.921 149.573 269.594 147.537 269.962 145.442C270.331 143.347 270.374 141.108 269.468 139.183C268.719 137.591 267.355 136.328 265.786 135.529C264.219 134.727 262.455 134.363 260.694 134.277C257.177 134.103 253.704 135.004 250.196 135.325C245.549 135.75 240.872 135.153 236.21 135.29C230.41 135.466 224.694 136.772 218.897 137.054C212.284 137.375 205.686 136.354 199.071 136.086C196.206 135.97 193.32 135.999 190.494 136.482C187.668 136.966 184.892 137.925 182.534 139.556C180.234 141.143 178.401 143.308 176.292 145.139C175.235 146.052 174.101 146.89 172.843 147.5C171.586 148.11 170.2 148.489 168.804 148.459C168.085 148.443 167.347 148.324 166.661 148.542C166.235 148.678 165.855 148.94 165.534 149.254C165.22 149.575 164.939 149.927 164.696 150.305C164.113 151.171 163.604 152.085 163.176 153.037V153.037Z"
        fill="url(#paint6_radial)" />
    <g filter="url(#filter8_f)">
        <path
            d="M189.133 160.164C188.46 162.996 188.862 165.977 190.261 168.529C191.682 171.07 193.995 172.992 196.753 173.924C200.219 175.08 204.128 174.513 207.368 172.823C209.247 171.841 210.965 170.463 212.049 168.642C212.598 167.732 212.958 166.721 213.108 165.67C213.256 164.615 213.145 163.54 212.784 162.538C212.365 161.449 211.673 160.485 210.774 159.74C209.876 158.999 208.845 158.437 207.736 158.083C205.53 157.354 203.158 157.34 200.838 157.452C197.32 157.62 193.821 158.061 190.371 158.77"
            fill="#D9B30D" />
    </g>
    <g filter="url(#filter9_f)">
        <path
            d="M177.753 138.394C175.405 139.78 173.145 141.311 170.92 142.887C169.768 143.704 168.581 144.586 167.974 145.861C167.543 146.764 167.443 147.788 167.431 148.789C167.417 149.788 167.48 150.793 167.348 151.785C167.261 152.462 167.078 153.128 167.049 153.81C167.033 154.152 167.057 154.498 167.147 154.827C167.233 155.159 167.398 155.465 167.629 155.718C167.932 156.041 168.344 156.237 168.769 156.367C169.189 156.495 169.628 156.56 170.057 156.661C172.116 157.147 173.909 158.409 175.482 159.824C177.055 161.239 178.468 162.831 180.109 164.167C184.557 167.786 190.436 169.283 196.169 169.378C201.904 169.473 207.574 168.273 213.169 167.011C217.563 166.022 221.962 164.988 226.189 163.429C232.68 161.036 238.708 157.412 243.929 152.871C246.296 150.812 248.518 148.552 251.174 146.883C253.525 145.407 256.158 144.432 258.55 143.021C258.762 142.894 258.976 142.765 259.167 142.607C259.362 142.451 259.522 142.257 259.639 142.037C259.819 141.642 259.843 141.194 259.707 140.782C259.57 140.374 259.356 139.996 259.076 139.67C258.775 139.302 258.44 138.963 258.077 138.657C255.58 136.519 252.192 135.743 248.916 135.483C245.637 135.224 242.323 135.406 239.08 134.864C236.031 134.356 233.131 133.22 230.187 132.275C227.099 131.276 223.94 130.508 220.738 129.978C213.208 128.749 205.455 128.984 197.986 130.539C190.857 132.031 184.021 134.685 177.753 138.394V138.394Z"
            fill="#604405" />
    </g>
    <path
        d="M177.006 130.458C173.617 132.74 170.582 135.507 167.999 138.672C166.526 140.48 165.188 142.444 164.445 144.655C163.861 146.394 163.663 148.235 163.295 150.032C163.156 150.705 162.995 151.38 162.997 152.066C162.999 152.411 163.042 152.757 163.149 153.083C163.255 153.409 163.426 153.717 163.665 153.965C164.058 154.375 164.612 154.598 165.169 154.713C165.727 154.827 166.298 154.845 166.863 154.908C169.414 155.199 171.762 156.437 173.876 157.894C175.991 159.349 177.938 161.041 180.109 162.414C184.903 165.445 190.618 166.794 196.287 167.011C201.953 167.23 207.608 166.369 213.171 165.258C217.589 164.376 221.995 163.329 226.189 161.676C232.61 159.144 238.398 155.246 243.929 151.117C246.442 149.241 248.919 147.307 251.174 145.13C251.94 144.39 252.682 143.622 253.502 142.945C254.323 142.268 255.235 141.681 256.248 141.355C257.791 140.857 259.465 141.001 261.066 141.267C262.271 141.469 263.479 141.741 264.699 141.69C265.311 141.674 265.916 141.553 266.487 141.334C267.055 141.106 267.578 140.755 267.967 140.282C268.472 139.649 268.745 138.862 268.74 138.052C268.732 137.245 268.508 136.455 268.092 135.764C267.274 134.378 265.865 133.444 264.399 132.792C262.39 131.898 260.216 131.458 258.078 130.94C251.507 129.346 245.134 127.02 239.08 124.008C236.071 122.516 233.146 120.861 230.187 119.274C227.145 117.643 224.043 116.076 220.738 115.075C213.352 112.836 205.278 113.569 197.986 116.102C189.843 118.944 182.602 123.898 177.004 130.458H177.006Z"
        fill="url(#paint7_linear)" />
    <g filter="url(#filter10_f)">
        <path
            d="M228.902 132.082C228.493 131.582 227.941 131.221 227.32 131.045C226.702 130.873 226.052 130.844 225.42 130.96C224.157 131.175 223.026 131.854 221.973 132.581C218.978 134.643 216.329 137.189 214.018 139.998C210.958 143.715 208.434 148.012 207.587 152.751C207.445 153.551 207.35 154.368 207.45 155.171C207.55 155.977 207.859 156.777 208.43 157.352C208.932 157.857 209.614 158.166 210.32 158.267C211.025 158.369 211.749 158.271 212.424 158.043C213.774 157.587 214.896 156.64 215.957 155.69C221.806 150.456 227.094 144.176 229.212 136.617C229.423 135.858 229.603 135.082 229.598 134.294C229.594 133.505 229.389 132.699 228.902 132.082V132.082Z"
            fill="#F6DA4A" />
    </g>
    <g opacity="0.8" filter="url(#filter11_f)">
        <path
            d="M214.896 121.229C215.303 122.53 217.4 122.316 218.613 122.938C219.676 123.487 220.531 124.688 221.727 124.721C222.867 124.755 224.645 124.327 224.794 123.196C224.988 121.699 222.805 120.748 221.399 120.2C219.592 119.495 217.274 119.137 215.578 120.08C215.189 120.298 214.765 120.804 214.896 121.229V121.229Z"
            fill="url(#paint8_radial)" />
    </g>
    <g opacity="0.8" filter="url(#filter12_f)">
        <path
            d="M194.867 120.492C193.31 119.986 190.734 122.731 191.574 124.137C191.805 124.523 192.512 125.012 192.987 124.751C193.706 124.357 194.292 122.945 195.07 122.393C195.589 122.025 195.473 120.689 194.867 120.492Z"
            fill="url(#paint9_radial)" />
    </g>
    <g filter="url(#filter13_f)">
        <path
            d="M263.521 147.218C266.288 147.218 268.842 144.443 269.225 141.021C269.609 137.599 267.677 134.825 264.91 134.825C262.143 134.825 259.589 137.599 259.206 141.021C258.822 144.443 260.754 147.218 263.521 147.218Z"
            fill="url(#paint10_linear)" />
    </g>
    <path
        d="M337.364 258.966C348.033 267.549 354.803 280.507 356.898 294.038C358.534 304.591 357.471 315.419 355.092 325.83C352.713 336.24 349.038 346.302 345.393 356.338C343.938 360.341 342.479 364.38 341.9 368.599C341.322 372.819 341.69 377.286 343.724 381.026C346.056 385.315 350.409 388.267 355.089 389.657C359.708 391.03 364.697 391.001 369.374 389.836C374.05 388.67 378.416 386.393 382.223 383.437C391.894 375.927 397.729 364.242 399.987 352.207C402.245 340.174 401.207 327.748 399.109 315.686C396.244 299.238 391.426 283.16 385.293 267.631C380.781 256.21 375.502 244.979 368.124 235.16C360.906 225.552 351.806 217.464 344.735 207.747C339.823 200.997 335.885 193.458 329.997 187.539C327.051 184.577 323.615 182.046 319.723 180.534C315.83 179.023 311.459 178.577 307.441 179.708C302.142 181.199 297.815 185.373 295.513 190.372C293.209 195.371 292.808 201.107 293.704 206.537C294.859 213.544 298.062 220.043 301.674 226.155C305.754 233.058 310.479 239.703 316.64 244.835C323.07 250.191 330.846 253.722 337.364 258.966V258.966Z"
        fill="#020204" />
    <g filter="url(#filter14_f)">
        <path
            d="M312.256 242.431C313.122 243.252 314.007 244.084 314.934 244.842C321.479 250.198 324.963 256.214 331.602 261.458C342.463 270.04 353.484 284.854 355.617 298.382C357.282 308.937 355.081 314.671 352.397 327.117C349.712 339.562 342.097 357.183 337.985 369.182C336.343 373.967 341.307 371.993 340.655 377.037C340.329 379.515 340.308 382.022 340.593 384.505C340.634 384.029 340.664 383.535 340.718 383.063C341.507 376.185 343.615 369.572 345.908 363.084C350.326 350.596 355.396 338.361 358.889 325.55C362.384 312.738 361.995 303.52 360.174 292.511C357.879 278.666 349.825 265.883 338.419 257.445C330.352 251.478 320.842 247.652 312.256 242.431V242.431Z"
            fill="#838384" />
    </g>
    <g opacity="0.25" filter="url(#filter15_f)">
        <path
            d="M145.931 234.673C147.712 237.345 144.824 246.556 186.335 240.66C186.335 240.66 179.045 241.463 171.858 243.124C160.686 246.863 150.952 251.043 143.443 256.58C136.006 262.052 130.558 269.199 123.731 275.335C123.731 275.335 134.785 255.139 137.542 249.057C140.296 242.976 137.08 243.253 139.26 234.306C141.44 225.357 146.775 216.761 146.775 216.761C146.775 216.761 142.419 229.402 145.931 234.673V234.673Z"
            fill="url(#paint11_radial)" />
    </g>
    <g opacity="0.42" filter="url(#filter16_f)">
        <path
            d="M279.416 232.262C270.956 238.155 266 237.457 255.734 238.609C245.47 239.762 217.691 239.345 217.691 239.345C217.691 239.345 221.713 239.271 230.625 240.932C239.539 242.59 257.721 244.179 267.957 248.075C278.194 251.972 281.929 253.084 288.149 257.017C297.007 262.618 303.507 271.39 311.971 277.527C311.971 277.527 312.382 269.384 308.965 263.302C305.546 257.222 296.358 247.637 293.655 238.689C290.951 229.741 289.666 212.158 289.666 212.158C289.666 212.158 287.878 226.369 279.416 232.262Z"
            fill="url(#paint12_radial)" />
    </g>
    <g opacity="0.2" filter="url(#filter17_f)">
        <path
            d="M199.851 219.677C199.537 222.229 199.129 224.77 198.629 227.293C198.384 228.538 198.112 229.783 197.647 230.963C197.186 232.144 196.52 233.265 195.578 234.113C194.753 234.857 193.746 235.369 192.736 235.832C188.786 237.638 184.584 238.832 180.274 239.371C181.992 239.498 183.709 239.652 185.42 239.841C186.5 239.959 187.58 240.09 188.632 240.36C189.684 240.629 190.71 241.044 191.584 241.684C192.545 242.385 193.299 243.346 193.864 244.395C194.986 246.485 195.361 248.888 195.568 251.25C195.834 254.273 195.854 257.317 195.626 260.341C195.829 258.316 196.254 256.315 196.888 254.383C198.033 250.901 199.876 247.637 202.359 244.938C203.344 243.869 204.427 242.887 205.618 242.049C209.313 239.472 213.839 238.372 218.305 238.963C213.774 239.147 209.319 237.763 205.69 235.044C203.863 233.668 202.271 231.953 201.166 229.951C199.451 226.814 198.981 223.145 199.85 219.677H199.851Z"
            fill="url(#paint13_radial)" />
    </g>
    <g opacity="0.11" filter="url(#filter18_f)">
        <path
            d="M189.033 279.359C186.876 287.569 185.395 295.941 184.605 304.393C183.488 316.336 183.758 328.364 183.116 340.342C182.572 350.508 181.378 360.779 183.144 370.804C183.988 375.592 185.495 380.239 187.622 384.611C187.96 382.946 188.208 381.261 188.364 379.569C189.111 371.441 187.743 363.286 187.28 355.137C186.47 340.851 188.448 326.575 189.253 312.29C189.871 301.323 189.796 290.317 189.033 279.361V279.359Z"
            fill="black" />
    </g>
    <g filter="url(#filter19_f)">
        <path
            d="M287.548 156.246C283.756 159.7 289.324 164.886 291.966 170.98C293.606 174.771 298.148 180.108 302.542 179.252C305.845 178.609 307.897 173.852 307.583 170.502C306.98 164.034 301.524 162.519 297.559 160.298C294.419 158.537 290.209 153.821 287.548 156.247V156.246Z"
            fill="#838384" />
    </g>
    <g opacity="0.2" filter="url(#filter20_f)">
        <path
            d="M409.169 439.001C408.335 441.74 407.092 444.346 405.479 446.733C401.914 452.015 396.739 455.99 391.568 459.656C382.746 465.909 373.559 471.645 365.349 478.75C359.847 483.51 354.831 488.849 350.184 494.468C346.208 499.276 342.471 504.322 337.939 508.594C333.366 512.908 327.983 516.391 322.182 518.29C315.128 520.598 307.674 520.487 300.879 518.746C296.117 517.524 291.473 515.401 288.524 511.561C285.563 507.707 284.603 502.528 284.261 497.443C283.654 488.452 284.729 479.262 285.707 470.136C286.521 462.551 287.269 454.961 287.576 447.392C288.134 433.625 287.223 419.977 285.359 406.587C285.046 404.343 284.707 402.085 284.897 399.774C285.086 397.465 285.86 395.061 287.482 393.278C288.98 391.63 291.07 390.655 293.153 390.176C295.24 389.698 297.348 389.668 299.444 389.614C304.377 389.482 309.339 389.193 314.199 389.624C317.265 389.896 320.27 390.455 323.332 390.75C328.442 391.241 333.74 390.983 338.864 389.482C344.381 387.864 349.644 384.832 355.248 383.998C357.517 383.674 359.822 383.677 362.09 384.008C364.373 384.327 366.645 384.959 368.397 386.351C369.729 387.41 370.705 388.863 371.468 390.413C372.604 392.72 373.305 395.27 373.703 397.884C374.057 400.198 374.183 402.583 374.779 404.822C375.761 408.507 377.984 411.637 380.661 414.184C383.339 416.732 386.468 418.746 389.593 420.731C392.708 422.709 395.837 424.671 399.163 426.3C400.722 427.066 402.326 427.757 403.819 428.637C405.309 429.519 406.699 430.604 407.689 432.031C409.034 433.969 409.573 436.507 409.169 439.001"
            fill="url(#paint14_linear)" />
    </g>
    <path
        d="M444.149 445.565C442.968 448.585 441.3 451.391 439.212 453.872C434.611 459.334 428.222 462.937 421.86 466.18C411.01 471.71 399.766 476.562 389.564 483.215C382.731 487.674 376.423 492.906 370.523 498.545C365.479 503.366 360.696 508.516 355.038 512.601C349.329 516.725 342.73 519.71 335.769 520.754C327.301 522.025 318.548 520.382 310.697 516.959C305.197 514.563 299.905 511.133 296.735 506.038C293.555 500.924 292.829 494.663 292.822 488.638C292.808 477.985 294.782 467.441 296.641 456.951C298.185 448.234 299.656 439.497 300.603 430.695C302.328 414.686 302.316 398.517 301.164 382.457C300.971 379.765 300.749 377.05 301.15 374.383C301.553 371.718 302.649 369.06 304.693 367.299C306.582 365.676 309.114 364.959 311.601 364.82C314.088 364.683 316.57 365.078 319.035 365.437C324.842 366.286 330.695 366.954 336.372 368.448C339.954 369.389 343.445 370.655 347.02 371.621C352.985 373.234 359.233 374.009 365.372 373.29C371.982 372.519 378.399 370.036 385.051 370.198C387.779 370.263 390.488 370.778 393.091 371.6C395.749 372.437 398.369 373.636 400.32 375.624C401.804 377.132 402.838 379.034 403.615 381.003C404.772 383.938 405.394 387.064 405.661 390.208C405.898 392.992 405.859 395.808 406.387 398.554C407.255 403.067 409.627 407.184 412.574 410.711C415.52 414.239 419.044 417.233 422.561 420.193C426.068 423.139 429.592 426.075 433.373 428.658C435.148 429.871 436.978 431.007 438.663 432.34C440.348 433.676 441.898 435.229 442.952 437.102C444.386 439.677 444.812 442.693 444.149 445.565V445.565Z"
        fill="url(#paint15_linear)" />
    <g filter="url(#filter21_f)">
        <path
            d="M438.688 440.039C437.602 442.757 436.08 445.28 434.18 447.508C429.967 452.441 424.134 455.669 418.334 458.573C408.422 463.535 398.165 467.897 388.841 473.89C382.61 477.892 376.847 482.595 371.452 487.671C366.841 492.005 362.466 496.639 357.31 500.307C352.083 504.024 346.057 506.701 339.712 507.635C331.98 508.777 324.002 507.299 316.817 504.225C311.808 502.083 306.967 499.018 304.067 494.407C301.18 489.818 300.505 484.185 300.491 478.764C300.468 469.184 302.277 459.705 303.98 450.276C305.395 442.441 306.743 434.588 307.599 426.671C309.157 412.28 309.085 397.745 308.111 383.303C307.947 380.884 307.76 378.44 308.132 376.045C308.503 373.646 309.496 371.262 311.333 369.679C313.057 368.194 315.371 367.543 317.643 367.424C319.914 367.305 322.179 367.673 324.428 368.002C329.73 368.783 335.076 369.37 340.264 370.71C343.534 371.555 346.722 372.693 349.986 373.564C355.439 375.017 361.141 375.712 366.748 375.065C372.779 374.367 378.646 372.133 384.718 372.282C387.207 372.344 389.679 372.808 392.06 373.545C394.483 374.29 396.882 375.358 398.662 377.16C400.005 378.52 400.934 380.235 401.67 381.999C402.768 384.622 403.481 387.429 403.539 390.273C403.601 393.241 402.95 396.225 403.353 399.167C403.68 401.557 404.691 403.81 405.983 405.847C407.277 407.881 408.85 409.722 410.407 411.563C413.417 415.121 416.438 418.746 420.213 421.476C424.512 424.587 429.614 426.407 434.055 429.31C435.379 430.175 436.661 431.155 437.594 432.431C438.373 433.519 438.879 434.778 439.07 436.102C439.26 437.427 439.129 438.777 438.688 440.04V440.039Z"
            fill="#CD8907" />
    </g>
    <g filter="url(#filter22_f)">
        <path
            d="M438.067 436.974C436.86 439.711 435.301 442.25 433.436 444.519C429.12 449.765 423.294 453.375 417.156 455.693C407.052 459.511 396.022 460.025 386.104 464.37C380.06 467.021 374.622 471.012 369.113 474.784C364.66 477.831 360.111 480.765 355.221 482.897C349.7 485.308 343.827 486.657 337.935 487.605C334.187 488.208 330.396 488.651 326.61 488.441C322.823 488.232 319.027 487.346 315.685 485.417C313.152 483.952 310.875 481.843 309.523 479.108C308.02 476.072 307.759 472.507 307.793 469.065C307.885 459.891 309.849 450.817 309.789 441.643C309.739 433.657 308.156 425.773 307.701 417.801C306.825 402.473 310.116 386.876 307.22 371.841C306.757 369.431 306.134 367.029 306.164 364.57C306.163 363.338 306.377 362.116 306.795 360.968C307.23 359.832 307.923 358.797 308.849 358.078C309.629 357.473 310.553 357.105 311.501 356.941C312.452 356.789 313.42 356.794 314.37 356.956C316.27 357.25 318.082 357.998 319.933 358.549C325.226 360.126 330.819 360.091 336.199 361.282C339.576 362.027 342.847 363.25 346.187 364.164C351.798 365.698 357.65 366.353 363.405 365.679C369.596 364.955 375.646 362.708 381.868 362.87C384.419 362.935 386.954 363.41 389.413 364.145C391.874 364.877 394.335 365.914 396.194 367.796C397.537 369.155 398.503 370.888 399.286 372.683C400.429 375.302 401.224 378.145 401.204 381.04C401.194 382.544 400.966 384.037 400.832 385.534C400.695 387.034 400.655 388.568 401.014 390.024C401.375 391.485 402.124 392.805 402.984 394C403.842 395.197 404.817 396.29 405.705 397.461C408.194 400.738 409.974 404.558 411.911 408.242C413.851 411.928 416.026 415.573 419.086 418.228C423.254 421.841 428.663 423.284 433.308 426.138C434.669 426.975 435.987 427.955 436.943 429.293C437.709 430.362 438.222 431.644 438.416 432.979C438.612 434.314 438.49 435.701 438.067 436.976V436.974Z"
            fill="#F5C021" />
    </g>
    <g filter="url(#filter23_f)">
        <path
            d="M306.172 373.283C311.914 371.728 316.805 376.083 320.973 379.371C323.664 381.668 327.553 381.089 330.855 381.198C336.325 381 341.771 382.115 347.243 381.436C358.017 380.524 368.579 377.877 379.403 377.421C384.576 377.095 390.379 376.795 394.847 379.814C396.658 381.07 399.312 386.375 401.099 384.382C400.362 378.81 396.23 373.413 390.686 371.93C386.347 371.246 381.937 372.44 377.554 372.054C364.541 371.744 351.617 369.328 338.573 370.02C329.496 370.099 320.431 369.679 311.368 369.324C307.809 368.597 306.554 371.761 304.62 372.973"
            fill="url(#paint16_linear)" />
    </g>
    <g opacity="0.75" filter="url(#filter24_f)">
        <path
            d="M331.924 267.341C334.006 267.019 346.857 277.945 345.098 282.005C343.34 286.062 340.041 283.615 337.681 283.644C335.32 283.671 328.861 286.603 327.779 284.751C326.697 282.9 330.636 278.58 332.697 274.968C334.357 272.06 329.84 267.663 331.924 267.341V267.341Z"
            fill="#7C7C7C" />
    </g>
    <g opacity="0.25" filter="url(#filter25_f)">
        <path
            d="M150.593 198.569C150.386 196.054 146.79 195.675 145.188 196.93C143.834 197.991 142.563 201.614 143.733 203.028C145.63 205.324 150.877 202.021 150.593 198.569V198.569Z"
            fill="#7C7C7C" />
    </g>
    <g opacity="0.35" filter="url(#filter26_f)">
        <path
            d="M383.622 382.032C382.635 380.1 380.839 378.656 378.835 377.821C376.836 376.985 374.634 376.716 372.465 376.734C368.126 376.769 363.813 377.898 359.491 377.523C355.839 377.207 352.374 375.836 348.813 374.968C345.137 374.074 341.236 373.723 337.583 374.718C333.681 375.78 330.237 378.389 328.082 381.811C326.182 384.827 325.279 388.39 324.995 391.946C324.711 395.499 325.018 399.074 325.377 402.623C325.638 405.188 325.928 407.76 326.548 410.264C327.169 412.768 328.133 415.214 329.645 417.304C331.819 420.312 335.05 422.458 338.534 423.747C344.288 425.85 350.618 425.739 356.295 423.437C366.218 419.129 374.617 411.402 379.736 401.873C381.579 398.46 382.982 394.828 383.913 391.064C384.277 389.568 384.565 388.044 384.579 386.505C384.591 384.966 384.321 383.403 383.622 382.034V382.032Z"
            fill="url(#paint17_radial)" />
    </g>
    <g opacity="0.35" filter="url(#filter27_f)">
        <path
            d="M383.622 380.007C382.635 378.611 380.839 377.566 378.835 376.963C376.836 376.358 374.634 376.164 372.465 376.177C368.126 376.202 363.813 377.019 359.491 376.747C355.839 376.519 352.374 375.528 348.813 374.901C345.137 374.254 341.236 374.001 337.583 374.719C333.681 375.487 330.237 377.373 328.082 379.848C326.182 382.028 325.279 384.603 324.995 387.174C324.711 389.743 325.018 392.328 325.377 394.893C325.638 396.747 325.928 398.607 326.548 400.417C327.169 402.227 328.133 403.995 329.645 405.506C331.819 407.681 335.05 409.232 338.534 410.164C344.288 411.684 350.618 411.604 356.295 409.94C366.218 406.825 374.617 401.239 379.736 394.351C381.579 391.884 382.982 389.258 383.913 386.536C384.277 385.455 384.565 384.354 384.579 383.241C384.591 382.128 384.321 380.999 383.622 380.009V380.007Z"
            fill="url(#paint18_radial)" />
    </g>
    <path
        d="M391.869 363.951C391.158 362.017 389.907 360.302 388.379 358.919C386.848 357.537 385.047 356.478 383.148 355.673C379.353 354.064 375.224 353.462 371.17 352.7C367.349 351.983 363.559 351.111 359.726 350.461C355.743 349.786 351.629 349.353 347.688 350.242C344.241 351.018 341.053 352.8 338.446 355.182C335.837 357.567 333.8 360.542 332.336 363.756C329.753 369.419 328.943 375.794 329.436 381.997C329.801 386.614 330.97 391.37 334.009 394.865C336.465 397.688 339.949 399.45 343.536 400.51C349.766 402.339 356.402 402.244 362.577 400.239C372.763 396.797 381.572 390.171 387.704 381.34C389.701 378.447 391.406 375.294 392.18 371.867C392.769 369.254 392.792 366.465 391.868 363.951H391.869Z"
        fill="#020204" />
    <g filter="url(#filter28_f)">
        <path
            d="M349.845 348.397C348.88 348.45 347.947 348.555 346.995 348.725C340.911 349.807 335.341 353.65 332.201 358.971C329.986 362.763 328.974 367.138 329.298 371.518C329.426 368.465 330.227 365.476 331.708 362.807C334.223 358.28 338.778 354.865 343.873 353.93C347.011 353.355 350.239 353.702 353.406 354.095C356.444 354.472 359.509 354.872 362.502 355.519C367.13 356.522 371.714 358.065 375.595 360.779C376.502 361.414 377.349 362.127 378.06 362.97C378.774 363.816 379.326 364.79 379.54 365.876C379.852 367.461 379.4 369.125 378.609 370.532C377.817 371.94 376.742 373.175 375.595 374.313C374.653 375.235 373.685 376.13 372.692 376.997C377.179 376.129 381.725 374.898 385.458 372.286C387.036 371.181 388.465 369.857 389.403 368.176C390.341 366.495 390.74 364.457 390.279 362.588C389.969 361.326 389.278 360.163 388.417 359.19C387.556 358.217 386.524 357.416 385.458 356.671C380.741 353.37 375.284 351.281 369.569 350.587C365.915 349.916 362.243 349.35 358.557 348.89C355.674 348.528 352.734 348.236 349.843 348.397H349.845Z"
            fill="url(#paint19_radial)" />
    </g>
    <g filter="url(#filter29_f)">
        <path
            d="M349.845 348.397C348.88 348.45 347.947 348.555 346.995 348.725C340.911 349.807 335.341 353.65 332.201 358.971C329.986 362.763 328.974 367.138 329.298 371.518C329.426 368.465 330.227 365.476 331.708 362.807C334.223 358.28 338.778 354.865 343.873 353.93C347.011 353.355 350.239 353.702 353.406 354.095C356.444 354.472 359.509 354.872 362.502 355.519C367.13 356.522 371.714 358.065 375.595 360.779C376.502 361.414 377.349 362.127 378.06 362.97C378.774 363.816 379.326 364.79 379.54 365.876C379.852 367.461 379.4 369.125 378.609 370.532C377.817 371.94 376.742 373.175 375.595 374.313C374.653 375.235 373.685 376.13 372.692 376.997C377.179 376.129 381.725 374.898 385.458 372.286C387.036 371.181 388.465 369.857 389.403 368.176C390.341 366.495 390.74 364.457 390.279 362.588C389.969 361.326 389.278 360.163 388.417 359.19C387.556 358.217 386.524 357.416 385.458 356.671C380.741 353.37 375.284 351.281 369.569 350.587C365.915 349.916 362.243 349.35 358.557 348.89C355.674 348.528 352.734 348.236 349.843 348.397H349.845Z"
            fill="url(#paint20_linear)" />
    </g>
    <path
        d="M150.457 187.037C145.577 193.128 140.706 199.227 135.845 205.333C130.836 211.624 125.837 217.922 120.788 224.183C114.595 231.864 108.253 239.601 104.221 248.606C100.756 256.345 99.1187 264.751 96.743 272.889C94.0464 282.133 90.3855 291.071 86.2758 299.778C82.4799 307.817 78.2982 315.668 74.1079 323.511C71.0606 329.216 67.9625 335.047 66.907 341.429C66.0725 346.474 66.5581 351.677 67.8433 356.625C69.1267 361.573 71.1921 366.286 73.5187 370.838C83.4565 390.255 98.363 406.992 116.022 419.797C124.04 425.617 132.616 430.624 141.626 434.745C146.503 436.972 151.642 438.962 157.004 439.055C159.687 439.101 162.394 438.659 164.85 437.582C167.305 436.502 169.496 434.768 170.955 432.519C172.749 429.752 173.357 426.316 172.998 423.039C172.638 419.76 171.358 416.634 169.644 413.818C165.453 406.94 158.833 401.966 152.466 397.034C138.721 386.384 125.423 375.152 112.698 363.3C109.106 359.953 105.513 356.501 103.002 352.281C100.558 348.173 99.2362 343.491 98.342 338.794C95.8874 325.909 96.5186 312.349 100.902 299.987C102.617 295.151 104.882 290.533 107.07 285.89C110.859 277.846 114.446 269.646 119.431 262.28C125.632 253.11 133.925 245.343 138.98 235.493C143.249 227.179 144.976 217.832 146.628 208.634C147.92 201.439 149.197 194.24 150.457 187.037V187.037Z"
        fill="#020204" />
    <path
        d="M78.7103 356.399C81.5156 355.235 84.668 355.023 87.6522 355.575C90.638 356.124 93.4591 357.414 95.9698 359.12C100.991 362.532 104.715 367.498 108.283 372.41C116.475 383.689 124.359 395.207 131.506 407.176C137.302 416.884 142.627 426.913 149.326 436.024C153.699 441.971 158.629 447.49 163.025 453.42C167.419 459.351 171.314 465.791 173.264 472.911C175.794 482.162 174.814 492.359 170.412 500.882C167.313 506.876 162.562 512.019 156.783 515.502C151.004 518.985 144.212 520.787 137.469 520.534C126.749 520.131 116.955 514.775 106.989 510.804C86.6861 502.717 64.6296 500.18 43.7004 493.882C37.2693 491.947 30.9451 489.657 24.4667 487.876C21.5913 487.083 18.6668 486.387 15.9491 485.155C13.2315 483.922 10.6892 482.088 9.17789 479.514C8.01019 477.526 7.51576 475.184 7.54731 472.878C7.57887 470.571 8.11889 468.293 8.90437 466.124C10.4753 461.787 13.0124 457.861 14.7253 453.576C17.5219 446.582 18.025 438.869 17.6463 431.346C17.2694 423.822 16.0508 416.364 15.5354 408.849C15.3057 405.493 15.2198 402.094 15.8597 398.792C16.4997 395.489 17.9199 392.261 20.3429 389.927C22.5766 387.778 25.5415 386.5 28.5782 385.867C31.6131 385.234 34.741 385.204 37.8426 385.274C40.9424 385.344 44.0493 385.511 47.1404 385.257C50.2314 385.002 53.3365 384.31 56.0296 382.769C58.5894 381.306 60.6811 379.132 62.4169 376.748C64.1527 374.363 65.5536 371.758 66.9913 369.184C68.429 366.61 69.9158 364.045 71.7971 361.775C73.6801 359.506 75.9874 357.526 78.7103 356.397V356.399Z"
        fill="url(#paint21_linear)" />
    <g filter="url(#filter30_f)">
        <path
            d="M83.1514 361.236C85.7024 360.209 88.5761 360.097 91.2551 360.703C93.9359 361.31 96.4274 362.615 98.5997 364.292C102.943 367.648 105.964 372.382 108.864 377.035C115.824 388.314 122.629 399.713 129.055 411.344C133.923 420.098 138.566 429.038 144.55 437.079C148.518 442.413 153.048 447.304 157.099 452.573C161.149 457.843 164.764 463.587 166.554 469.99C168.862 478.241 167.927 487.365 163.933 494.945C161.041 500.422 156.677 504.984 151.334 508.116C145.976 511.229 139.839 512.743 133.648 512.478C123.833 512.026 114.869 507.125 105.63 503.799C87.9151 497.372 68.7164 496.509 50.547 491.491C44.0334 489.722 37.683 487.365 31.1379 485.714C28.2432 484.984 25.2959 484.387 22.5432 483.226C19.7923 482.065 17.2027 480.265 15.7106 477.677C14.6008 475.753 14.1572 473.49 14.2256 471.27C14.2957 469.05 14.8568 466.869 15.6457 464.793C17.2272 460.643 19.7134 456.886 21.3089 452.741C23.7249 446.473 24.0265 439.583 23.5759 432.882C23.1271 426.181 21.9629 419.539 21.5544 412.836C21.372 409.838 21.344 406.805 21.9506 403.866C22.5573 400.926 23.8372 398.063 25.9744 395.955C28.2905 393.66 31.4816 392.407 34.7024 391.916C37.9214 391.425 41.2001 391.639 44.4402 391.928C47.6838 392.217 50.9362 392.582 54.1903 392.386C57.4462 392.193 60.7407 391.398 63.4302 389.568C65.8796 387.913 67.717 385.493 69.1179 382.909C70.5171 380.325 71.5147 377.553 72.5825 374.816C73.6502 372.077 74.8039 369.342 76.4783 366.908C78.1527 364.475 80.3987 362.341 83.1514 361.236"
            fill="#D99A03" />
    </g>
    <g filter="url(#filter31_f)">
        <path
            d="M80.7722 354.866C83.2443 353.64 86.1548 353.389 88.8671 353.944C91.576 354.495 94.0885 355.82 96.2223 357.551C100.492 361.012 103.2 365.945 105.725 370.785C111.52 381.897 116.916 393.255 123.851 403.72C128.879 411.313 134.686 418.385 139.773 425.94C146.674 436.185 152.284 447.454 154.6 459.528C156.157 467.646 156.106 476.419 152.193 483.732C149.617 488.546 145.443 492.496 140.511 494.968C135.577 497.439 129.915 498.441 124.398 497.954C115.714 497.188 107.824 492.918 99.6465 489.939C85.1396 484.655 69.4581 483.391 54.527 479.405C48.2291 477.722 42.061 475.555 35.679 474.222C32.8614 473.633 29.9913 473.204 27.3017 472.19C24.6139 471.178 22.0664 469.496 20.6918 467.011C19.7275 465.262 19.4013 463.214 19.5451 461.229C19.6906 459.244 20.2832 457.312 21.0617 455.475C22.6186 451.8 24.919 448.432 26.1288 444.634C27.9066 439.052 27.1755 433 25.843 427.3C24.5105 421.601 22.5871 416.002 21.9945 410.184C21.7315 407.591 21.7367 404.949 22.3311 402.41C22.9237 399.87 24.1317 397.43 26.0271 395.608C28.4694 393.263 31.8901 392.096 35.2898 391.77C38.6912 391.443 42.1154 391.889 45.494 392.375C48.8761 392.862 52.2775 393.391 55.6894 393.236C59.1031 393.081 62.5781 392.185 65.2519 390.095C67.8942 388.029 69.5563 384.952 70.5101 381.768C71.4639 378.585 71.7725 375.256 72.1634 371.961C72.5527 368.665 73.0401 365.339 74.32 362.267C75.5982 359.195 77.7565 356.364 80.7722 354.866V354.866Z"
            fill="#F5BD0C" />
    </g>
    <g filter="url(#filter32_f)">
        <path
            d="M111.725 382.611C116.294 390.874 119.082 400.356 123.614 408.69C127.785 416.357 132.53 424.248 136.764 431.319C138.651 434.467 143.048 439.304 147.494 446.813C151.522 453.616 155.591 463.114 157.867 466.303C156.559 462.57 153.869 452.545 150.662 445.398C147.664 438.72 144.175 434.91 142.024 431.319C137.79 424.248 133.229 417.894 128.874 411.157C122.869 401.86 118.293 391.456 111.727 382.609L111.725 382.611Z"
            fill="url(#paint22_linear)" />
    </g>
    <defs>
        <filter id="filter0_f" x="156.715" y="137.163" width="126.422" height="80.5779" filterUnits="userSpaceOnUse"
            color-interpolation-filters="sRGB">
            <feFlood flood-opacity="0" result="BackgroundImageFix" />
            <feBlend mode="normal" in="SourceGraphic" in2="BackgroundImageFix" result="shape" />
            <feGaussianBlur stdDeviation="3.56972" result="effect1_foregroundBlur" />
        </filter>
        <filter id="filter1_f" x="159.731" y="136.258" width="113.614" height="55.0456" filterUnits="userSpaceOnUse"
            color-interpolation-filters="sRGB">
            <feFlood flood-opacity="0" result="BackgroundImageFix" />
            <feBlend mode="normal" in="SourceGraphic" in2="BackgroundImageFix" result="shape" />
            <feGaussianBlur stdDeviation="1.56829" result="effect1_foregroundBlur" />
        </filter>
        <filter id="filter2_f" x="158.256" y="107.213" width="115.257" height="62.8609" filterUnits="userSpaceOnUse"
            color-interpolation-filters="sRGB">
            <feFlood flood-opacity="0" result="BackgroundImageFix" />
            <feBlend mode="normal" in="SourceGraphic" in2="BackgroundImageFix" result="shape" />
            <feGaussianBlur stdDeviation="2.38624" result="effect1_foregroundBlur" />
        </filter>
        <filter id="filter3_f" x="241.508" y="15.629" width="42.9382" height="41.4332" filterUnits="userSpaceOnUse"
            color-interpolation-filters="sRGB">
            <feFlood flood-opacity="0" result="BackgroundImageFix" />
            <feBlend mode="normal" in="SourceGraphic" in2="BackgroundImageFix" result="shape" />
            <feGaussianBlur stdDeviation="3.5151" result="effect1_foregroundBlur" />
        </filter>
        <filter id="filter4_f" x="243.331" y="103.703" width="8.37789" height="6.75248" filterUnits="userSpaceOnUse"
            color-interpolation-filters="sRGB">
            <feFlood flood-opacity="0" result="BackgroundImageFix" />
            <feBlend mode="normal" in="SourceGraphic" in2="BackgroundImageFix" result="shape" />
            <feGaussianBlur stdDeviation="0.436572" result="effect1_foregroundBlur" />
        </filter>
        <filter id="filter5_f" x="242.435" y="95.1703" width="15.8736" height="15.694" filterUnits="userSpaceOnUse"
            color-interpolation-filters="sRGB">
            <feFlood flood-opacity="0" result="BackgroundImageFix" />
            <feBlend mode="normal" in="SourceGraphic" in2="BackgroundImageFix" result="shape" />
            <feGaussianBlur stdDeviation="0.909964" result="effect1_foregroundBlur" />
        </filter>
        <filter id="filter6_f" x="175.135" y="66.7366" width="26.0961" height="23.0519" filterUnits="userSpaceOnUse"
            color-interpolation-filters="sRGB">
            <feFlood flood-opacity="0" result="BackgroundImageFix" />
            <feBlend mode="normal" in="SourceGraphic" in2="BackgroundImageFix" result="shape" />
            <feGaussianBlur stdDeviation="0.236696" result="effect1_foregroundBlur" />
        </filter>
        <filter id="filter7_f" x="176.843" y="96.8517" width="12.7972" height="18.3643" filterUnits="userSpaceOnUse"
            color-interpolation-filters="sRGB">
            <feFlood flood-opacity="0" result="BackgroundImageFix" />
            <feBlend mode="normal" in="SourceGraphic" in2="BackgroundImageFix" result="shape" />
            <feGaussianBlur stdDeviation="0.899444" result="effect1_foregroundBlur" />
        </filter>
        <filter id="filter8_f" x="185.662" y="154.248" width="30.6621" height="23.4352" filterUnits="userSpaceOnUse"
            color-interpolation-filters="sRGB">
            <feFlood flood-opacity="0" result="BackgroundImageFix" />
            <feBlend mode="normal" in="SourceGraphic" in2="BackgroundImageFix" result="shape" />
            <feGaussianBlur stdDeviation="1.57622" result="effect1_foregroundBlur" />
        </filter>
        <filter id="filter9_f" x="164.386" y="126.535" width="98.0657" height="45.5063" filterUnits="userSpaceOnUse"
            color-interpolation-filters="sRGB">
            <feFlood flood-opacity="0" result="BackgroundImageFix" />
            <feBlend mode="normal" in="SourceGraphic" in2="BackgroundImageFix" result="shape" />
            <feGaussianBlur stdDeviation="1.329" result="effect1_foregroundBlur" />
        </filter>
        <filter id="filter10_f" x="204.432" y="127.913" width="28.1435" height="33.3715" filterUnits="userSpaceOnUse"
            color-interpolation-filters="sRGB">
            <feFlood flood-opacity="0" result="BackgroundImageFix" />
            <feBlend mode="normal" in="SourceGraphic" in2="BackgroundImageFix" result="shape" />
            <feGaussianBlur stdDeviation="1.48855" result="effect1_foregroundBlur" />
        </filter>
        <filter id="filter11_f" x="214.486" y="119.124" width="10.7054" height="5.98527" filterUnits="userSpaceOnUse"
            color-interpolation-filters="sRGB">
            <feFlood flood-opacity="0" result="BackgroundImageFix" />
            <feBlend mode="normal" in="SourceGraphic" in2="BackgroundImageFix" result="shape" />
            <feGaussianBlur stdDeviation="0.192863" result="effect1_foregroundBlur" />
        </filter>
        <filter id="filter12_f" x="191.024" y="120.045" width="4.76068" height="5.16536" filterUnits="userSpaceOnUse"
            color-interpolation-filters="sRGB">
            <feFlood flood-opacity="0" result="BackgroundImageFix" />
            <feBlend mode="normal" in="SourceGraphic" in2="BackgroundImageFix" result="shape" />
            <feGaussianBlur stdDeviation="0.192863" result="effect1_foregroundBlur" />
        </filter>
        <filter id="filter13_f" x="257.959" y="133.627" width="12.5121" height="14.7884" filterUnits="userSpaceOnUse"
            color-interpolation-filters="sRGB">
            <feFlood flood-opacity="0" result="BackgroundImageFix" />
            <feBlend mode="normal" in="SourceGraphic" in2="BackgroundImageFix" result="shape" />
            <feGaussianBlur stdDeviation="0.598826" result="effect1_foregroundBlur" />
        </filter>
        <filter id="filter14_f" x="307.473" y="237.647" width="58.8502" height="151.641" filterUnits="userSpaceOnUse"
            color-interpolation-filters="sRGB">
            <feFlood flood-opacity="0" result="BackgroundImageFix" />
            <feBlend mode="normal" in="SourceGraphic" in2="BackgroundImageFix" result="shape" />
            <feGaussianBlur stdDeviation="2.39179" result="effect1_foregroundBlur" />
        </filter>
        <filter id="filter15_f" x="121.309" y="214.338" width="67.4482" height="63.4192" filterUnits="userSpaceOnUse"
            color-interpolation-filters="sRGB">
            <feFlood flood-opacity="0" result="BackgroundImageFix" />
            <feBlend mode="normal" in="SourceGraphic" in2="BackgroundImageFix" result="shape" />
            <feGaussianBlur stdDeviation="1.21123" result="effect1_foregroundBlur" />
        </filter>
        <filter id="filter16_f" x="213.701" y="208.168" width="102.277" height="73.3494" filterUnits="userSpaceOnUse"
            color-interpolation-filters="sRGB">
            <feFlood flood-opacity="0" result="BackgroundImageFix" />
            <feBlend mode="normal" in="SourceGraphic" in2="BackgroundImageFix" result="shape" />
            <feGaussianBlur stdDeviation="1.99526" result="effect1_foregroundBlur" />
        </filter>
        <filter id="filter17_f" x="177.521" y="216.924" width="43.5362" height="46.1697" filterUnits="userSpaceOnUse"
            color-interpolation-filters="sRGB">
            <feFlood flood-opacity="0" result="BackgroundImageFix" />
            <feBlend mode="normal" in="SourceGraphic" in2="BackgroundImageFix" result="shape" />
            <feGaussianBlur stdDeviation="1.37634" result="effect1_foregroundBlur" />
        </filter>
        <filter id="filter18_f" x="177.144" y="274.288" width="17.5934" height="115.394" filterUnits="userSpaceOnUse"
            color-interpolation-filters="sRGB">
            <feFlood flood-opacity="0" result="BackgroundImageFix" />
            <feBlend mode="normal" in="SourceGraphic" in2="BackgroundImageFix" result="shape" />
            <feGaussianBlur stdDeviation="2.53527" result="effect1_foregroundBlur" />
        </filter>
        <filter id="filter19_f" x="283.106" y="152.408" width="27.6683" height="30.095" filterUnits="userSpaceOnUse"
            color-interpolation-filters="sRGB">
            <feFlood flood-opacity="0" result="BackgroundImageFix" />
            <feBlend mode="normal" in="SourceGraphic" in2="BackgroundImageFix" result="shape" />
            <feGaussianBlur stdDeviation="1.57972" result="effect1_foregroundBlur" />
        </filter>
        <filter id="filter20_f" x="276.235" y="375.908" width="140.915" height="151.981" filterUnits="userSpaceOnUse"
            color-interpolation-filters="sRGB">
            <feFlood flood-opacity="0" result="BackgroundImageFix" />
            <feBlend mode="normal" in="SourceGraphic" in2="BackgroundImageFix" result="shape" />
            <feGaussianBlur stdDeviation="3.92475" result="effect1_foregroundBlur" />
        </filter>
        <filter id="filter21_f" x="283.732" y="350.643" width="172.18" height="174.135" filterUnits="userSpaceOnUse"
            color-interpolation-filters="sRGB">
            <feFlood flood-opacity="0" result="BackgroundImageFix" />
            <feBlend mode="normal" in="SourceGraphic" in2="BackgroundImageFix" result="shape" />
            <feGaussianBlur stdDeviation="8.37903" result="effect1_foregroundBlur" />
        </filter>
        <filter id="filter22_f" x="292.958" y="343.626" width="158.754" height="158.073" filterUnits="userSpaceOnUse"
            color-interpolation-filters="sRGB">
            <feFlood flood-opacity="0" result="BackgroundImageFix" />
            <feBlend mode="normal" in="SourceGraphic" in2="BackgroundImageFix" result="shape" />
            <feGaussianBlur stdDeviation="6.60241" result="effect1_foregroundBlur" />
        </filter>
        <filter id="filter23_f" x="302.94" y="367.537" width="99.8383" height="18.9672" filterUnits="userSpaceOnUse"
            color-interpolation-filters="sRGB">
            <feFlood flood-opacity="0" result="BackgroundImageFix" />
            <feBlend mode="normal" in="SourceGraphic" in2="BackgroundImageFix" result="shape" />
            <feGaussianBlur stdDeviation="0.839832" result="effect1_foregroundBlur" />
        </filter>
        <filter id="filter24_f" x="319.557" y="259.297" width="33.7441" height="34.105" filterUnits="userSpaceOnUse"
            color-interpolation-filters="sRGB">
            <feFlood flood-opacity="0" result="BackgroundImageFix" />
            <feBlend mode="normal" in="SourceGraphic" in2="BackgroundImageFix" result="shape" />
            <feGaussianBlur stdDeviation="4.01882" result="effect1_foregroundBlur" />
        </filter>
        <filter id="filter25_f" x="141.029" y="193.99" width="11.8184" height="12.0443" filterUnits="userSpaceOnUse"
            color-interpolation-filters="sRGB">
            <feFlood flood-opacity="0" result="BackgroundImageFix" />
            <feBlend mode="normal" in="SourceGraphic" in2="BackgroundImageFix" result="shape" />
            <feGaussianBlur stdDeviation="1.12177" result="effect1_foregroundBlur" />
        </filter>
        <filter id="filter26_f" x="314.911" y="364.144" width="79.6416" height="71.076" filterUnits="userSpaceOnUse"
            color-interpolation-filters="sRGB">
            <feFlood flood-opacity="0" result="BackgroundImageFix" />
            <feBlend mode="normal" in="SourceGraphic" in2="BackgroundImageFix" result="shape" />
            <feGaussianBlur stdDeviation="4.98639" result="effect1_foregroundBlur" />
        </filter>
        <filter id="filter27_f" x="321.016" y="370.418" width="67.4301" height="44.6977" filterUnits="userSpaceOnUse"
            color-interpolation-filters="sRGB">
            <feFlood flood-opacity="0" result="BackgroundImageFix" />
            <feBlend mode="normal" in="SourceGraphic" in2="BackgroundImageFix" result="shape" />
            <feGaussianBlur stdDeviation="1.9335" result="effect1_foregroundBlur" />
        </filter>
        <filter id="filter28_f" x="325.644" y="344.757" width="68.4212" height="35.8338" filterUnits="userSpaceOnUse"
            color-interpolation-filters="sRGB">
            <feFlood flood-opacity="0" result="BackgroundImageFix" />
            <feBlend mode="normal" in="SourceGraphic" in2="BackgroundImageFix" result="shape" />
            <feGaussianBlur stdDeviation="1.79713" result="effect1_foregroundBlur" />
        </filter>
        <filter id="filter29_f" x="325.644" y="344.757" width="68.4212" height="35.8338" filterUnits="userSpaceOnUse"
            color-interpolation-filters="sRGB">
            <feFlood flood-opacity="0" result="BackgroundImageFix" />
            <feBlend mode="normal" in="SourceGraphic" in2="BackgroundImageFix" result="shape" />
            <feGaussianBlur stdDeviation="1.79713" result="effect1_foregroundBlur" />
        </filter>
        <filter id="filter30_f" x="0.458838" y="346.573" width="181.095" height="179.694" filterUnits="userSpaceOnUse"
            color-interpolation-filters="sRGB">
            <feFlood flood-opacity="0" result="BackgroundImageFix" />
            <feBlend mode="normal" in="SourceGraphic" in2="BackgroundImageFix" result="shape" />
            <feGaussianBlur stdDeviation="6.87996" result="effect1_foregroundBlur" />
        </filter>
        <filter id="filter31_f" x="11.0441" y="345.195" width="152.979" height="161.347" filterUnits="userSpaceOnUse"
            color-interpolation-filters="sRGB">
            <feFlood flood-opacity="0" result="BackgroundImageFix" />
            <feBlend mode="normal" in="SourceGraphic" in2="BackgroundImageFix" result="shape" />
            <feGaussianBlur stdDeviation="4.23427" result="effect1_foregroundBlur" />
        </filter>
        <filter id="filter32_f" x="110.428" y="381.312" width="48.7365" height="86.2888" filterUnits="userSpaceOnUse"
            color-interpolation-filters="sRGB">
            <feFlood flood-opacity="0" result="BackgroundImageFix" />
            <feBlend mode="normal" in="SourceGraphic" in2="BackgroundImageFix" result="shape" />
            <feGaussianBlur stdDeviation="0.648722" result="effect1_foregroundBlur" />
        </filter>
        <radialGradient id="paint0_radial" cx="0" cy="0" r="1" gradientUnits="userSpaceOnUse"
            gradientTransform="translate(182.191 104.938) rotate(-2.40991) scale(20.8471 31.8886)">
            <stop stop-color="#FEFEFC" />
            <stop offset="0.757" stop-color="#FEFEFC" />
            <stop offset="1" stop-color="#D4D4D4" />
        </radialGradient>
        <radialGradient id="paint1_radial" cx="0" cy="0" r="1" gradientUnits="userSpaceOnUse"
            gradientTransform="translate(246.417 104.938) rotate(-1.80991) scale(27.7546 31.901)">
            <stop stop-color="#FEFEFC" />
            <stop offset="0.757" stop-color="#FEFEFC" />
            <stop offset="1" stop-color="#D4D4D4" />
        </radialGradient>
        <radialGradient id="paint2_radial" cx="0" cy="0" r="1" gradientUnits="userSpaceOnUse"
            gradientTransform="translate(204.871 122.662) rotate(-36.0082) scale(23.2659 21.1173)">
            <stop stop-color="#020204" />
            <stop offset="0.734" stop-color="#020204" />
            <stop offset="1" stop-color="#5C5C5C" />
        </radialGradient>
        <linearGradient id="paint3_linear" x1="246.044" y1="96.4721" x2="257.821" y2="110.42"
            gradientUnits="userSpaceOnUse">
            <stop stop-color="#949494" stop-opacity="0.392" />
            <stop offset="0.5" stop-color="#949494" />
            <stop offset="1" stop-color="#949494" stop-opacity="0.392" />
        </linearGradient>
        <linearGradient id="paint4_linear" x1="176.282" y1="66.4836" x2="199.776" y2="89.11"
            gradientUnits="userSpaceOnUse">
            <stop stop-color="#646464" stop-opacity="0" />
            <stop offset="0.306" stop-color="#646464" stop-opacity="0.583" />
            <stop offset="0.47" stop-color="#646464" />
            <stop offset="0.728" stop-color="#646464" stop-opacity="0.257" />
            <stop offset="1" stop-color="#646464" stop-opacity="0" />
        </linearGradient>
        <linearGradient id="paint5_linear" x1="177.723" y1="95.2326" x2="187.95" y2="113.519"
            gradientUnits="userSpaceOnUse">
            <stop stop-color="#757574" stop-opacity="0" />
            <stop offset="0.263" stop-color="#757574" />
            <stop offset="0.5" stop-color="#757574" />
            <stop offset="1" stop-color="#757574" stop-opacity="0" />
        </linearGradient>
        <radialGradient id="paint6_radial" cx="0" cy="0" r="1" gradientUnits="userSpaceOnUse"
            gradientTransform="translate(229.557 143.996) rotate(-22.4277) scale(55.245 38.7929)">
            <stop stop-color="#D2940A" />
            <stop offset="0.751" stop-color="#D89C08" />
            <stop offset="0.866" stop-color="#B67E07" />
            <stop offset="1" stop-color="#946106" />
        </radialGradient>
        <linearGradient id="paint7_linear" x1="165.113" y1="141.258" x2="264.14" y2="140.484"
            gradientUnits="userSpaceOnUse">
            <stop stop-color="#AD780A" />
            <stop offset="0.12" stop-color="#D89E08" />
            <stop offset="0.255" stop-color="#EDB80B" />
            <stop offset="0.392" stop-color="#EBC80D" />
            <stop offset="0.527" stop-color="#F5D838" />
            <stop offset="0.769" stop-color="#F6D811" />
            <stop offset="1" stop-color="#F5CD31" />
        </linearGradient>
        <radialGradient id="paint8_radial" cx="0" cy="0" r="1" gradientUnits="userSpaceOnUse"
            gradientTransform="translate(219.141 121.807) scale(5.66317 3.3035)">
            <stop stop-color="#3A2903" />
            <stop offset="0.555" stop-color="#735208" />
            <stop offset="1" stop-color="#AC8C04" />
        </radialGradient>
        <radialGradient id="paint9_radial" cx="0" cy="0" r="1" gradientUnits="userSpaceOnUse"
            gradientTransform="translate(193.636 122.163) scale(2.69132 2.89349)">
            <stop stop-color="#3A2903" />
            <stop offset="0.555" stop-color="#735208" />
            <stop offset="1" stop-color="#AC8C04" />
        </radialGradient>
        <linearGradient id="paint10_linear" x1="264.082" y1="137.651" x2="265.59" y2="144.651"
            gradientUnits="userSpaceOnUse">
            <stop stop-color="#F5CE2D" />
            <stop offset="1" stop-color="#D79B08" />
        </linearGradient>
        <radialGradient id="paint11_radial" cx="0" cy="0" r="1" gradientUnits="userSpaceOnUse"
            gradientTransform="translate(130.705 246.905) rotate(180) scale(38.7179 36.6601)">
            <stop />
            <stop offset="1" stop-opacity="0.249" />
        </radialGradient>
        <radialGradient id="paint12_radial" cx="0" cy="0" r="1" gradientUnits="userSpaceOnUse"
            gradientTransform="translate(262.05 268.089) scale(48.0247 36.6601)">
            <stop />
            <stop offset="1" stop-opacity="0.249" />
        </radialGradient>
        <radialGradient id="paint13_radial" cx="0" cy="0" r="1" gradientUnits="userSpaceOnUse"
            gradientTransform="translate(197.895 259.689) scale(19.0146 20.3309)">
            <stop />
            <stop offset="1" stop-opacity="0.249" />
        </radialGradient>
        <linearGradient id="paint14_linear" x1="305.159" y1="431.582" x2="311.475" y2="479.993"
            gradientUnits="userSpaceOnUse">
            <stop />
            <stop offset="1" stop-opacity="0" />
        </linearGradient>
        <linearGradient id="paint15_linear" x1="314.463" y1="515.115" x2="398.767" y2="378.429"
            gradientUnits="userSpaceOnUse">
            <stop stop-color="#3E2A06" />
            <stop offset="1" stop-color="#AD780A" />
        </linearGradient>
        <linearGradient id="paint16_linear" x1="337.475" y1="371.423" x2="334.996" y2="393.739"
            gradientUnits="userSpaceOnUse">
            <stop stop-color="#F3CD0C" />
            <stop offset="1" stop-color="#F3CD0C" stop-opacity="0" />
        </linearGradient>
        <radialGradient id="paint17_radial" cx="0" cy="0" r="1" gradientUnits="userSpaceOnUse"
            gradientTransform="translate(351.511 396.106) rotate(15) scale(40.0022 41.9904)">
            <stop stop-color="#110800" />
            <stop offset="0.591" stop-color="#A65A00" stop-opacity="0.8" />
            <stop offset="1" stop-color="#FF921E" stop-opacity="0" />
        </radialGradient>
        <radialGradient id="paint18_radial" cx="0" cy="0" r="1" gradientUnits="userSpaceOnUse"
            gradientTransform="translate(351.511 390.182) rotate(10.9629) scale(39.3574 30.8534)">
            <stop stop-color="#110800" />
            <stop offset="0.591" stop-color="#A65A00" stop-opacity="0.8" />
            <stop offset="1" stop-color="#FF921E" stop-opacity="0" />
        </radialGradient>
        <radialGradient id="paint19_radial" cx="0" cy="0" r="1" gradientUnits="userSpaceOnUse"
            gradientTransform="translate(381.769 359.826) rotate(23.5213) scale(14.1479 6.53886)">
            <stop stop-color="#7C7C7C" />
            <stop offset="1" stop-color="#7C7C7C" stop-opacity="0.329" />
        </radialGradient>
        <linearGradient id="paint20_linear" x1="343.324" y1="353.492" x2="348.584" y2="353.273"
            gradientUnits="userSpaceOnUse">
            <stop stop-color="#7C7C7C" />
            <stop offset="1" stop-color="#7C7C7C" stop-opacity="0.329" />
        </linearGradient>
        <linearGradient id="paint21_linear" x1="53.3874" y1="392.377" x2="137.073" y2="532.781"
            gradientUnits="userSpaceOnUse">
            <stop stop-color="#B98309" />
            <stop offset="1" stop-color="#382605" />
        </linearGradient>
        <linearGradient id="paint22_linear" x1="137.383" y1="428.64" x2="163.728" y2="478.231"
            gradientUnits="userSpaceOnUse">
            <stop stop-color="#EBC40C" />
            <stop offset="1" stop-color="#EBC40C" stop-opacity="0" />
        </linearGradient>
    </defs>
</svg>