<svg width="91" height="92" viewBox="0 0 91 92" fill="none" xmlns="http://www.w3.org/2000/svg">
<g filter="url(#filter0_d)">
<rect x="4" width="83" height="84" rx="41.5" fill="#ECECEC"/>
</g>
<path d="M56.2188 46.9766C55.8672 49.9844 54.7539 52.3086 52.8789 53.9492C51.0169 55.5768 48.5365 56.3906 45.4375 56.3906C42.0781 56.3906 39.3828 55.1862 37.3516 52.7773C35.3333 50.3685 34.3242 47.1458 34.3242 43.1094V40.375C34.3242 37.7318 34.793 35.4076 35.7305 33.4023C36.681 31.3971 38.0221 29.8607 39.7539 28.793C41.4857 27.7122 43.4909 27.1719 45.7695 27.1719C48.7904 27.1719 51.2122 28.0182 53.0352 29.7109C54.8581 31.3906 55.9193 33.7214 56.2188 36.7031H52.4492C52.1237 34.4375 51.4141 32.7969 50.3203 31.7812C49.2396 30.7656 47.7227 30.2578 45.7695 30.2578C43.3737 30.2578 41.4922 31.1432 40.125 32.9141C38.7708 34.6849 38.0938 37.2044 38.0938 40.4727V43.2266C38.0938 46.3125 38.7383 48.7669 40.0273 50.5898C41.3164 52.4128 43.1198 53.3242 45.4375 53.3242C47.5208 53.3242 49.1159 52.8555 50.2227 51.918C51.3424 50.9674 52.0846 49.3203 52.4492 46.9766H56.2188Z" fill="#10B1FE"/>
<defs>
<filter id="filter0_d" x="0" y="0" width="91" height="92" filterUnits="userSpaceOnUse" color-interpolation-filters="sRGB">
<feFlood flood-opacity="0" result="BackgroundImageFix"/>
<feColorMatrix in="SourceAlpha" type="matrix" values="0 0 0 0 0 0 0 0 0 0 0 0 0 0 0 0 0 0 127 0"/>
<feOffset dy="4"/>
<feGaussianBlur stdDeviation="2"/>
<feColorMatrix type="matrix" values="0 0 0 0 0 0 0 0 0 0 0 0 0 0 0 0 0 0 0.25 0"/>
<feBlend mode="normal" in2="BackgroundImageFix" result="effect1_dropShadow"/>
<feBlend mode="normal" in="SourceGraphic" in2="effect1_dropShadow" result="shape"/>
</filter>
</defs>
</svg>
