<svg xmlns="http://www.w3.org/2000/svg" xmlns:xlink="http://www.w3.org/1999/xlink" width="33" height="23.414" viewBox="0 0 33 23.414">
  <defs>
    <filter id="Line_5" x="0" y="3.414" width="33" height="20" filterUnits="userSpaceOnUse">
      <feOffset dy="3" input="SourceAlpha"/>
      <feGaussianBlur stdDeviation="3" result="blur"/>
      <feFlood flood-opacity="0.161"/>
      <feComposite operator="in" in2="blur"/>
      <feComposite in="SourceGraphic"/>
    </filter>
  </defs>
  <g id="bug" transform="translate(-1125.5 -562.086)">
    <line id="Line_3" data-name="Line 3" x2="13" transform="translate(1135.5 568.5)" fill="none" stroke="#67a469" stroke-linecap="round" stroke-width="2"/>
    <line id="Line_4" data-name="Line 4" x2="13" transform="translate(1135.5 576.5)" fill="none" stroke="#6bab6d" stroke-linecap="round" stroke-width="2"/>
    <g transform="matrix(1, 0, 0, 1, 1125.5, 562.09)" filter="url(#Line_5)">
      <line id="Line_5-2" data-name="Line 5" x2="13" transform="translate(10 10.41)" fill="none" stroke="#67a469" stroke-linecap="round" stroke-width="2"/>
    </g>
    <line id="Line_6" data-name="Line 6" x2="3" y2="3" transform="translate(1139 563.5)" fill="none" stroke="#67a469" stroke-linecap="round" stroke-width="2"/>
    <line id="Line_7" data-name="Line 7" x1="3" y2="3" transform="translate(1142 563.5)" fill="none" stroke="#67a469" stroke-linecap="round" stroke-width="2"/>
    <g id="Rectangle_1" data-name="Rectangle 1" transform="translate(1141 570.5)" fill="none" stroke="#67a469" stroke-linecap="round" stroke-width="1.5">
      <rect width="2" height="1" rx="0.5" stroke="none"/>
      <rect x="-0.75" y="-0.75" width="3.5" height="2.5" rx="1.25" fill="none"/>
    </g>
    <g id="Rectangle_2" data-name="Rectangle 2" transform="translate(1141 573.5)" fill="none" stroke="#67a469" stroke-linecap="round" stroke-width="1.5">
      <rect width="2" height="1" rx="0.5" stroke="none"/>
      <rect x="-0.75" y="-0.75" width="3.5" height="2.5" rx="1.25" fill="none"/>
    </g>
    <g id="Ellipse_1" data-name="Ellipse 1" transform="translate(1137 565)" fill="none" stroke="#67a469" stroke-width="3">
      <ellipse cx="5" cy="7.5" rx="5" ry="7.5" stroke="none"/>
      <ellipse cx="5" cy="7.5" rx="3.5" ry="6" fill="none"/>
    </g>
  </g>
</svg>
