<svg width="89" height="91" viewBox="0 0 89 91" fill="none" xmlns="http://www.w3.org/2000/svg">
<path d="M53 56.5L80 30L71 49.5H87L56 78.5L71 56.5H53Z" fill="#FFD000" stroke="#FFD000"/>
<path d="M35.301 70.1846C30.9506 68.742 26.9802 66.2286 23.75 62.8552C20.5194 59.4815 18.1355 55.3582 16.8147 50.8515C15.494 46.3449 15.2803 41.6056 16.1833 37.0564C17.0861 32.5081 19.0759 28.2954 21.9624 24.7842C24.8484 21.2737 28.5457 18.5673 32.7252 16.8964C36.9047 15.2255 41.4498 14.6366 45.9623 15.1895C50.4758 15.7425 54.824 17.4219 58.6164 20.0938C62.4095 22.7661 65.5248 26.3459 67.6776 30.52" stroke="#6BAB6D" stroke-width="10"/>
<path d="M53.3132 76.2667L30.7819 82.156L38.9377 57.9448L53.3132 76.2667Z" fill="#6BAB6D"/>
</svg>
