<svg width="395" height="84" viewBox="0 0 395 84" fill="none" xmlns="http://www.w3.org/2000/svg">
<rect x="1.5" y="1.5" width="392" height="81" rx="8.5" fill="white" stroke="#C4C4C4" stroke-width="3"/>
<path d="M102.338 32.584L102.46 35.5137C104.397 33.235 107.009 32.0957 110.297 32.0957C113.992 32.0957 116.506 33.5117 117.841 36.3438C118.72 35.0742 119.859 34.0488 121.259 33.2676C122.675 32.4863 124.343 32.0957 126.264 32.0957C132.058 32.0957 135.004 35.1637 135.102 41.2998V59H130.585V41.5684C130.585 39.6803 130.154 38.2725 129.291 37.3447C128.428 36.4007 126.98 35.9287 124.945 35.9287C123.269 35.9287 121.877 36.4333 120.771 37.4424C119.664 38.4352 119.021 39.778 118.842 41.4707V59H114.301V41.6904C114.301 37.8493 112.421 35.9287 108.661 35.9287C105.699 35.9287 103.673 37.1901 102.582 39.7129V59H98.0654V32.584H102.338ZM158.246 59C157.986 58.4792 157.774 57.5514 157.611 56.2168C155.512 58.3978 153.005 59.4883 150.092 59.4883C147.488 59.4883 145.347 58.7559 143.671 57.291C142.011 55.8099 141.181 53.9382 141.181 51.6758C141.181 48.9251 142.222 46.793 144.306 45.2793C146.405 43.7493 149.351 42.9844 153.144 42.9844H157.538V40.9092C157.538 39.3304 157.066 38.0771 156.122 37.1494C155.178 36.2054 153.786 35.7334 151.947 35.7334C150.336 35.7334 148.985 36.1403 147.895 36.9541C146.804 37.7679 146.259 38.7526 146.259 39.9082H141.718C141.718 38.5898 142.182 37.3203 143.109 36.0996C144.053 34.8626 145.323 33.8861 146.918 33.1699C148.529 32.4538 150.295 32.0957 152.216 32.0957C155.259 32.0957 157.644 32.8607 159.369 34.3906C161.094 35.9043 161.99 37.9958 162.055 40.665V52.8232C162.055 55.2484 162.364 57.1771 162.982 58.6094V59H158.246ZM150.751 55.5576C152.167 55.5576 153.51 55.1914 154.779 54.459C156.049 53.7266 156.968 52.7744 157.538 51.6025V46.1826H153.998C148.464 46.1826 145.697 47.8021 145.697 51.041C145.697 52.457 146.169 53.5638 147.113 54.3613C148.057 55.1589 149.27 55.5576 150.751 55.5576ZM174.042 59H169.525V32.584H174.042V59ZM169.159 25.5771C169.159 24.8447 169.379 24.2262 169.818 23.7217C170.274 23.2171 170.941 22.9648 171.82 22.9648C172.699 22.9648 173.367 23.2171 173.822 23.7217C174.278 24.2262 174.506 24.8447 174.506 25.5771C174.506 26.3096 174.278 26.9199 173.822 27.4082C173.367 27.8965 172.699 28.1406 171.82 28.1406C170.941 28.1406 170.274 27.8965 169.818 27.4082C169.379 26.9199 169.159 26.3096 169.159 25.5771ZM185.565 32.584L185.712 35.9043C187.73 33.3652 190.367 32.0957 193.622 32.0957C199.205 32.0957 202.021 35.2451 202.069 41.5439V59H197.553V41.5195C197.536 39.6152 197.097 38.2074 196.234 37.2959C195.388 36.3844 194.062 35.9287 192.255 35.9287C190.79 35.9287 189.504 36.3193 188.397 37.1006C187.291 37.8818 186.428 38.9072 185.81 40.1768V59H181.293V32.584H185.565ZM208.979 56.6318C208.979 55.8506 209.206 55.1995 209.662 54.6787C210.134 54.1579 210.834 53.8975 211.762 53.8975C212.689 53.8975 213.389 54.1579 213.861 54.6787C214.35 55.1995 214.594 55.8506 214.594 56.6318C214.594 57.3805 214.35 58.0072 213.861 58.5117C213.389 59.0163 212.689 59.2686 211.762 59.2686C210.834 59.2686 210.134 59.0163 209.662 58.5117C209.206 58.0072 208.979 57.3805 208.979 56.6318ZM220.966 45.5723C220.966 41.5195 221.926 38.2643 223.847 35.8066C225.767 33.3327 228.282 32.0957 231.391 32.0957C234.483 32.0957 236.933 33.1536 238.739 35.2695V21.5H243.256V59H239.105L238.886 56.168C237.079 58.3815 234.564 59.4883 231.342 59.4883C228.282 59.4883 225.784 58.235 223.847 55.7285C221.926 53.222 220.966 49.9505 220.966 45.9141V45.5723ZM225.482 46.085C225.482 49.0798 226.101 51.4235 227.338 53.1162C228.575 54.8089 230.284 55.6553 232.465 55.6553C235.329 55.6553 237.421 54.3695 238.739 51.7979V39.6641C237.388 37.1738 235.313 35.9287 232.514 35.9287C230.3 35.9287 228.575 36.7832 227.338 38.4922C226.101 40.2012 225.482 42.7321 225.482 46.085ZM266.596 59C266.335 58.4792 266.124 57.5514 265.961 56.2168C263.861 58.3978 261.355 59.4883 258.441 59.4883C255.837 59.4883 253.697 58.7559 252.021 57.291C250.36 55.8099 249.53 53.9382 249.53 51.6758C249.53 48.9251 250.572 46.793 252.655 45.2793C254.755 43.7493 257.701 42.9844 261.493 42.9844H265.888V40.9092C265.888 39.3304 265.416 38.0771 264.472 37.1494C263.528 36.2054 262.136 35.7334 260.297 35.7334C258.686 35.7334 257.335 36.1403 256.244 36.9541C255.154 37.7679 254.608 38.7526 254.608 39.9082H250.067C250.067 38.5898 250.531 37.3203 251.459 36.0996C252.403 34.8626 253.673 33.8861 255.268 33.1699C256.879 32.4538 258.645 32.0957 260.565 32.0957C263.609 32.0957 265.993 32.8607 267.719 34.3906C269.444 35.9043 270.339 37.9958 270.404 40.665V52.8232C270.404 55.2484 270.714 57.1771 271.332 58.6094V59H266.596ZM259.101 55.5576C260.517 55.5576 261.859 55.1914 263.129 54.459C264.398 53.7266 265.318 52.7744 265.888 51.6025V46.1826H262.348C256.814 46.1826 254.047 47.8021 254.047 51.041C254.047 52.457 254.519 53.5638 255.463 54.3613C256.407 55.1589 257.619 55.5576 259.101 55.5576ZM290.253 36.6367C289.569 36.5228 288.829 36.4658 288.031 36.4658C285.069 36.4658 283.059 37.7272 282.001 40.25V59H277.484V32.584H281.879L281.952 35.6357C283.433 33.2757 285.533 32.0957 288.251 32.0957C289.13 32.0957 289.797 32.2096 290.253 32.4375V36.6367ZM301.776 26.1875V32.584H306.708V36.0752H301.776V52.457C301.776 53.515 301.996 54.3125 302.436 54.8496C302.875 55.3704 303.624 55.6309 304.682 55.6309C305.202 55.6309 305.919 55.5332 306.83 55.3379V59C305.642 59.3255 304.486 59.4883 303.363 59.4883C301.345 59.4883 299.823 58.8779 298.798 57.6572C297.772 56.4365 297.26 54.7031 297.26 52.457V36.0752H292.45V32.584H297.26V26.1875H301.776Z" fill="#C4C4C4"/>
<path d="M350.701 57L369.35 33.75H332.052L350.701 57Z" fill="#C4C4C4"/>
<path d="M35.2261 53.5358L42.9135 61.228L64.0648 40.072H48.6851L35.2261 53.5358Z" fill="#39CEFD"/>
<path d="M48.6849 17H64.0646L31.3797 49.6897L23.6875 41.9974L48.6849 17Z" fill="#39CEFD"/>
<path d="M42.9136 61.2281L48.6852 66.9949H64.0649L50.6058 53.5358L42.9136 61.2281Z" fill="#03569B"/>
<path d="M54.322 57.2761L50.6058 53.5358L42.9136 61.2281L54.322 57.2761Z" fill="url(#paint0_linear)"/>
<path d="M35.2251 53.5332L42.9175 45.8407L50.6105 53.5332L42.9175 61.2257L35.2251 53.5332Z" fill="#16B9FD"/>
<path d="M64.0646 40.072L50.6056 53.5358L64.0646 66.9996H48.6849L35.2211 53.5358L48.6849 40.072H64.0646ZM48.6849 17L23.6875 41.9974L31.3797 49.6897L64.0646 17H48.6849Z" fill="url(#paint1_radial)"/>
<defs>
<linearGradient id="paint0_linear" x1="45.1584" y1="62.7126" x2="50.8874" y2="56.9836" gradientUnits="userSpaceOnUse">
<stop stop-color="#1A237E" stop-opacity="0.4"/>
<stop offset="1" stop-color="#1A237E" stop-opacity="0"/>
</linearGradient>
<radialGradient id="paint1_radial" cx="0" cy="0" r="1" gradientUnits="userSpaceOnUse" gradientTransform="translate(24.8218 20.4079) scale(61.1684)">
<stop stop-color="white" stop-opacity="0.1"/>
<stop offset="1" stop-color="white" stop-opacity="0"/>
</radialGradient>
</defs>
</svg>
