<svg width="378" height="84" viewBox="0 0 378 84" fill="none" xmlns="http://www.w3.org/2000/svg">
<rect x="1.5" y="1.5" width="375" height="81" rx="8.5" fill="white" stroke="#C4C4C4" stroke-width="3"/>
<rect x="33.5" y="12.5" width="31" height="59" rx="4.5" stroke="#03AFFD" stroke-width="5"/>
<rect x="39.5" y="61.5" width="19" height="9" stroke="#03AFFD" stroke-width="7"/>
<line x1="36" y1="17.5" x2="62" y2="17.5" stroke="#03AFFD" stroke-width="5"/>
<path d="M117.163 44.6201H108.813V59H104.102V23.4531H115.869C119.873 23.4531 122.949 24.3646 125.098 26.1875C127.262 28.0104 128.345 30.6634 128.345 34.1465C128.345 36.36 127.743 38.2887 126.538 39.9326C125.35 41.5765 123.69 42.8053 121.558 43.6191L129.907 58.707V59H124.878L117.163 44.6201ZM108.813 40.7871H116.016C118.343 40.7871 120.19 40.1849 121.558 38.9805C122.941 37.776 123.633 36.1647 123.633 34.1465C123.633 31.9492 122.974 30.2646 121.655 29.0928C120.353 27.9209 118.465 27.3268 115.991 27.3105H108.813V40.7871ZM145.19 59.4883C141.61 59.4883 138.696 58.3164 136.45 55.9727C134.204 53.6126 133.081 50.4632 133.081 46.5244V45.6943C133.081 43.0739 133.577 40.7383 134.57 38.6875C135.579 36.6204 136.979 35.0091 138.77 33.8535C140.576 32.6816 142.529 32.0957 144.629 32.0957C148.063 32.0957 150.732 33.2269 152.637 35.4893C154.541 37.7516 155.493 40.9906 155.493 45.2061V47.0859H137.598C137.663 49.6901 138.42 51.7979 139.868 53.4092C141.333 55.0042 143.188 55.8018 145.435 55.8018C147.03 55.8018 148.381 55.4762 149.487 54.8252C150.594 54.1742 151.562 53.3115 152.393 52.2373L155.151 54.3857C152.938 57.7874 149.618 59.4883 145.19 59.4883ZM144.629 35.8066C142.806 35.8066 141.276 36.474 140.039 37.8086C138.802 39.127 138.037 40.9824 137.744 43.375H150.977V43.0332C150.846 40.7383 150.228 38.9642 149.121 37.7109C148.014 36.4414 146.517 35.8066 144.629 35.8066ZM159.644 45.5723C159.644 41.5195 160.604 38.2643 162.524 35.8066C164.445 33.3327 166.96 32.0957 170.068 32.0957C173.161 32.0957 175.61 33.1536 177.417 35.2695V21.5H181.934V59H177.783L177.563 56.168C175.757 58.3815 173.242 59.4883 170.02 59.4883C166.96 59.4883 164.461 58.235 162.524 55.7285C160.604 53.222 159.644 49.9505 159.644 45.9141V45.5723ZM164.16 46.085C164.16 49.0798 164.779 51.4235 166.016 53.1162C167.253 54.8089 168.962 55.6553 171.143 55.6553C174.007 55.6553 176.099 54.3695 177.417 51.7979V39.6641C176.066 37.1738 173.991 35.9287 171.191 35.9287C168.978 35.9287 167.253 36.7832 166.016 38.4922C164.779 40.2012 164.16 42.7321 164.16 46.085ZM193.213 32.584L193.335 35.5137C195.272 33.235 197.884 32.0957 201.172 32.0957C204.867 32.0957 207.381 33.5117 208.716 36.3438C209.595 35.0742 210.734 34.0488 212.134 33.2676C213.55 32.4863 215.218 32.0957 217.139 32.0957C222.933 32.0957 225.879 35.1637 225.977 41.2998V59H221.46V41.5684C221.46 39.6803 221.029 38.2725 220.166 37.3447C219.303 36.4007 217.855 35.9287 215.82 35.9287C214.144 35.9287 212.752 36.4333 211.646 37.4424C210.539 38.4352 209.896 39.778 209.717 41.4707V59H205.176V41.6904C205.176 37.8493 203.296 35.9287 199.536 35.9287C196.574 35.9287 194.548 37.1901 193.457 39.7129V59H188.94V32.584H193.213ZM237.72 59H233.203V32.584H237.72V59ZM232.837 25.5771C232.837 24.8447 233.057 24.2262 233.496 23.7217C233.952 23.2171 234.619 22.9648 235.498 22.9648C236.377 22.9648 237.044 23.2171 237.5 23.7217C237.956 24.2262 238.184 24.8447 238.184 25.5771C238.184 26.3096 237.956 26.9199 237.5 27.4082C237.044 27.8965 236.377 28.1406 235.498 28.1406C234.619 28.1406 233.952 27.8965 233.496 27.4082C233.057 26.9199 232.837 26.3096 232.837 25.5771ZM278.467 32.7305C278.467 34.5046 277.995 36.0833 277.051 37.4668C276.123 38.8503 274.862 39.9326 273.267 40.7139C275.122 41.5114 276.587 42.6751 277.661 44.2051C278.752 45.735 279.297 47.4684 279.297 49.4053C279.297 52.4814 278.255 54.931 276.172 56.7539C274.105 58.5768 271.379 59.4883 267.993 59.4883C264.575 59.4883 261.833 58.5768 259.766 56.7539C257.715 54.9147 256.689 52.4652 256.689 49.4053C256.689 47.4847 257.21 45.7513 258.252 44.2051C259.31 42.6589 260.767 41.487 262.622 40.6895C261.043 39.9082 259.798 38.8258 258.887 37.4424C257.975 36.0589 257.52 34.4883 257.52 32.7305C257.52 29.7357 258.48 27.3594 260.4 25.6016C262.321 23.8438 264.852 22.9648 267.993 22.9648C271.118 22.9648 273.641 23.8438 275.562 25.6016C277.498 27.3594 278.467 29.7357 278.467 32.7305ZM274.78 49.3076C274.78 47.3219 274.146 45.7025 272.876 44.4492C271.623 43.196 269.979 42.5693 267.944 42.5693C265.91 42.5693 264.274 43.1878 263.037 44.4248C261.816 45.6618 261.206 47.2894 261.206 49.3076C261.206 51.3258 261.8 52.9128 262.988 54.0684C264.193 55.224 265.861 55.8018 267.993 55.8018C270.109 55.8018 271.769 55.224 272.974 54.0684C274.178 52.8965 274.78 51.3096 274.78 49.3076ZM267.993 26.6758C266.219 26.6758 264.779 27.2292 263.672 28.3359C262.581 29.4264 262.036 30.9157 262.036 32.8037C262.036 34.6104 262.573 36.0752 263.647 37.1982C264.738 38.305 266.187 38.8584 267.993 38.8584C269.8 38.8584 271.24 38.305 272.314 37.1982C273.405 36.0752 273.95 34.6104 273.95 32.8037C273.95 30.9971 273.389 29.5241 272.266 28.3848C271.143 27.2454 269.718 26.6758 267.993 26.6758Z" fill="#C4C4C4"/>
<path d="M335 57L352.321 33.75H317.679L335 57Z" fill="#C4C4C4"/>
</svg>
